G04 #@! TF.GenerationSoftware,KiCad,Pcbnew,(5.1.5)-3*
G04 #@! TF.CreationDate,2020-05-04T10:21:06+03:00*
G04 #@! TF.ProjectId,respirator-control_rev2,72657370-6972-4617-946f-722d636f6e74,rev?*
G04 #@! TF.SameCoordinates,Original*
G04 #@! TF.FileFunction,Profile,NP*
%FSLAX46Y46*%
G04 Gerber Fmt 4.6, Leading zero omitted, Abs format (unit mm)*
G04 Created by KiCad (PCBNEW (5.1.5)-3) date 2020-05-04 10:21:06*
%MOMM*%
%LPD*%
G04 APERTURE LIST*
%ADD10C,0.150000*%
%ADD11C,0.200000*%
G04 APERTURE END LIST*
D10*
X180494000Y-167644000D02*
G75*
G03X180494000Y-167644000I-3000000J0D01*
G01*
X160380000Y-167644000D02*
G75*
G03X160380000Y-167644000I-3000000J0D01*
G01*
X130710000Y-175518000D02*
X136552000Y-175518002D01*
X130710000Y-174756000D02*
X130710000Y-175518000D01*
X130710000Y-174756000D02*
X130710000Y-69500000D01*
X130710000Y-222000000D02*
X130710000Y-185678000D01*
X136552000Y-185678000D02*
X130710000Y-185678000D01*
X136552000Y-175518002D02*
G75*
G02X136552000Y-185678000I253999J-5079999D01*
G01*
D11*
X168168001Y-107263473D02*
G75*
G03X168168001Y-107263473I-1600000J0D01*
G01*
X138468001Y-74834992D02*
G75*
G03X138468001Y-74834992I-1900000J0D01*
G01*
X282710000Y-222000000D02*
X282710000Y-69500000D01*
X250068001Y-137263473D02*
G75*
G03X250068001Y-137263473I-5500000J0D01*
G01*
X130710000Y-222000000D02*
X282710000Y-222000000D01*
X210068001Y-137263473D02*
G75*
G03X210068001Y-137263473I-5500000J0D01*
G01*
X280198001Y-179734992D02*
G75*
G03X280198001Y-179734992I-1900000J0D01*
G01*
X168168001Y-76263473D02*
G75*
G03X168168001Y-76263473I-1600000J0D01*
G01*
X280198001Y-74834992D02*
G75*
G03X280198001Y-74834992I-1900000J0D01*
G01*
X243168001Y-76263473D02*
G75*
G03X243168001Y-76263473I-1600000J0D01*
G01*
X282710000Y-69500000D02*
X130710000Y-69500000D01*
X170068001Y-137263473D02*
G75*
G03X170068001Y-137263473I-5500000J0D01*
G01*
X243168001Y-107263473D02*
G75*
G03X243168001Y-107263473I-1600000J0D01*
G01*
M02*
