M48
; DRILL file {KiCad (5.1.5)-3} date 05/04/20 10:21:17
; FORMAT={-:-/ absolute / inch / decimal}
; #@! TF.CreationDate,2020-05-04T10:21:17+03:00
; #@! TF.GenerationSoftware,Kicad,Pcbnew,(5.1.5)-3
; #@! TF.FileFunction,Plated,1,2,PTH
FMAT,2
INCH
T1C0.0295
T2C0.0315
T3C0.0320
T4C0.0354
T5C0.0394
T6C0.0433
T7C0.0472
T8C0.0512
T9C0.0520
T10C0.0984
%
G90
G05
T1
X5.9231Y-7.8892
X5.9231Y-7.9392
X5.9231Y-7.9892
X5.9896Y-7.2587
X5.9896Y-7.3087
X5.9896Y-7.3587
T2
X8.8786Y-6.535
X8.8786Y-6.835
X5.8581Y-7.6987
X6.1581Y-7.6987
X7.8561Y-6.535
X7.8561Y-6.835
X6.3556Y-7.2517
X6.3556Y-7.5517
X9.0831Y-6.535
X9.0831Y-6.835
X8.2651Y-6.535
X8.2651Y-6.835
X9.2261Y-8.045
X9.5261Y-8.045
X8.0606Y-6.535
X8.0606Y-6.835
X9.2876Y-6.535
X9.2876Y-6.835
X6.1656Y-7.2427
X6.1656Y-7.5427
X8.4696Y-6.535
X8.4696Y-6.835
X9.7161Y-6.535
X9.7161Y-6.835
X8.6741Y-6.535
X8.6741Y-6.835
X8.0461Y-7.265
X8.0461Y-7.865
X8.1461Y-7.265
X8.1461Y-7.865
X8.2461Y-7.265
X8.2461Y-7.865
X8.3461Y-7.265
X8.3461Y-7.865
X8.4461Y-7.265
X8.4461Y-7.865
X8.5461Y-7.265
X8.5461Y-7.865
X8.6461Y-7.265
X8.6461Y-7.865
X8.7461Y-7.265
X8.7461Y-7.865
X8.8461Y-7.265
X8.8461Y-7.865
X8.9461Y-7.265
X8.9461Y-7.865
X9.0461Y-7.265
X9.0461Y-7.865
X9.1461Y-7.265
X9.1461Y-7.865
X9.2461Y-7.265
X9.2461Y-7.865
X9.3461Y-7.265
X9.3461Y-7.865
X9.4461Y-7.265
X9.4461Y-7.865
X9.9011Y-6.535
X9.9011Y-6.835
X5.8716Y-8.1512
X6.1716Y-8.1512
X9.2361Y-8.235
X9.5361Y-8.235
T3
X5.4361Y-4.755
X5.5361Y-4.755
X5.6361Y-4.755
T4
X5.4061Y-5.765
X5.4911Y-5.765
X5.5761Y-5.765
X5.6611Y-5.765
X7.2861Y-6.765
X7.3861Y-6.765
T5
X8.4461Y-8.395
X6.8211Y-7.2902
X6.9211Y-7.2902
X7.0211Y-7.2902
X7.0961Y-6.19
X7.1961Y-6.19
X7.2961Y-6.19
X7.3961Y-6.19
X7.4961Y-6.19
X7.5961Y-6.19
X7.6961Y-6.19
X7.7961Y-6.19
X7.8961Y-6.19
X7.9961Y-6.19
X8.0961Y-6.19
X8.1961Y-6.19
X8.2961Y-6.19
X8.3961Y-6.19
X8.4961Y-6.19
X8.5961Y-6.19
X8.6961Y-6.19
X8.7961Y-6.19
X8.8961Y-6.19
X8.9961Y-6.19
X9.0961Y-6.19
X9.1961Y-6.19
X9.2961Y-6.19
X9.3961Y-6.19
X9.4961Y-6.19
X9.5961Y-6.19
X9.6961Y-6.19
X9.7961Y-6.19
X9.8961Y-6.19
X9.9961Y-6.19
X5.3521Y-7.7997
X5.4521Y-7.7997
X5.5521Y-7.7997
X5.6521Y-7.7997
X6.2541Y-3.7051
X6.2541Y-3.8051
X6.2541Y-3.9051
X6.2541Y-4.0051
X6.3506Y-8.2957
X6.4506Y-8.2957
X6.5506Y-8.2957
X9.0561Y-7.9997
X9.0561Y-8.295
T6
X5.4361Y-6.6281
X5.4361Y-6.825
X5.6329Y-6.6281
X5.6329Y-6.825
X5.4561Y-3.1481
X5.4561Y-3.345
X5.6529Y-3.1481
X5.6529Y-3.345
T7
X6.7761Y-4.225
X6.8761Y-4.225
X6.9761Y-4.225
X7.0761Y-4.225
X7.1761Y-4.225
X7.2761Y-4.225
X7.3761Y-4.225
X7.4761Y-4.225
X7.5761Y-4.225
X7.6761Y-4.225
X7.7761Y-4.225
X7.8761Y-4.225
X7.9761Y-4.225
X8.0761Y-4.225
X8.1761Y-4.225
X8.2761Y-4.225
X9.7742Y-8.09
X9.9711Y-8.09
T8
X7.8324Y-4.815
X8.0292Y-4.815
X8.2261Y-4.815
X6.2624Y-4.815
X6.4592Y-4.815
X6.6561Y-4.815
X9.4024Y-4.815
X9.5992Y-4.815
X9.7961Y-4.815
T9
X9.9211Y-7.4931
X9.9211Y-7.69
T10
X6.5596Y-3.0045
X6.5596Y-4.225
X9.5123Y-3.0045
X9.5123Y-4.225
T0
M30
