G04 #@! TF.GenerationSoftware,KiCad,Pcbnew,(5.1.5)-3*
G04 #@! TF.CreationDate,2020-05-04T10:21:06+03:00*
G04 #@! TF.ProjectId,respirator-control_rev2,72657370-6972-4617-946f-722d636f6e74,rev?*
G04 #@! TF.SameCoordinates,Original*
G04 #@! TF.FileFunction,Other,Fab,Top*
%FSLAX46Y46*%
G04 Gerber Fmt 4.6, Leading zero omitted, Abs format (unit mm)*
G04 Created by KiCad (PCBNEW (5.1.5)-3) date 2020-05-04 10:21:06*
%MOMM*%
%LPD*%
G04 APERTURE LIST*
%ADD10C,0.100000*%
%ADD11C,0.150000*%
G04 APERTURE END LIST*
D10*
X156605300Y-191583500D02*
X156605300Y-190923500D01*
X156605300Y-183963500D02*
X156605300Y-184623500D01*
X157855300Y-190923500D02*
X157855300Y-184623500D01*
X155355300Y-190923500D02*
X157855300Y-190923500D01*
X155355300Y-184623500D02*
X155355300Y-190923500D01*
X157855300Y-184623500D02*
X155355300Y-184623500D01*
X149137700Y-207039400D02*
X149797700Y-207039400D01*
X156757700Y-207039400D02*
X156097700Y-207039400D01*
X149797700Y-208289400D02*
X156097700Y-208289400D01*
X149797700Y-205789400D02*
X149797700Y-208289400D01*
X156097700Y-205789400D02*
X149797700Y-205789400D01*
X156097700Y-208289400D02*
X156097700Y-205789400D01*
X161431300Y-184192100D02*
X161431300Y-184852100D01*
X161431300Y-191812100D02*
X161431300Y-191152100D01*
X160181300Y-184852100D02*
X160181300Y-191152100D01*
X162681300Y-184852100D02*
X160181300Y-184852100D01*
X162681300Y-191152100D02*
X162681300Y-184852100D01*
X160181300Y-191152100D02*
X162681300Y-191152100D01*
X148794800Y-195545900D02*
X149454800Y-195545900D01*
X156414800Y-195545900D02*
X155754800Y-195545900D01*
X149454800Y-196795900D02*
X155754800Y-196795900D01*
X149454800Y-194295900D02*
X149454800Y-196795900D01*
X155754800Y-194295900D02*
X149454800Y-194295900D01*
X155754800Y-196795900D02*
X155754800Y-194295900D01*
X150381275Y-183886275D02*
G75*
G02X154614900Y-185639900I1753625J-1753625D01*
G01*
X150381275Y-187393525D02*
G75*
G03X154614900Y-185639900I1753625J1753625D01*
G01*
X150384900Y-183869900D02*
X150384900Y-187369900D01*
X148692175Y-199900975D02*
G75*
G02X152925800Y-201654600I1753625J-1753625D01*
G01*
X148692175Y-203408225D02*
G75*
G03X152925800Y-201654600I1753625J1753625D01*
G01*
X148695800Y-199884600D02*
X148695800Y-203384600D01*
X143882400Y-194071300D02*
X143882400Y-188071300D01*
X143242400Y-188071300D02*
X143882400Y-188071300D01*
X143242400Y-194071300D02*
X143242400Y-188071300D01*
X143882400Y-198431300D02*
X143882400Y-196611300D01*
X143242400Y-198431300D02*
X143882400Y-198431300D01*
X143242400Y-198431300D02*
X143242400Y-196611300D01*
X141342400Y-194071300D02*
X141342400Y-188071300D01*
X140702400Y-188071300D02*
X141342400Y-188071300D01*
X140702400Y-194071300D02*
X140702400Y-188071300D01*
X141342400Y-198431300D02*
X141342400Y-196611300D01*
X140702400Y-198431300D02*
X141342400Y-198431300D01*
X140702400Y-198431300D02*
X140702400Y-196611300D01*
X138802400Y-194071300D02*
X138802400Y-188071300D01*
X138162400Y-188071300D02*
X138802400Y-188071300D01*
X138162400Y-194071300D02*
X138162400Y-188071300D01*
X138802400Y-198431300D02*
X138802400Y-196611300D01*
X138162400Y-198431300D02*
X138802400Y-198431300D01*
X138162400Y-198431300D02*
X138162400Y-196611300D01*
X136262400Y-194071300D02*
X136262400Y-188071300D01*
X135622400Y-188071300D02*
X136262400Y-188071300D01*
X135622400Y-194071300D02*
X135622400Y-188071300D01*
X136262400Y-198431300D02*
X136262400Y-196611300D01*
X135622400Y-198431300D02*
X136262400Y-198431300D01*
X135622400Y-198431300D02*
X135622400Y-196611300D01*
X135307400Y-196611300D02*
X134672400Y-195976300D01*
X144832400Y-196611300D02*
X135307400Y-196611300D01*
X144832400Y-194071300D02*
X144832400Y-196611300D01*
X134672400Y-194071300D02*
X144832400Y-194071300D01*
X134672400Y-195976300D02*
X134672400Y-194071300D01*
X178655000Y-181130000D02*
X178655000Y-175130000D01*
X178015000Y-175130000D02*
X178655000Y-175130000D01*
X178015000Y-181130000D02*
X178015000Y-175130000D01*
X178655000Y-185490000D02*
X178655000Y-183670000D01*
X178015000Y-185490000D02*
X178655000Y-185490000D01*
X178015000Y-185490000D02*
X178015000Y-183670000D01*
X176115000Y-181130000D02*
X176115000Y-175130000D01*
X175475000Y-175130000D02*
X176115000Y-175130000D01*
X175475000Y-181130000D02*
X175475000Y-175130000D01*
X176115000Y-185490000D02*
X176115000Y-183670000D01*
X175475000Y-185490000D02*
X176115000Y-185490000D01*
X175475000Y-185490000D02*
X175475000Y-183670000D01*
X173575000Y-181130000D02*
X173575000Y-175130000D01*
X172935000Y-175130000D02*
X173575000Y-175130000D01*
X172935000Y-181130000D02*
X172935000Y-175130000D01*
X173575000Y-185490000D02*
X173575000Y-183670000D01*
X172935000Y-185490000D02*
X173575000Y-185490000D01*
X172935000Y-185490000D02*
X172935000Y-183670000D01*
X172620000Y-183670000D02*
X171985000Y-183035000D01*
X179605000Y-183670000D02*
X172620000Y-183670000D01*
X179605000Y-181130000D02*
X179605000Y-183670000D01*
X171985000Y-181130000D02*
X179605000Y-181130000D01*
X171985000Y-183035000D02*
X171985000Y-181130000D01*
X166704300Y-206669700D02*
X166704300Y-200669700D01*
X166064300Y-200669700D02*
X166704300Y-200669700D01*
X166064300Y-206669700D02*
X166064300Y-200669700D01*
X166704300Y-211029700D02*
X166704300Y-209209700D01*
X166064300Y-211029700D02*
X166704300Y-211029700D01*
X166064300Y-211029700D02*
X166064300Y-209209700D01*
X164164300Y-206669700D02*
X164164300Y-200669700D01*
X163524300Y-200669700D02*
X164164300Y-200669700D01*
X163524300Y-206669700D02*
X163524300Y-200669700D01*
X164164300Y-211029700D02*
X164164300Y-209209700D01*
X163524300Y-211029700D02*
X164164300Y-211029700D01*
X163524300Y-211029700D02*
X163524300Y-209209700D01*
X161624300Y-206669700D02*
X161624300Y-200669700D01*
X160984300Y-200669700D02*
X161624300Y-200669700D01*
X160984300Y-206669700D02*
X160984300Y-200669700D01*
X161624300Y-211029700D02*
X161624300Y-209209700D01*
X160984300Y-211029700D02*
X161624300Y-211029700D01*
X160984300Y-211029700D02*
X160984300Y-209209700D01*
X160669300Y-209209700D02*
X160034300Y-208574700D01*
X167654300Y-209209700D02*
X160669300Y-209209700D01*
X167654300Y-206669700D02*
X167654300Y-209209700D01*
X160034300Y-206669700D02*
X167654300Y-206669700D01*
X160034300Y-208574700D02*
X160034300Y-206669700D01*
X160124000Y-102365000D02*
X159489000Y-103000000D01*
X160124000Y-92840000D02*
X160124000Y-102365000D01*
X157584000Y-92840000D02*
X160124000Y-92840000D01*
X157584000Y-103000000D02*
X157584000Y-92840000D01*
X159489000Y-103000000D02*
X157584000Y-103000000D01*
X227524000Y-203193000D02*
X227524000Y-210693000D01*
X232524000Y-203193000D02*
X227524000Y-203193000D01*
X232524000Y-210693000D02*
X232524000Y-203193000D01*
X227524000Y-210693000D02*
X232524000Y-210693000D01*
X242216000Y-209169000D02*
X241556000Y-209169000D01*
X234596000Y-209169000D02*
X235256000Y-209169000D01*
X241556000Y-207919000D02*
X235256000Y-207919000D01*
X241556000Y-210419000D02*
X241556000Y-207919000D01*
X235256000Y-210419000D02*
X241556000Y-210419000D01*
X235256000Y-207919000D02*
X235256000Y-210419000D01*
X234342000Y-204343000D02*
X235002000Y-204343000D01*
X241962000Y-204343000D02*
X241302000Y-204343000D01*
X235002000Y-205593000D02*
X241302000Y-205593000D01*
X235002000Y-203093000D02*
X235002000Y-205593000D01*
X241302000Y-203093000D02*
X235002000Y-203093000D01*
X241302000Y-205593000D02*
X241302000Y-203093000D01*
X243740000Y-201041000D02*
X200560000Y-201041000D01*
X243740000Y-184531000D02*
X243740000Y-201041000D01*
X242470000Y-183261000D02*
X243740000Y-184531000D01*
X200560000Y-183261000D02*
X242470000Y-183261000D01*
X200560000Y-201041000D02*
X200560000Y-183261000D01*
X198020000Y-188341000D02*
X208180000Y-188341000D01*
X198020000Y-195961000D02*
X198020000Y-188341000D01*
X208180000Y-195961000D02*
X198020000Y-195961000D01*
X208180000Y-188341000D02*
X208180000Y-195961000D01*
X254535000Y-196586000D02*
X254535000Y-194046000D01*
X254535000Y-194046000D02*
X251745000Y-194046000D01*
X251745000Y-196586000D02*
X251745000Y-194046000D01*
X254535000Y-196586000D02*
X251745000Y-196586000D01*
X254535000Y-191586000D02*
X254535000Y-189046000D01*
X254535000Y-189046000D02*
X251745000Y-189046000D01*
X251745000Y-191586000D02*
X251745000Y-189046000D01*
X254535000Y-191586000D02*
X251745000Y-191586000D01*
X245775000Y-187716000D02*
X248825000Y-187716000D01*
X245775000Y-187716000D02*
X245775000Y-197906000D01*
X245775000Y-187716000D02*
X245775000Y-187216000D01*
X245775000Y-187216000D02*
X250595000Y-187216000D01*
X250595000Y-187216000D02*
X250345000Y-187716000D01*
X257455000Y-187216000D02*
X257205000Y-187716000D01*
X257205000Y-187716000D02*
X258215000Y-187716000D01*
X255805000Y-187216000D02*
X256055000Y-187716000D01*
X256055000Y-187716000D02*
X257205000Y-187716000D01*
X255805000Y-187216000D02*
X257455000Y-187216000D01*
X258215000Y-192346000D02*
X256315000Y-192346000D01*
X251745000Y-188276000D02*
X256315000Y-188276000D01*
X258215000Y-192346000D02*
X258215000Y-188276000D01*
X258215000Y-188276000D02*
X258215000Y-187716000D01*
X258215000Y-193286000D02*
X256315000Y-193286000D01*
X258215000Y-193286000D02*
X258215000Y-192346000D01*
X251745000Y-197346000D02*
X256315000Y-197346000D01*
X258215000Y-197906000D02*
X258215000Y-197346000D01*
X258215000Y-197346000D02*
X258215000Y-193286000D01*
X256315000Y-192346000D02*
X256315000Y-188276000D01*
X256315000Y-192346000D02*
X251745000Y-192346000D01*
X256315000Y-188276000D02*
X258215000Y-188276000D01*
X256315000Y-193286000D02*
X256315000Y-197346000D01*
X256315000Y-193286000D02*
X251745000Y-193286000D01*
X256315000Y-197346000D02*
X258215000Y-197346000D01*
X255675000Y-188656000D02*
X252505000Y-188656000D01*
X255675000Y-188656000D02*
X255675000Y-191966000D01*
X255675000Y-191966000D02*
X252505000Y-191966000D01*
X255675000Y-193666000D02*
X252505000Y-193666000D01*
X255675000Y-193666000D02*
X255675000Y-196966000D01*
X255675000Y-196966000D02*
X252505000Y-196966000D01*
X252505000Y-196966000D02*
X252505000Y-196586000D01*
X252505000Y-193666000D02*
X252505000Y-194046000D01*
X252505000Y-191966000D02*
X252505000Y-191586000D01*
X252505000Y-188656000D02*
X252505000Y-189046000D01*
X258215000Y-197906000D02*
X251355000Y-197906000D01*
X251355000Y-197906000D02*
X248825000Y-197906000D01*
X250345000Y-187716000D02*
X251355000Y-187716000D01*
X251355000Y-187716000D02*
X256055000Y-187716000D01*
X248825000Y-197906000D02*
X248825000Y-187716000D01*
X248825000Y-197906000D02*
X245775000Y-197906000D01*
X248825000Y-187716000D02*
X250345000Y-187716000D01*
X248565000Y-192346000D02*
X246025000Y-192346000D01*
X246025000Y-192346000D02*
X246025000Y-188276000D01*
X246025000Y-188276000D02*
X248565000Y-188276000D01*
X248565000Y-188276000D02*
X248565000Y-192346000D01*
X248565000Y-193286000D02*
X246025000Y-193286000D01*
X248565000Y-193286000D02*
X248565000Y-197346000D01*
X248565000Y-197346000D02*
X246025000Y-197346000D01*
X246025000Y-193286000D02*
X246025000Y-197346000D01*
X247545000Y-191936000D02*
X246915000Y-188886000D01*
X247675000Y-191806000D02*
X247045000Y-188766000D01*
X247545000Y-196946000D02*
X246915000Y-193886000D01*
X247675000Y-196816000D02*
X247045000Y-193766000D01*
X251745000Y-197346000D02*
X251745000Y-196966000D01*
X251745000Y-193286000D02*
X251745000Y-193666000D01*
X251745000Y-193666000D02*
X251745000Y-196966000D01*
X251355000Y-197906000D02*
X251355000Y-196966000D01*
X251355000Y-196966000D02*
X251355000Y-193666000D01*
X251355000Y-193666000D02*
X251355000Y-191966000D01*
X251355000Y-187716000D02*
X251355000Y-188656000D01*
X251355000Y-188656000D02*
X251355000Y-191966000D01*
X251745000Y-188276000D02*
X251745000Y-188656000D01*
X251745000Y-192346000D02*
X251745000Y-191966000D01*
X251745000Y-191966000D02*
X251745000Y-188656000D01*
X247918995Y-188840468D02*
G75*
G03X246945000Y-188786000I-513995J-455532D01*
G01*
X247826737Y-191778333D02*
G75*
G03X247875000Y-188796000I-1901737J1522333D01*
G01*
X246933313Y-188787761D02*
G75*
G03X246995000Y-191936000I1351687J-1548239D01*
G01*
X246936301Y-191888972D02*
G75*
G03X247865000Y-191746000I408699J432972D01*
G01*
X247908996Y-193840380D02*
G75*
G03X246945000Y-193796000I-503996J-455620D01*
G01*
X247836418Y-196785829D02*
G75*
G03X247875000Y-193796000I-1911418J1519829D01*
G01*
X246923466Y-193786024D02*
G75*
G03X246995000Y-196946000I1361534J-1549976D01*
G01*
X246936301Y-196888972D02*
G75*
G03X247865000Y-196746000I408699J432972D01*
G01*
X257265000Y-205486000D02*
G75*
G03X257265000Y-205486000I-6500000J0D01*
G01*
X256347015Y-208333500D02*
X255047015Y-208333500D01*
X255697015Y-208983500D02*
X255697015Y-207683500D01*
X255170000Y-156591000D02*
X255170000Y-158496000D01*
X255170000Y-158496000D02*
X178970000Y-158496000D01*
X178970000Y-158496000D02*
X178970000Y-155956000D01*
X178970000Y-155956000D02*
X254535000Y-155956000D01*
X254535000Y-155956000D02*
X255170000Y-156591000D01*
X213876900Y-172949000D02*
X216376900Y-172949000D01*
X216376900Y-172949000D02*
X216376900Y-166649000D01*
X216376900Y-166649000D02*
X213876900Y-166649000D01*
X213876900Y-166649000D02*
X213876900Y-172949000D01*
X215126900Y-173609000D02*
X215126900Y-172949000D01*
X215126900Y-165989000D02*
X215126900Y-166649000D01*
X209932600Y-165989000D02*
X209932600Y-166649000D01*
X209932600Y-173609000D02*
X209932600Y-172949000D01*
X208682600Y-166649000D02*
X208682600Y-172949000D01*
X211182600Y-166649000D02*
X208682600Y-166649000D01*
X211182600Y-172949000D02*
X211182600Y-166649000D01*
X208682600Y-172949000D02*
X211182600Y-172949000D01*
X203488300Y-172949000D02*
X205988300Y-172949000D01*
X205988300Y-172949000D02*
X205988300Y-166649000D01*
X205988300Y-166649000D02*
X203488300Y-166649000D01*
X203488300Y-166649000D02*
X203488300Y-172949000D01*
X204738300Y-173609000D02*
X204738300Y-172949000D01*
X204738300Y-165989000D02*
X204738300Y-166649000D01*
X199544000Y-165989000D02*
X199544000Y-166649000D01*
X199544000Y-173609000D02*
X199544000Y-172949000D01*
X198294000Y-166649000D02*
X198294000Y-172949000D01*
X200794000Y-166649000D02*
X198294000Y-166649000D01*
X200794000Y-172949000D02*
X200794000Y-166649000D01*
X198294000Y-172949000D02*
X200794000Y-172949000D01*
X229459800Y-172949000D02*
X231959800Y-172949000D01*
X231959800Y-172949000D02*
X231959800Y-166649000D01*
X231959800Y-166649000D02*
X229459800Y-166649000D01*
X229459800Y-166649000D02*
X229459800Y-172949000D01*
X230709800Y-173609000D02*
X230709800Y-172949000D01*
X230709800Y-165989000D02*
X230709800Y-166649000D01*
X224265500Y-172949000D02*
X226765500Y-172949000D01*
X226765500Y-172949000D02*
X226765500Y-166649000D01*
X226765500Y-166649000D02*
X224265500Y-166649000D01*
X224265500Y-166649000D02*
X224265500Y-172949000D01*
X225515500Y-173609000D02*
X225515500Y-172949000D01*
X225515500Y-165989000D02*
X225515500Y-166649000D01*
X220321200Y-165989000D02*
X220321200Y-166649000D01*
X220321200Y-173609000D02*
X220321200Y-172949000D01*
X219071200Y-166649000D02*
X219071200Y-172949000D01*
X221571200Y-166649000D02*
X219071200Y-166649000D01*
X221571200Y-172949000D02*
X221571200Y-166649000D01*
X219071200Y-172949000D02*
X221571200Y-172949000D01*
X252737000Y-166649000D02*
X250237000Y-166649000D01*
X250237000Y-166649000D02*
X250237000Y-172949000D01*
X250237000Y-172949000D02*
X252737000Y-172949000D01*
X252737000Y-172949000D02*
X252737000Y-166649000D01*
X251487000Y-165989000D02*
X251487000Y-166649000D01*
X251487000Y-173609000D02*
X251487000Y-172949000D01*
X246788000Y-173609000D02*
X246788000Y-172949000D01*
X246788000Y-165989000D02*
X246788000Y-166649000D01*
X248038000Y-172949000D02*
X248038000Y-166649000D01*
X245538000Y-172949000D02*
X248038000Y-172949000D01*
X245538000Y-166649000D02*
X245538000Y-172949000D01*
X248038000Y-166649000D02*
X245538000Y-166649000D01*
X237154100Y-166649000D02*
X234654100Y-166649000D01*
X234654100Y-166649000D02*
X234654100Y-172949000D01*
X234654100Y-172949000D02*
X237154100Y-172949000D01*
X237154100Y-172949000D02*
X237154100Y-166649000D01*
X235904100Y-165989000D02*
X235904100Y-166649000D01*
X235904100Y-173609000D02*
X235904100Y-172949000D01*
D11*
X154687680Y-188368738D02*
X154687680Y-188940166D01*
X154687680Y-188654452D02*
X153687680Y-188654452D01*
X153830538Y-188749690D01*
X153925776Y-188844928D01*
X153973395Y-188940166D01*
X153687680Y-187749690D02*
X153687680Y-187654452D01*
X153735300Y-187559214D01*
X153782919Y-187511595D01*
X153878157Y-187463976D01*
X154068633Y-187416357D01*
X154306728Y-187416357D01*
X154497204Y-187463976D01*
X154592442Y-187511595D01*
X154640061Y-187559214D01*
X154687680Y-187654452D01*
X154687680Y-187749690D01*
X154640061Y-187844928D01*
X154592442Y-187892547D01*
X154497204Y-187940166D01*
X154306728Y-187987785D01*
X154068633Y-187987785D01*
X153878157Y-187940166D01*
X153782919Y-187892547D01*
X153735300Y-187844928D01*
X153687680Y-187749690D01*
X154687680Y-186987785D02*
X153687680Y-186987785D01*
X154306728Y-186892547D02*
X154687680Y-186606833D01*
X154021014Y-186606833D02*
X154401966Y-186987785D01*
X156790980Y-188429057D02*
X156314790Y-188762390D01*
X156790980Y-189000485D02*
X155790980Y-189000485D01*
X155790980Y-188619533D01*
X155838600Y-188524295D01*
X155886219Y-188476676D01*
X155981457Y-188429057D01*
X156124314Y-188429057D01*
X156219552Y-188476676D01*
X156267171Y-188524295D01*
X156314790Y-188619533D01*
X156314790Y-189000485D01*
X156790980Y-187476676D02*
X156790980Y-188048104D01*
X156790980Y-187762390D02*
X155790980Y-187762390D01*
X155933838Y-187857628D01*
X156029076Y-187952866D01*
X156076695Y-188048104D01*
X156219552Y-186905247D02*
X156171933Y-187000485D01*
X156124314Y-187048104D01*
X156029076Y-187095723D01*
X155981457Y-187095723D01*
X155886219Y-187048104D01*
X155838600Y-187000485D01*
X155790980Y-186905247D01*
X155790980Y-186714771D01*
X155838600Y-186619533D01*
X155886219Y-186571914D01*
X155981457Y-186524295D01*
X156029076Y-186524295D01*
X156124314Y-186571914D01*
X156171933Y-186619533D01*
X156219552Y-186714771D01*
X156219552Y-186905247D01*
X156267171Y-187000485D01*
X156314790Y-187048104D01*
X156410028Y-187095723D01*
X156600504Y-187095723D01*
X156695742Y-187048104D01*
X156743361Y-187000485D01*
X156790980Y-186905247D01*
X156790980Y-186714771D01*
X156743361Y-186619533D01*
X156695742Y-186571914D01*
X156600504Y-186524295D01*
X156410028Y-186524295D01*
X156314790Y-186571914D01*
X156267171Y-186619533D01*
X156219552Y-186714771D01*
X152352461Y-205121780D02*
X151781033Y-205121780D01*
X152066747Y-205121780D02*
X152066747Y-204121780D01*
X151971509Y-204264638D01*
X151876271Y-204359876D01*
X151781033Y-204407495D01*
X152971509Y-204121780D02*
X153066747Y-204121780D01*
X153161985Y-204169400D01*
X153209604Y-204217019D01*
X153257223Y-204312257D01*
X153304842Y-204502733D01*
X153304842Y-204740828D01*
X153257223Y-204931304D01*
X153209604Y-205026542D01*
X153161985Y-205074161D01*
X153066747Y-205121780D01*
X152971509Y-205121780D01*
X152876271Y-205074161D01*
X152828652Y-205026542D01*
X152781033Y-204931304D01*
X152733414Y-204740828D01*
X152733414Y-204502733D01*
X152781033Y-204312257D01*
X152828652Y-204217019D01*
X152876271Y-204169400D01*
X152971509Y-204121780D01*
X153733414Y-205121780D02*
X153733414Y-204121780D01*
X153828652Y-204740828D02*
X154114366Y-205121780D01*
X154114366Y-204455114D02*
X153733414Y-204836066D01*
X152352042Y-207494980D02*
X152018709Y-207018790D01*
X151780614Y-207494980D02*
X151780614Y-206494980D01*
X152161566Y-206494980D01*
X152256804Y-206542600D01*
X152304423Y-206590219D01*
X152352042Y-206685457D01*
X152352042Y-206828314D01*
X152304423Y-206923552D01*
X152256804Y-206971171D01*
X152161566Y-207018790D01*
X151780614Y-207018790D01*
X153304423Y-207494980D02*
X152732995Y-207494980D01*
X153018709Y-207494980D02*
X153018709Y-206494980D01*
X152923471Y-206637838D01*
X152828233Y-206733076D01*
X152732995Y-206780695D01*
X153637757Y-206494980D02*
X154304423Y-206494980D01*
X153875852Y-207494980D01*
X164253680Y-188597338D02*
X164253680Y-189168766D01*
X164253680Y-188883052D02*
X163253680Y-188883052D01*
X163396538Y-188978290D01*
X163491776Y-189073528D01*
X163539395Y-189168766D01*
X163253680Y-187978290D02*
X163253680Y-187883052D01*
X163301300Y-187787814D01*
X163348919Y-187740195D01*
X163444157Y-187692576D01*
X163634633Y-187644957D01*
X163872728Y-187644957D01*
X164063204Y-187692576D01*
X164158442Y-187740195D01*
X164206061Y-187787814D01*
X164253680Y-187883052D01*
X164253680Y-187978290D01*
X164206061Y-188073528D01*
X164158442Y-188121147D01*
X164063204Y-188168766D01*
X163872728Y-188216385D01*
X163634633Y-188216385D01*
X163444157Y-188168766D01*
X163348919Y-188121147D01*
X163301300Y-188073528D01*
X163253680Y-187978290D01*
X164253680Y-187216385D02*
X163253680Y-187216385D01*
X163872728Y-187121147D02*
X164253680Y-186835433D01*
X163587014Y-186835433D02*
X163967966Y-187216385D01*
X159838980Y-189102157D02*
X159362790Y-189435490D01*
X159838980Y-189673585D02*
X158838980Y-189673585D01*
X158838980Y-189292633D01*
X158886600Y-189197395D01*
X158934219Y-189149776D01*
X159029457Y-189102157D01*
X159172314Y-189102157D01*
X159267552Y-189149776D01*
X159315171Y-189197395D01*
X159362790Y-189292633D01*
X159362790Y-189673585D01*
X159838980Y-188149776D02*
X159838980Y-188721204D01*
X159838980Y-188435490D02*
X158838980Y-188435490D01*
X158981838Y-188530728D01*
X159077076Y-188625966D01*
X159124695Y-188721204D01*
X158838980Y-187292633D02*
X158838980Y-187483109D01*
X158886600Y-187578347D01*
X158934219Y-187625966D01*
X159077076Y-187721204D01*
X159267552Y-187768823D01*
X159648504Y-187768823D01*
X159743742Y-187721204D01*
X159791361Y-187673585D01*
X159838980Y-187578347D01*
X159838980Y-187387871D01*
X159791361Y-187292633D01*
X159743742Y-187245014D01*
X159648504Y-187197395D01*
X159410409Y-187197395D01*
X159315171Y-187245014D01*
X159267552Y-187292633D01*
X159219933Y-187387871D01*
X159219933Y-187578347D01*
X159267552Y-187673585D01*
X159315171Y-187721204D01*
X159410409Y-187768823D01*
X152009561Y-193628280D02*
X151438133Y-193628280D01*
X151723847Y-193628280D02*
X151723847Y-192628280D01*
X151628609Y-192771138D01*
X151533371Y-192866376D01*
X151438133Y-192913995D01*
X152628609Y-192628280D02*
X152723847Y-192628280D01*
X152819085Y-192675900D01*
X152866704Y-192723519D01*
X152914323Y-192818757D01*
X152961942Y-193009233D01*
X152961942Y-193247328D01*
X152914323Y-193437804D01*
X152866704Y-193533042D01*
X152819085Y-193580661D01*
X152723847Y-193628280D01*
X152628609Y-193628280D01*
X152533371Y-193580661D01*
X152485752Y-193533042D01*
X152438133Y-193437804D01*
X152390514Y-193247328D01*
X152390514Y-193009233D01*
X152438133Y-192818757D01*
X152485752Y-192723519D01*
X152533371Y-192675900D01*
X152628609Y-192628280D01*
X153390514Y-193628280D02*
X153390514Y-192628280D01*
X153485752Y-193247328D02*
X153771466Y-193628280D01*
X153771466Y-192961614D02*
X153390514Y-193342566D01*
X152008742Y-196052280D02*
X151675409Y-195576090D01*
X151437314Y-196052280D02*
X151437314Y-195052280D01*
X151818266Y-195052280D01*
X151913504Y-195099900D01*
X151961123Y-195147519D01*
X152008742Y-195242757D01*
X152008742Y-195385614D01*
X151961123Y-195480852D01*
X151913504Y-195528471D01*
X151818266Y-195576090D01*
X151437314Y-195576090D01*
X152961123Y-196052280D02*
X152389695Y-196052280D01*
X152675409Y-196052280D02*
X152675409Y-195052280D01*
X152580171Y-195195138D01*
X152484933Y-195290376D01*
X152389695Y-195337995D01*
X153818266Y-195385614D02*
X153818266Y-196052280D01*
X153580171Y-195004661D02*
X153342076Y-195718947D01*
X153961123Y-195718947D01*
X148892519Y-188354185D02*
X148844900Y-188306566D01*
X148797280Y-188211328D01*
X148797280Y-187973233D01*
X148844900Y-187877995D01*
X148892519Y-187830376D01*
X148987757Y-187782757D01*
X149082995Y-187782757D01*
X149225852Y-187830376D01*
X149797280Y-188401804D01*
X149797280Y-187782757D01*
X149797280Y-187354185D02*
X148797280Y-187354185D01*
X149797280Y-186782757D01*
X148797280Y-186782757D01*
X148797280Y-186401804D02*
X148797280Y-185735138D01*
X149797280Y-186163709D01*
X148797280Y-185163709D02*
X148797280Y-185068471D01*
X148844900Y-184973233D01*
X148892519Y-184925614D01*
X148987757Y-184877995D01*
X149178233Y-184830376D01*
X149416328Y-184830376D01*
X149606804Y-184877995D01*
X149702042Y-184925614D01*
X149749661Y-184973233D01*
X149797280Y-185068471D01*
X149797280Y-185163709D01*
X149749661Y-185258947D01*
X149702042Y-185306566D01*
X149606804Y-185354185D01*
X149416328Y-185401804D01*
X149178233Y-185401804D01*
X148987757Y-185354185D01*
X148892519Y-185306566D01*
X148844900Y-185258947D01*
X148797280Y-185163709D01*
X148797280Y-184211328D02*
X148797280Y-184116090D01*
X148844900Y-184020852D01*
X148892519Y-183973233D01*
X148987757Y-183925614D01*
X149178233Y-183877995D01*
X149416328Y-183877995D01*
X149606804Y-183925614D01*
X149702042Y-183973233D01*
X149749661Y-184020852D01*
X149797280Y-184116090D01*
X149797280Y-184211328D01*
X149749661Y-184306566D01*
X149702042Y-184354185D01*
X149606804Y-184401804D01*
X149416328Y-184449423D01*
X149178233Y-184449423D01*
X148987757Y-184401804D01*
X148892519Y-184354185D01*
X148844900Y-184306566D01*
X148797280Y-184211328D01*
X148797280Y-183258947D02*
X148797280Y-183163709D01*
X148844900Y-183068471D01*
X148892519Y-183020852D01*
X148987757Y-182973233D01*
X149178233Y-182925614D01*
X149416328Y-182925614D01*
X149606804Y-182973233D01*
X149702042Y-183020852D01*
X149749661Y-183068471D01*
X149797280Y-183163709D01*
X149797280Y-183258947D01*
X149749661Y-183354185D01*
X149702042Y-183401804D01*
X149606804Y-183449423D01*
X149416328Y-183497042D01*
X149178233Y-183497042D01*
X148987757Y-183449423D01*
X148892519Y-183401804D01*
X148844900Y-183354185D01*
X148797280Y-183258947D01*
X156242519Y-185735138D02*
X156194900Y-185830376D01*
X156099661Y-185925614D01*
X155956804Y-186068471D01*
X155909185Y-186163709D01*
X155909185Y-186258947D01*
X156147280Y-186211328D02*
X156099661Y-186306566D01*
X156004423Y-186401804D01*
X155813947Y-186449423D01*
X155480614Y-186449423D01*
X155290138Y-186401804D01*
X155194900Y-186306566D01*
X155147280Y-186211328D01*
X155147280Y-186020852D01*
X155194900Y-185925614D01*
X155290138Y-185830376D01*
X155480614Y-185782757D01*
X155813947Y-185782757D01*
X156004423Y-185830376D01*
X156099661Y-185925614D01*
X156147280Y-186020852D01*
X156147280Y-186211328D01*
X155242519Y-185401804D02*
X155194900Y-185354185D01*
X155147280Y-185258947D01*
X155147280Y-185020852D01*
X155194900Y-184925614D01*
X155242519Y-184877995D01*
X155337757Y-184830376D01*
X155432995Y-184830376D01*
X155575852Y-184877995D01*
X156147280Y-185449423D01*
X156147280Y-184830376D01*
X147203419Y-204368885D02*
X147155800Y-204321266D01*
X147108180Y-204226028D01*
X147108180Y-203987933D01*
X147155800Y-203892695D01*
X147203419Y-203845076D01*
X147298657Y-203797457D01*
X147393895Y-203797457D01*
X147536752Y-203845076D01*
X148108180Y-204416504D01*
X148108180Y-203797457D01*
X148108180Y-203368885D02*
X147108180Y-203368885D01*
X148108180Y-202797457D01*
X147108180Y-202797457D01*
X147108180Y-202416504D02*
X147108180Y-201749838D01*
X148108180Y-202178409D01*
X147108180Y-201178409D02*
X147108180Y-201083171D01*
X147155800Y-200987933D01*
X147203419Y-200940314D01*
X147298657Y-200892695D01*
X147489133Y-200845076D01*
X147727228Y-200845076D01*
X147917704Y-200892695D01*
X148012942Y-200940314D01*
X148060561Y-200987933D01*
X148108180Y-201083171D01*
X148108180Y-201178409D01*
X148060561Y-201273647D01*
X148012942Y-201321266D01*
X147917704Y-201368885D01*
X147727228Y-201416504D01*
X147489133Y-201416504D01*
X147298657Y-201368885D01*
X147203419Y-201321266D01*
X147155800Y-201273647D01*
X147108180Y-201178409D01*
X147108180Y-200226028D02*
X147108180Y-200130790D01*
X147155800Y-200035552D01*
X147203419Y-199987933D01*
X147298657Y-199940314D01*
X147489133Y-199892695D01*
X147727228Y-199892695D01*
X147917704Y-199940314D01*
X148012942Y-199987933D01*
X148060561Y-200035552D01*
X148108180Y-200130790D01*
X148108180Y-200226028D01*
X148060561Y-200321266D01*
X148012942Y-200368885D01*
X147917704Y-200416504D01*
X147727228Y-200464123D01*
X147489133Y-200464123D01*
X147298657Y-200416504D01*
X147203419Y-200368885D01*
X147155800Y-200321266D01*
X147108180Y-200226028D01*
X147108180Y-199273647D02*
X147108180Y-199178409D01*
X147155800Y-199083171D01*
X147203419Y-199035552D01*
X147298657Y-198987933D01*
X147489133Y-198940314D01*
X147727228Y-198940314D01*
X147917704Y-198987933D01*
X148012942Y-199035552D01*
X148060561Y-199083171D01*
X148108180Y-199178409D01*
X148108180Y-199273647D01*
X148060561Y-199368885D01*
X148012942Y-199416504D01*
X147917704Y-199464123D01*
X147727228Y-199511742D01*
X147489133Y-199511742D01*
X147298657Y-199464123D01*
X147203419Y-199416504D01*
X147155800Y-199368885D01*
X147108180Y-199273647D01*
X154553419Y-201749838D02*
X154505800Y-201845076D01*
X154410561Y-201940314D01*
X154267704Y-202083171D01*
X154220085Y-202178409D01*
X154220085Y-202273647D01*
X154458180Y-202226028D02*
X154410561Y-202321266D01*
X154315323Y-202416504D01*
X154124847Y-202464123D01*
X153791514Y-202464123D01*
X153601038Y-202416504D01*
X153505800Y-202321266D01*
X153458180Y-202226028D01*
X153458180Y-202035552D01*
X153505800Y-201940314D01*
X153601038Y-201845076D01*
X153791514Y-201797457D01*
X154124847Y-201797457D01*
X154315323Y-201845076D01*
X154410561Y-201940314D01*
X154458180Y-202035552D01*
X154458180Y-202226028D01*
X154458180Y-200845076D02*
X154458180Y-201416504D01*
X154458180Y-201130790D02*
X153458180Y-201130790D01*
X153601038Y-201226028D01*
X153696276Y-201321266D01*
X153743895Y-201416504D01*
X146284780Y-197892966D02*
X145284780Y-197892966D01*
X145760971Y-197892966D02*
X145760971Y-197321538D01*
X146284780Y-197321538D02*
X145284780Y-197321538D01*
X146237161Y-196464395D02*
X146284780Y-196559633D01*
X146284780Y-196750109D01*
X146237161Y-196845347D01*
X146141923Y-196892966D01*
X145760971Y-196892966D01*
X145665733Y-196845347D01*
X145618114Y-196750109D01*
X145618114Y-196559633D01*
X145665733Y-196464395D01*
X145760971Y-196416776D01*
X145856209Y-196416776D01*
X145951447Y-196892966D01*
X146284780Y-195559633D02*
X145760971Y-195559633D01*
X145665733Y-195607252D01*
X145618114Y-195702490D01*
X145618114Y-195892966D01*
X145665733Y-195988204D01*
X146237161Y-195559633D02*
X146284780Y-195654871D01*
X146284780Y-195892966D01*
X146237161Y-195988204D01*
X146141923Y-196035823D01*
X146046685Y-196035823D01*
X145951447Y-195988204D01*
X145903828Y-195892966D01*
X145903828Y-195654871D01*
X145856209Y-195559633D01*
X146284780Y-194654871D02*
X145284780Y-194654871D01*
X146237161Y-194654871D02*
X146284780Y-194750109D01*
X146284780Y-194940585D01*
X146237161Y-195035823D01*
X146189542Y-195083442D01*
X146094304Y-195131061D01*
X145808590Y-195131061D01*
X145713352Y-195083442D01*
X145665733Y-195035823D01*
X145618114Y-194940585D01*
X145618114Y-194750109D01*
X145665733Y-194654871D01*
X146237161Y-193797728D02*
X146284780Y-193892966D01*
X146284780Y-194083442D01*
X146237161Y-194178680D01*
X146141923Y-194226300D01*
X145760971Y-194226300D01*
X145665733Y-194178680D01*
X145618114Y-194083442D01*
X145618114Y-193892966D01*
X145665733Y-193797728D01*
X145760971Y-193750109D01*
X145856209Y-193750109D01*
X145951447Y-194226300D01*
X146284780Y-193321538D02*
X145618114Y-193321538D01*
X145808590Y-193321538D02*
X145713352Y-193273919D01*
X145665733Y-193226300D01*
X145618114Y-193131061D01*
X145618114Y-193035823D01*
X146284780Y-191416776D02*
X146284780Y-191988204D01*
X146284780Y-191702490D02*
X145284780Y-191702490D01*
X145427638Y-191797728D01*
X145522876Y-191892966D01*
X145570495Y-191988204D01*
X145284780Y-191083442D02*
X146284780Y-190416776D01*
X145284780Y-190416776D02*
X146284780Y-191083442D01*
X145618114Y-189607252D02*
X146284780Y-189607252D01*
X145237161Y-189845347D02*
X145951447Y-190083442D01*
X145951447Y-189464395D01*
X139419066Y-194793680D02*
X139419066Y-195507966D01*
X139371447Y-195650823D01*
X139276209Y-195746061D01*
X139133352Y-195793680D01*
X139038114Y-195793680D01*
X140371447Y-194793680D02*
X139895257Y-194793680D01*
X139847638Y-195269871D01*
X139895257Y-195222252D01*
X139990495Y-195174633D01*
X140228590Y-195174633D01*
X140323828Y-195222252D01*
X140371447Y-195269871D01*
X140419066Y-195365109D01*
X140419066Y-195603204D01*
X140371447Y-195698442D01*
X140323828Y-195746061D01*
X140228590Y-195793680D01*
X139990495Y-195793680D01*
X139895257Y-195746061D01*
X139847638Y-195698442D01*
X181057380Y-184951666D02*
X180057380Y-184951666D01*
X180533571Y-184951666D02*
X180533571Y-184380238D01*
X181057380Y-184380238D02*
X180057380Y-184380238D01*
X181009761Y-183523095D02*
X181057380Y-183618333D01*
X181057380Y-183808809D01*
X181009761Y-183904047D01*
X180914523Y-183951666D01*
X180533571Y-183951666D01*
X180438333Y-183904047D01*
X180390714Y-183808809D01*
X180390714Y-183618333D01*
X180438333Y-183523095D01*
X180533571Y-183475476D01*
X180628809Y-183475476D01*
X180724047Y-183951666D01*
X181057380Y-182618333D02*
X180533571Y-182618333D01*
X180438333Y-182665952D01*
X180390714Y-182761190D01*
X180390714Y-182951666D01*
X180438333Y-183046904D01*
X181009761Y-182618333D02*
X181057380Y-182713571D01*
X181057380Y-182951666D01*
X181009761Y-183046904D01*
X180914523Y-183094523D01*
X180819285Y-183094523D01*
X180724047Y-183046904D01*
X180676428Y-182951666D01*
X180676428Y-182713571D01*
X180628809Y-182618333D01*
X181057380Y-181713571D02*
X180057380Y-181713571D01*
X181009761Y-181713571D02*
X181057380Y-181808809D01*
X181057380Y-181999285D01*
X181009761Y-182094523D01*
X180962142Y-182142142D01*
X180866904Y-182189761D01*
X180581190Y-182189761D01*
X180485952Y-182142142D01*
X180438333Y-182094523D01*
X180390714Y-181999285D01*
X180390714Y-181808809D01*
X180438333Y-181713571D01*
X181009761Y-180856428D02*
X181057380Y-180951666D01*
X181057380Y-181142142D01*
X181009761Y-181237380D01*
X180914523Y-181285000D01*
X180533571Y-181285000D01*
X180438333Y-181237380D01*
X180390714Y-181142142D01*
X180390714Y-180951666D01*
X180438333Y-180856428D01*
X180533571Y-180808809D01*
X180628809Y-180808809D01*
X180724047Y-181285000D01*
X181057380Y-180380238D02*
X180390714Y-180380238D01*
X180581190Y-180380238D02*
X180485952Y-180332619D01*
X180438333Y-180285000D01*
X180390714Y-180189761D01*
X180390714Y-180094523D01*
X181057380Y-178475476D02*
X181057380Y-179046904D01*
X181057380Y-178761190D02*
X180057380Y-178761190D01*
X180200238Y-178856428D01*
X180295476Y-178951666D01*
X180343095Y-179046904D01*
X180057380Y-178142142D02*
X181057380Y-177475476D01*
X180057380Y-177475476D02*
X181057380Y-178142142D01*
X180057380Y-177189761D02*
X180057380Y-176570714D01*
X180438333Y-176904047D01*
X180438333Y-176761190D01*
X180485952Y-176665952D01*
X180533571Y-176618333D01*
X180628809Y-176570714D01*
X180866904Y-176570714D01*
X180962142Y-176618333D01*
X181009761Y-176665952D01*
X181057380Y-176761190D01*
X181057380Y-177046904D01*
X181009761Y-177142142D01*
X180962142Y-177189761D01*
X175461666Y-181852380D02*
X175461666Y-182566666D01*
X175414047Y-182709523D01*
X175318809Y-182804761D01*
X175175952Y-182852380D01*
X175080714Y-182852380D01*
X176366428Y-182185714D02*
X176366428Y-182852380D01*
X176128333Y-181804761D02*
X175890238Y-182519047D01*
X176509285Y-182519047D01*
X169106680Y-210491366D02*
X168106680Y-210491366D01*
X168582871Y-210491366D02*
X168582871Y-209919938D01*
X169106680Y-209919938D02*
X168106680Y-209919938D01*
X169059061Y-209062795D02*
X169106680Y-209158033D01*
X169106680Y-209348509D01*
X169059061Y-209443747D01*
X168963823Y-209491366D01*
X168582871Y-209491366D01*
X168487633Y-209443747D01*
X168440014Y-209348509D01*
X168440014Y-209158033D01*
X168487633Y-209062795D01*
X168582871Y-209015176D01*
X168678109Y-209015176D01*
X168773347Y-209491366D01*
X169106680Y-208158033D02*
X168582871Y-208158033D01*
X168487633Y-208205652D01*
X168440014Y-208300890D01*
X168440014Y-208491366D01*
X168487633Y-208586604D01*
X169059061Y-208158033D02*
X169106680Y-208253271D01*
X169106680Y-208491366D01*
X169059061Y-208586604D01*
X168963823Y-208634223D01*
X168868585Y-208634223D01*
X168773347Y-208586604D01*
X168725728Y-208491366D01*
X168725728Y-208253271D01*
X168678109Y-208158033D01*
X169106680Y-207253271D02*
X168106680Y-207253271D01*
X169059061Y-207253271D02*
X169106680Y-207348509D01*
X169106680Y-207538985D01*
X169059061Y-207634223D01*
X169011442Y-207681842D01*
X168916204Y-207729461D01*
X168630490Y-207729461D01*
X168535252Y-207681842D01*
X168487633Y-207634223D01*
X168440014Y-207538985D01*
X168440014Y-207348509D01*
X168487633Y-207253271D01*
X169059061Y-206396128D02*
X169106680Y-206491366D01*
X169106680Y-206681842D01*
X169059061Y-206777080D01*
X168963823Y-206824700D01*
X168582871Y-206824700D01*
X168487633Y-206777080D01*
X168440014Y-206681842D01*
X168440014Y-206491366D01*
X168487633Y-206396128D01*
X168582871Y-206348509D01*
X168678109Y-206348509D01*
X168773347Y-206824700D01*
X169106680Y-205919938D02*
X168440014Y-205919938D01*
X168630490Y-205919938D02*
X168535252Y-205872319D01*
X168487633Y-205824700D01*
X168440014Y-205729461D01*
X168440014Y-205634223D01*
X169106680Y-204015176D02*
X169106680Y-204586604D01*
X169106680Y-204300890D02*
X168106680Y-204300890D01*
X168249538Y-204396128D01*
X168344776Y-204491366D01*
X168392395Y-204586604D01*
X168106680Y-203681842D02*
X169106680Y-203015176D01*
X168106680Y-203015176D02*
X169106680Y-203681842D01*
X168106680Y-202729461D02*
X168106680Y-202110414D01*
X168487633Y-202443747D01*
X168487633Y-202300890D01*
X168535252Y-202205652D01*
X168582871Y-202158033D01*
X168678109Y-202110414D01*
X168916204Y-202110414D01*
X169011442Y-202158033D01*
X169059061Y-202205652D01*
X169106680Y-202300890D01*
X169106680Y-202586604D01*
X169059061Y-202681842D01*
X169011442Y-202729461D01*
X163510966Y-207392080D02*
X163510966Y-208106366D01*
X163463347Y-208249223D01*
X163368109Y-208344461D01*
X163225252Y-208392080D01*
X163130014Y-208392080D01*
X163891919Y-207392080D02*
X164510966Y-207392080D01*
X164177633Y-207773033D01*
X164320490Y-207773033D01*
X164415728Y-207820652D01*
X164463347Y-207868271D01*
X164510966Y-207963509D01*
X164510966Y-208201604D01*
X164463347Y-208296842D01*
X164415728Y-208344461D01*
X164320490Y-208392080D01*
X164034776Y-208392080D01*
X163939538Y-208344461D01*
X163891919Y-208296842D01*
X154687333Y-92232380D02*
X154687333Y-91232380D01*
X154687333Y-91708571D02*
X155258761Y-91708571D01*
X155258761Y-92232380D02*
X155258761Y-91232380D01*
X156115904Y-92184761D02*
X156020666Y-92232380D01*
X155830190Y-92232380D01*
X155734952Y-92184761D01*
X155687333Y-92089523D01*
X155687333Y-91708571D01*
X155734952Y-91613333D01*
X155830190Y-91565714D01*
X156020666Y-91565714D01*
X156115904Y-91613333D01*
X156163523Y-91708571D01*
X156163523Y-91803809D01*
X155687333Y-91899047D01*
X157020666Y-92232380D02*
X157020666Y-91708571D01*
X156973047Y-91613333D01*
X156877809Y-91565714D01*
X156687333Y-91565714D01*
X156592095Y-91613333D01*
X157020666Y-92184761D02*
X156925428Y-92232380D01*
X156687333Y-92232380D01*
X156592095Y-92184761D01*
X156544476Y-92089523D01*
X156544476Y-91994285D01*
X156592095Y-91899047D01*
X156687333Y-91851428D01*
X156925428Y-91851428D01*
X157020666Y-91803809D01*
X157925428Y-92232380D02*
X157925428Y-91232380D01*
X157925428Y-92184761D02*
X157830190Y-92232380D01*
X157639714Y-92232380D01*
X157544476Y-92184761D01*
X157496857Y-92137142D01*
X157449238Y-92041904D01*
X157449238Y-91756190D01*
X157496857Y-91660952D01*
X157544476Y-91613333D01*
X157639714Y-91565714D01*
X157830190Y-91565714D01*
X157925428Y-91613333D01*
X158782571Y-92184761D02*
X158687333Y-92232380D01*
X158496857Y-92232380D01*
X158401619Y-92184761D01*
X158354000Y-92089523D01*
X158354000Y-91708571D01*
X158401619Y-91613333D01*
X158496857Y-91565714D01*
X158687333Y-91565714D01*
X158782571Y-91613333D01*
X158830190Y-91708571D01*
X158830190Y-91803809D01*
X158354000Y-91899047D01*
X159258761Y-92232380D02*
X159258761Y-91565714D01*
X159258761Y-91756190D02*
X159306380Y-91660952D01*
X159354000Y-91613333D01*
X159449238Y-91565714D01*
X159544476Y-91565714D01*
X161163523Y-92232380D02*
X160592095Y-92232380D01*
X160877809Y-92232380D02*
X160877809Y-91232380D01*
X160782571Y-91375238D01*
X160687333Y-91470476D01*
X160592095Y-91518095D01*
X161496857Y-91232380D02*
X162163523Y-92232380D01*
X162163523Y-91232380D02*
X161496857Y-92232380D01*
X162973047Y-91565714D02*
X162973047Y-92232380D01*
X162734952Y-91184761D02*
X162496857Y-91899047D01*
X163115904Y-91899047D01*
X158306380Y-98253333D02*
X159020666Y-98253333D01*
X159163523Y-98300952D01*
X159258761Y-98396190D01*
X159306380Y-98539047D01*
X159306380Y-98634285D01*
X158401619Y-97824761D02*
X158354000Y-97777142D01*
X158306380Y-97681904D01*
X158306380Y-97443809D01*
X158354000Y-97348571D01*
X158401619Y-97300952D01*
X158496857Y-97253333D01*
X158592095Y-97253333D01*
X158734952Y-97300952D01*
X159306380Y-97872380D01*
X159306380Y-97253333D01*
X188241428Y-99885380D02*
X188241428Y-99218714D01*
X188241428Y-98885380D02*
X188193809Y-98933000D01*
X188241428Y-98980619D01*
X188289047Y-98933000D01*
X188241428Y-98885380D01*
X188241428Y-98980619D01*
X188670000Y-98980619D02*
X188717619Y-98933000D01*
X188812857Y-98885380D01*
X189050952Y-98885380D01*
X189146190Y-98933000D01*
X189193809Y-98980619D01*
X189241428Y-99075857D01*
X189241428Y-99171095D01*
X189193809Y-99313952D01*
X188622380Y-99885380D01*
X189241428Y-99885380D01*
X190098571Y-99837761D02*
X190003333Y-99885380D01*
X189812857Y-99885380D01*
X189717619Y-99837761D01*
X189670000Y-99790142D01*
X189622380Y-99694904D01*
X189622380Y-99409190D01*
X189670000Y-99313952D01*
X189717619Y-99266333D01*
X189812857Y-99218714D01*
X190003333Y-99218714D01*
X190098571Y-99266333D01*
X190527142Y-99504428D02*
X191289047Y-99504428D01*
X192289047Y-99885380D02*
X191717619Y-99885380D01*
X192003333Y-99885380D02*
X192003333Y-98885380D01*
X191908095Y-99028238D01*
X191812857Y-99123476D01*
X191717619Y-99171095D01*
X193146190Y-98885380D02*
X192955714Y-98885380D01*
X192860476Y-98933000D01*
X192812857Y-98980619D01*
X192717619Y-99123476D01*
X192670000Y-99313952D01*
X192670000Y-99694904D01*
X192717619Y-99790142D01*
X192765238Y-99837761D01*
X192860476Y-99885380D01*
X193050952Y-99885380D01*
X193146190Y-99837761D01*
X193193809Y-99790142D01*
X193241428Y-99694904D01*
X193241428Y-99456809D01*
X193193809Y-99361571D01*
X193146190Y-99313952D01*
X193050952Y-99266333D01*
X192860476Y-99266333D01*
X192765238Y-99313952D01*
X192717619Y-99361571D01*
X192670000Y-99456809D01*
X193860476Y-98885380D02*
X193955714Y-98885380D01*
X194050952Y-98933000D01*
X194098571Y-98980619D01*
X194146190Y-99075857D01*
X194193809Y-99266333D01*
X194193809Y-99504428D01*
X194146190Y-99694904D01*
X194098571Y-99790142D01*
X194050952Y-99837761D01*
X193955714Y-99885380D01*
X193860476Y-99885380D01*
X193765238Y-99837761D01*
X193717619Y-99790142D01*
X193670000Y-99694904D01*
X193622380Y-99504428D01*
X193622380Y-99266333D01*
X193670000Y-99075857D01*
X193717619Y-98980619D01*
X193765238Y-98933000D01*
X193860476Y-98885380D01*
X194574761Y-98980619D02*
X194622380Y-98933000D01*
X194717619Y-98885380D01*
X194955714Y-98885380D01*
X195050952Y-98933000D01*
X195098571Y-98980619D01*
X195146190Y-99075857D01*
X195146190Y-99171095D01*
X195098571Y-99313952D01*
X194527142Y-99885380D01*
X195146190Y-99885380D01*
X234226380Y-208347761D02*
X234226380Y-208919190D01*
X234226380Y-208633476D02*
X233226380Y-208633476D01*
X233369238Y-208728714D01*
X233464476Y-208823952D01*
X233512095Y-208919190D01*
X233226380Y-207728714D02*
X233226380Y-207633476D01*
X233274000Y-207538238D01*
X233321619Y-207490619D01*
X233416857Y-207443000D01*
X233607333Y-207395380D01*
X233845428Y-207395380D01*
X234035904Y-207443000D01*
X234131142Y-207490619D01*
X234178761Y-207538238D01*
X234226380Y-207633476D01*
X234226380Y-207728714D01*
X234178761Y-207823952D01*
X234131142Y-207871571D01*
X234035904Y-207919190D01*
X233845428Y-207966809D01*
X233607333Y-207966809D01*
X233416857Y-207919190D01*
X233321619Y-207871571D01*
X233274000Y-207823952D01*
X233226380Y-207728714D01*
X233226380Y-206776333D02*
X233226380Y-206681095D01*
X233274000Y-206585857D01*
X233321619Y-206538238D01*
X233416857Y-206490619D01*
X233607333Y-206443000D01*
X233845428Y-206443000D01*
X234035904Y-206490619D01*
X234131142Y-206538238D01*
X234178761Y-206585857D01*
X234226380Y-206681095D01*
X234226380Y-206776333D01*
X234178761Y-206871571D01*
X234131142Y-206919190D01*
X234035904Y-206966809D01*
X233845428Y-207014428D01*
X233607333Y-207014428D01*
X233416857Y-206966809D01*
X233321619Y-206919190D01*
X233274000Y-206871571D01*
X233226380Y-206776333D01*
X233559714Y-206014428D02*
X234226380Y-206014428D01*
X233654952Y-206014428D02*
X233607333Y-205966809D01*
X233559714Y-205871571D01*
X233559714Y-205728714D01*
X233607333Y-205633476D01*
X233702571Y-205585857D01*
X234226380Y-205585857D01*
X233559714Y-205252523D02*
X233559714Y-204871571D01*
X234226380Y-205109666D02*
X233369238Y-205109666D01*
X233274000Y-205062047D01*
X233226380Y-204966809D01*
X233226380Y-204871571D01*
X230381142Y-207049666D02*
X230428761Y-207097285D01*
X230476380Y-207240142D01*
X230476380Y-207335380D01*
X230428761Y-207478238D01*
X230333523Y-207573476D01*
X230238285Y-207621095D01*
X230047809Y-207668714D01*
X229904952Y-207668714D01*
X229714476Y-207621095D01*
X229619238Y-207573476D01*
X229524000Y-207478238D01*
X229476380Y-207335380D01*
X229476380Y-207240142D01*
X229524000Y-207097285D01*
X229571619Y-207049666D01*
X229571619Y-206668714D02*
X229524000Y-206621095D01*
X229476380Y-206525857D01*
X229476380Y-206287761D01*
X229524000Y-206192523D01*
X229571619Y-206144904D01*
X229666857Y-206097285D01*
X229762095Y-206097285D01*
X229904952Y-206144904D01*
X230476380Y-206716333D01*
X230476380Y-206097285D01*
X237715523Y-211086619D02*
X237763142Y-211039000D01*
X237858380Y-210991380D01*
X238096476Y-210991380D01*
X238191714Y-211039000D01*
X238239333Y-211086619D01*
X238286952Y-211181857D01*
X238286952Y-211277095D01*
X238239333Y-211419952D01*
X237667904Y-211991380D01*
X238286952Y-211991380D01*
X238715523Y-211991380D02*
X238715523Y-210991380D01*
X238810761Y-211610428D02*
X239096476Y-211991380D01*
X239096476Y-211324714D02*
X238715523Y-211705666D01*
X237417142Y-209640380D02*
X237083809Y-209164190D01*
X236845714Y-209640380D02*
X236845714Y-208640380D01*
X237226666Y-208640380D01*
X237321904Y-208688000D01*
X237369523Y-208735619D01*
X237417142Y-208830857D01*
X237417142Y-208973714D01*
X237369523Y-209068952D01*
X237321904Y-209116571D01*
X237226666Y-209164190D01*
X236845714Y-209164190D01*
X238369523Y-209640380D02*
X237798095Y-209640380D01*
X238083809Y-209640380D02*
X238083809Y-208640380D01*
X237988571Y-208783238D01*
X237893333Y-208878476D01*
X237798095Y-208926095D01*
X238702857Y-208640380D02*
X239321904Y-208640380D01*
X238988571Y-209021333D01*
X239131428Y-209021333D01*
X239226666Y-209068952D01*
X239274285Y-209116571D01*
X239321904Y-209211809D01*
X239321904Y-209449904D01*
X239274285Y-209545142D01*
X239226666Y-209592761D01*
X239131428Y-209640380D01*
X238845714Y-209640380D01*
X238750476Y-209592761D01*
X238702857Y-209545142D01*
X237556761Y-202425380D02*
X236985333Y-202425380D01*
X237271047Y-202425380D02*
X237271047Y-201425380D01*
X237175809Y-201568238D01*
X237080571Y-201663476D01*
X236985333Y-201711095D01*
X238175809Y-201425380D02*
X238271047Y-201425380D01*
X238366285Y-201473000D01*
X238413904Y-201520619D01*
X238461523Y-201615857D01*
X238509142Y-201806333D01*
X238509142Y-202044428D01*
X238461523Y-202234904D01*
X238413904Y-202330142D01*
X238366285Y-202377761D01*
X238271047Y-202425380D01*
X238175809Y-202425380D01*
X238080571Y-202377761D01*
X238032952Y-202330142D01*
X237985333Y-202234904D01*
X237937714Y-202044428D01*
X237937714Y-201806333D01*
X237985333Y-201615857D01*
X238032952Y-201520619D01*
X238080571Y-201473000D01*
X238175809Y-201425380D01*
X238937714Y-202425380D02*
X238937714Y-201425380D01*
X239032952Y-202044428D02*
X239318666Y-202425380D01*
X239318666Y-201758714D02*
X238937714Y-202139666D01*
X237985333Y-204795380D02*
X237652000Y-204319190D01*
X237413904Y-204795380D02*
X237413904Y-203795380D01*
X237794857Y-203795380D01*
X237890095Y-203843000D01*
X237937714Y-203890619D01*
X237985333Y-203985857D01*
X237985333Y-204128714D01*
X237937714Y-204223952D01*
X237890095Y-204271571D01*
X237794857Y-204319190D01*
X237413904Y-204319190D01*
X238556761Y-204223952D02*
X238461523Y-204176333D01*
X238413904Y-204128714D01*
X238366285Y-204033476D01*
X238366285Y-203985857D01*
X238413904Y-203890619D01*
X238461523Y-203843000D01*
X238556761Y-203795380D01*
X238747238Y-203795380D01*
X238842476Y-203843000D01*
X238890095Y-203890619D01*
X238937714Y-203985857D01*
X238937714Y-204033476D01*
X238890095Y-204128714D01*
X238842476Y-204176333D01*
X238747238Y-204223952D01*
X238556761Y-204223952D01*
X238461523Y-204271571D01*
X238413904Y-204319190D01*
X238366285Y-204414428D01*
X238366285Y-204604904D01*
X238413904Y-204700142D01*
X238461523Y-204747761D01*
X238556761Y-204795380D01*
X238747238Y-204795380D01*
X238842476Y-204747761D01*
X238890095Y-204700142D01*
X238937714Y-204604904D01*
X238937714Y-204414428D01*
X238890095Y-204319190D01*
X238842476Y-204271571D01*
X238747238Y-204223952D01*
X214141904Y-193587666D02*
X214618095Y-193587666D01*
X214046666Y-193873380D02*
X214380000Y-192873380D01*
X214713333Y-193873380D01*
X215046666Y-193873380D02*
X215046666Y-193206714D01*
X215046666Y-193397190D02*
X215094285Y-193301952D01*
X215141904Y-193254333D01*
X215237142Y-193206714D01*
X215332380Y-193206714D01*
X216094285Y-193873380D02*
X216094285Y-192873380D01*
X216094285Y-193825761D02*
X215999047Y-193873380D01*
X215808571Y-193873380D01*
X215713333Y-193825761D01*
X215665714Y-193778142D01*
X215618095Y-193682904D01*
X215618095Y-193397190D01*
X215665714Y-193301952D01*
X215713333Y-193254333D01*
X215808571Y-193206714D01*
X215999047Y-193206714D01*
X216094285Y-193254333D01*
X216999047Y-193206714D02*
X216999047Y-193873380D01*
X216570476Y-193206714D02*
X216570476Y-193730523D01*
X216618095Y-193825761D01*
X216713333Y-193873380D01*
X216856190Y-193873380D01*
X216951428Y-193825761D01*
X216999047Y-193778142D01*
X217475238Y-193873380D02*
X217475238Y-193206714D01*
X217475238Y-192873380D02*
X217427619Y-192921000D01*
X217475238Y-192968619D01*
X217522857Y-192921000D01*
X217475238Y-192873380D01*
X217475238Y-192968619D01*
X217951428Y-193206714D02*
X217951428Y-193873380D01*
X217951428Y-193301952D02*
X217999047Y-193254333D01*
X218094285Y-193206714D01*
X218237142Y-193206714D01*
X218332380Y-193254333D01*
X218380000Y-193349571D01*
X218380000Y-193873380D01*
X218999047Y-193873380D02*
X218903809Y-193825761D01*
X218856190Y-193778142D01*
X218808571Y-193682904D01*
X218808571Y-193397190D01*
X218856190Y-193301952D01*
X218903809Y-193254333D01*
X218999047Y-193206714D01*
X219141904Y-193206714D01*
X219237142Y-193254333D01*
X219284761Y-193301952D01*
X219332380Y-193397190D01*
X219332380Y-193682904D01*
X219284761Y-193778142D01*
X219237142Y-193825761D01*
X219141904Y-193873380D01*
X218999047Y-193873380D01*
X219522857Y-193968619D02*
X220284761Y-193968619D01*
X220522857Y-193873380D02*
X220522857Y-192873380D01*
X221094285Y-193873380D01*
X221094285Y-192873380D01*
X221999047Y-193873380D02*
X221999047Y-193349571D01*
X221951428Y-193254333D01*
X221856190Y-193206714D01*
X221665714Y-193206714D01*
X221570476Y-193254333D01*
X221999047Y-193825761D02*
X221903809Y-193873380D01*
X221665714Y-193873380D01*
X221570476Y-193825761D01*
X221522857Y-193730523D01*
X221522857Y-193635285D01*
X221570476Y-193540047D01*
X221665714Y-193492428D01*
X221903809Y-193492428D01*
X221999047Y-193444809D01*
X222475238Y-193206714D02*
X222475238Y-193873380D01*
X222475238Y-193301952D02*
X222522857Y-193254333D01*
X222618095Y-193206714D01*
X222760952Y-193206714D01*
X222856190Y-193254333D01*
X222903809Y-193349571D01*
X222903809Y-193873380D01*
X223522857Y-193873380D02*
X223427619Y-193825761D01*
X223380000Y-193778142D01*
X223332380Y-193682904D01*
X223332380Y-193397190D01*
X223380000Y-193301952D01*
X223427619Y-193254333D01*
X223522857Y-193206714D01*
X223665714Y-193206714D01*
X223760952Y-193254333D01*
X223808571Y-193301952D01*
X223856190Y-193397190D01*
X223856190Y-193682904D01*
X223808571Y-193778142D01*
X223760952Y-193825761D01*
X223665714Y-193873380D01*
X223522857Y-193873380D01*
X224046666Y-193968619D02*
X224808571Y-193968619D01*
X224951428Y-193206714D02*
X225189523Y-193873380D01*
X225427619Y-193206714D01*
X225713333Y-192873380D02*
X226332380Y-192873380D01*
X225999047Y-193254333D01*
X226141904Y-193254333D01*
X226237142Y-193301952D01*
X226284761Y-193349571D01*
X226332380Y-193444809D01*
X226332380Y-193682904D01*
X226284761Y-193778142D01*
X226237142Y-193825761D01*
X226141904Y-193873380D01*
X225856190Y-193873380D01*
X225760952Y-193825761D01*
X225713333Y-193778142D01*
X226760952Y-193778142D02*
X226808571Y-193825761D01*
X226760952Y-193873380D01*
X226713333Y-193825761D01*
X226760952Y-193778142D01*
X226760952Y-193873380D01*
X227141904Y-193873380D02*
X227665714Y-193206714D01*
X227141904Y-193206714D02*
X227665714Y-193873380D01*
X220165714Y-191047666D02*
X220641904Y-191047666D01*
X220070476Y-191333380D02*
X220403809Y-190333380D01*
X220737142Y-191333380D01*
X221594285Y-191333380D02*
X221022857Y-191333380D01*
X221308571Y-191333380D02*
X221308571Y-190333380D01*
X221213333Y-190476238D01*
X221118095Y-190571476D01*
X221022857Y-190619095D01*
X260102142Y-196284095D02*
X260149761Y-196331714D01*
X260197380Y-196474571D01*
X260197380Y-196569809D01*
X260149761Y-196712666D01*
X260054523Y-196807904D01*
X259959285Y-196855523D01*
X259768809Y-196903142D01*
X259625952Y-196903142D01*
X259435476Y-196855523D01*
X259340238Y-196807904D01*
X259245000Y-196712666D01*
X259197380Y-196569809D01*
X259197380Y-196474571D01*
X259245000Y-196331714D01*
X259292619Y-196284095D01*
X260197380Y-195712666D02*
X260149761Y-195807904D01*
X260102142Y-195855523D01*
X260006904Y-195903142D01*
X259721190Y-195903142D01*
X259625952Y-195855523D01*
X259578333Y-195807904D01*
X259530714Y-195712666D01*
X259530714Y-195569809D01*
X259578333Y-195474571D01*
X259625952Y-195426952D01*
X259721190Y-195379333D01*
X260006904Y-195379333D01*
X260102142Y-195426952D01*
X260149761Y-195474571D01*
X260197380Y-195569809D01*
X260197380Y-195712666D01*
X259530714Y-194950761D02*
X260197380Y-194950761D01*
X259625952Y-194950761D02*
X259578333Y-194903142D01*
X259530714Y-194807904D01*
X259530714Y-194665047D01*
X259578333Y-194569809D01*
X259673571Y-194522190D01*
X260197380Y-194522190D01*
X259530714Y-194046000D02*
X260197380Y-194046000D01*
X259625952Y-194046000D02*
X259578333Y-193998380D01*
X259530714Y-193903142D01*
X259530714Y-193760285D01*
X259578333Y-193665047D01*
X259673571Y-193617428D01*
X260197380Y-193617428D01*
X260292619Y-193379333D02*
X260292619Y-192617428D01*
X259197380Y-192188857D02*
X259197380Y-192093619D01*
X259245000Y-191998380D01*
X259292619Y-191950761D01*
X259387857Y-191903142D01*
X259578333Y-191855523D01*
X259816428Y-191855523D01*
X260006904Y-191903142D01*
X260102142Y-191950761D01*
X260149761Y-191998380D01*
X260197380Y-192093619D01*
X260197380Y-192188857D01*
X260149761Y-192284095D01*
X260102142Y-192331714D01*
X260006904Y-192379333D01*
X259816428Y-192426952D01*
X259578333Y-192426952D01*
X259387857Y-192379333D01*
X259292619Y-192331714D01*
X259245000Y-192284095D01*
X259197380Y-192188857D01*
X260197380Y-190903142D02*
X260197380Y-191474571D01*
X260197380Y-191188857D02*
X259197380Y-191188857D01*
X259340238Y-191284095D01*
X259435476Y-191379333D01*
X259483095Y-191474571D01*
X260197380Y-190569809D02*
X259530714Y-190046000D01*
X259530714Y-190569809D02*
X260197380Y-190046000D01*
X259197380Y-189474571D02*
X259197380Y-189379333D01*
X259245000Y-189284095D01*
X259292619Y-189236476D01*
X259387857Y-189188857D01*
X259578333Y-189141238D01*
X259816428Y-189141238D01*
X260006904Y-189188857D01*
X260102142Y-189236476D01*
X260149761Y-189284095D01*
X260197380Y-189379333D01*
X260197380Y-189474571D01*
X260149761Y-189569809D01*
X260102142Y-189617428D01*
X260006904Y-189665047D01*
X259816428Y-189712666D01*
X259578333Y-189712666D01*
X259387857Y-189665047D01*
X259292619Y-189617428D01*
X259245000Y-189569809D01*
X259197380Y-189474571D01*
X259292619Y-188760285D02*
X259245000Y-188712666D01*
X259197380Y-188617428D01*
X259197380Y-188379333D01*
X259245000Y-188284095D01*
X259292619Y-188236476D01*
X259387857Y-188188857D01*
X259483095Y-188188857D01*
X259625952Y-188236476D01*
X260197380Y-188807904D01*
X260197380Y-188188857D01*
X249447380Y-193159333D02*
X250161666Y-193159333D01*
X250304523Y-193206952D01*
X250399761Y-193302190D01*
X250447380Y-193445047D01*
X250447380Y-193540285D01*
X250447380Y-192159333D02*
X250447380Y-192730761D01*
X250447380Y-192445047D02*
X249447380Y-192445047D01*
X249590238Y-192540285D01*
X249685476Y-192635523D01*
X249733095Y-192730761D01*
X250574523Y-198093142D02*
X250526904Y-198140761D01*
X250384047Y-198188380D01*
X250288809Y-198188380D01*
X250145952Y-198140761D01*
X250050714Y-198045523D01*
X250003095Y-197950285D01*
X249955476Y-197759809D01*
X249955476Y-197616952D01*
X250003095Y-197426476D01*
X250050714Y-197331238D01*
X250145952Y-197236000D01*
X250288809Y-197188380D01*
X250384047Y-197188380D01*
X250526904Y-197236000D01*
X250574523Y-197283619D01*
X251003095Y-198188380D02*
X251003095Y-197188380D01*
X251384047Y-197188380D01*
X251479285Y-197236000D01*
X251526904Y-197283619D01*
X251574523Y-197378857D01*
X251574523Y-197521714D01*
X251526904Y-197616952D01*
X251479285Y-197664571D01*
X251384047Y-197712190D01*
X251003095Y-197712190D01*
X250598333Y-205843142D02*
X250550714Y-205890761D01*
X250407857Y-205938380D01*
X250312619Y-205938380D01*
X250169761Y-205890761D01*
X250074523Y-205795523D01*
X250026904Y-205700285D01*
X249979285Y-205509809D01*
X249979285Y-205366952D01*
X250026904Y-205176476D01*
X250074523Y-205081238D01*
X250169761Y-204986000D01*
X250312619Y-204938380D01*
X250407857Y-204938380D01*
X250550714Y-204986000D01*
X250598333Y-205033619D01*
X251550714Y-205938380D02*
X250979285Y-205938380D01*
X251265000Y-205938380D02*
X251265000Y-204938380D01*
X251169761Y-205081238D01*
X251074523Y-205176476D01*
X250979285Y-205224095D01*
X178362380Y-161868857D02*
X177362380Y-161868857D01*
X177838571Y-161868857D02*
X177838571Y-161297428D01*
X178362380Y-161297428D02*
X177362380Y-161297428D01*
X178314761Y-160440285D02*
X178362380Y-160535523D01*
X178362380Y-160726000D01*
X178314761Y-160821238D01*
X178219523Y-160868857D01*
X177838571Y-160868857D01*
X177743333Y-160821238D01*
X177695714Y-160726000D01*
X177695714Y-160535523D01*
X177743333Y-160440285D01*
X177838571Y-160392666D01*
X177933809Y-160392666D01*
X178029047Y-160868857D01*
X178362380Y-159535523D02*
X177838571Y-159535523D01*
X177743333Y-159583142D01*
X177695714Y-159678380D01*
X177695714Y-159868857D01*
X177743333Y-159964095D01*
X178314761Y-159535523D02*
X178362380Y-159630761D01*
X178362380Y-159868857D01*
X178314761Y-159964095D01*
X178219523Y-160011714D01*
X178124285Y-160011714D01*
X178029047Y-159964095D01*
X177981428Y-159868857D01*
X177981428Y-159630761D01*
X177933809Y-159535523D01*
X178362380Y-158630761D02*
X177362380Y-158630761D01*
X178314761Y-158630761D02*
X178362380Y-158726000D01*
X178362380Y-158916476D01*
X178314761Y-159011714D01*
X178267142Y-159059333D01*
X178171904Y-159106952D01*
X177886190Y-159106952D01*
X177790952Y-159059333D01*
X177743333Y-159011714D01*
X177695714Y-158916476D01*
X177695714Y-158726000D01*
X177743333Y-158630761D01*
X178314761Y-157773619D02*
X178362380Y-157868857D01*
X178362380Y-158059333D01*
X178314761Y-158154571D01*
X178219523Y-158202190D01*
X177838571Y-158202190D01*
X177743333Y-158154571D01*
X177695714Y-158059333D01*
X177695714Y-157868857D01*
X177743333Y-157773619D01*
X177838571Y-157726000D01*
X177933809Y-157726000D01*
X178029047Y-158202190D01*
X178362380Y-157297428D02*
X177695714Y-157297428D01*
X177886190Y-157297428D02*
X177790952Y-157249809D01*
X177743333Y-157202190D01*
X177695714Y-157106952D01*
X177695714Y-157011714D01*
X178362380Y-155392666D02*
X178362380Y-155964095D01*
X178362380Y-155678380D02*
X177362380Y-155678380D01*
X177505238Y-155773619D01*
X177600476Y-155868857D01*
X177648095Y-155964095D01*
X177362380Y-155059333D02*
X178362380Y-154392666D01*
X177362380Y-154392666D02*
X178362380Y-155059333D01*
X177362380Y-154106952D02*
X177362380Y-153487904D01*
X177743333Y-153821238D01*
X177743333Y-153678380D01*
X177790952Y-153583142D01*
X177838571Y-153535523D01*
X177933809Y-153487904D01*
X178171904Y-153487904D01*
X178267142Y-153535523D01*
X178314761Y-153583142D01*
X178362380Y-153678380D01*
X178362380Y-153964095D01*
X178314761Y-154059333D01*
X178267142Y-154106952D01*
X177362380Y-152868857D02*
X177362380Y-152773619D01*
X177410000Y-152678380D01*
X177457619Y-152630761D01*
X177552857Y-152583142D01*
X177743333Y-152535523D01*
X177981428Y-152535523D01*
X178171904Y-152583142D01*
X178267142Y-152630761D01*
X178314761Y-152678380D01*
X178362380Y-152773619D01*
X178362380Y-152868857D01*
X178314761Y-152964095D01*
X178267142Y-153011714D01*
X178171904Y-153059333D01*
X177981428Y-153106952D01*
X177743333Y-153106952D01*
X177552857Y-153059333D01*
X177457619Y-153011714D01*
X177410000Y-152964095D01*
X177362380Y-152868857D01*
X216736666Y-156678380D02*
X216736666Y-157392666D01*
X216689047Y-157535523D01*
X216593809Y-157630761D01*
X216450952Y-157678380D01*
X216355714Y-157678380D01*
X217641428Y-156678380D02*
X217450952Y-156678380D01*
X217355714Y-156726000D01*
X217308095Y-156773619D01*
X217212857Y-156916476D01*
X217165238Y-157106952D01*
X217165238Y-157487904D01*
X217212857Y-157583142D01*
X217260476Y-157630761D01*
X217355714Y-157678380D01*
X217546190Y-157678380D01*
X217641428Y-157630761D01*
X217689047Y-157583142D01*
X217736666Y-157487904D01*
X217736666Y-157249809D01*
X217689047Y-157154571D01*
X217641428Y-157106952D01*
X217546190Y-157059333D01*
X217355714Y-157059333D01*
X217260476Y-157106952D01*
X217212857Y-157154571D01*
X217165238Y-157249809D01*
X217949280Y-170465666D02*
X217949280Y-171037095D01*
X217949280Y-170751380D02*
X216949280Y-170751380D01*
X217092138Y-170846619D01*
X217187376Y-170941857D01*
X217234995Y-171037095D01*
X216949280Y-169846619D02*
X216949280Y-169751380D01*
X216996900Y-169656142D01*
X217044519Y-169608523D01*
X217139757Y-169560904D01*
X217330233Y-169513285D01*
X217568328Y-169513285D01*
X217758804Y-169560904D01*
X217854042Y-169608523D01*
X217901661Y-169656142D01*
X217949280Y-169751380D01*
X217949280Y-169846619D01*
X217901661Y-169941857D01*
X217854042Y-169989476D01*
X217758804Y-170037095D01*
X217568328Y-170084714D01*
X217330233Y-170084714D01*
X217139757Y-170037095D01*
X217044519Y-169989476D01*
X216996900Y-169941857D01*
X216949280Y-169846619D01*
X216949280Y-168894238D02*
X216949280Y-168799000D01*
X216996900Y-168703761D01*
X217044519Y-168656142D01*
X217139757Y-168608523D01*
X217330233Y-168560904D01*
X217568328Y-168560904D01*
X217758804Y-168608523D01*
X217854042Y-168656142D01*
X217901661Y-168703761D01*
X217949280Y-168799000D01*
X217949280Y-168894238D01*
X217901661Y-168989476D01*
X217854042Y-169037095D01*
X217758804Y-169084714D01*
X217568328Y-169132333D01*
X217330233Y-169132333D01*
X217139757Y-169084714D01*
X217044519Y-169037095D01*
X216996900Y-168989476D01*
X216949280Y-168894238D01*
X215579280Y-173799477D02*
X215103090Y-174132811D01*
X215579280Y-174370906D02*
X214579280Y-174370906D01*
X214579280Y-173989953D01*
X214626900Y-173894715D01*
X214674519Y-173847096D01*
X214769757Y-173799477D01*
X214912614Y-173799477D01*
X215007852Y-173847096D01*
X215055471Y-173894715D01*
X215103090Y-173989953D01*
X215103090Y-174370906D01*
X214674519Y-173418525D02*
X214626900Y-173370906D01*
X214579280Y-173275668D01*
X214579280Y-173037572D01*
X214626900Y-172942334D01*
X214674519Y-172894715D01*
X214769757Y-172847096D01*
X214864995Y-172847096D01*
X215007852Y-172894715D01*
X215579280Y-173466144D01*
X215579280Y-172847096D01*
X212754980Y-170465666D02*
X212754980Y-171037095D01*
X212754980Y-170751380D02*
X211754980Y-170751380D01*
X211897838Y-170846619D01*
X211993076Y-170941857D01*
X212040695Y-171037095D01*
X211754980Y-169846619D02*
X211754980Y-169751380D01*
X211802600Y-169656142D01*
X211850219Y-169608523D01*
X211945457Y-169560904D01*
X212135933Y-169513285D01*
X212374028Y-169513285D01*
X212564504Y-169560904D01*
X212659742Y-169608523D01*
X212707361Y-169656142D01*
X212754980Y-169751380D01*
X212754980Y-169846619D01*
X212707361Y-169941857D01*
X212659742Y-169989476D01*
X212564504Y-170037095D01*
X212374028Y-170084714D01*
X212135933Y-170084714D01*
X211945457Y-170037095D01*
X211850219Y-169989476D01*
X211802600Y-169941857D01*
X211754980Y-169846619D01*
X211754980Y-168894238D02*
X211754980Y-168799000D01*
X211802600Y-168703761D01*
X211850219Y-168656142D01*
X211945457Y-168608523D01*
X212135933Y-168560904D01*
X212374028Y-168560904D01*
X212564504Y-168608523D01*
X212659742Y-168656142D01*
X212707361Y-168703761D01*
X212754980Y-168799000D01*
X212754980Y-168894238D01*
X212707361Y-168989476D01*
X212659742Y-169037095D01*
X212564504Y-169084714D01*
X212374028Y-169132333D01*
X212135933Y-169132333D01*
X211945457Y-169084714D01*
X211850219Y-169037095D01*
X211802600Y-168989476D01*
X211754980Y-168894238D01*
X210384980Y-169965666D02*
X209908790Y-170299000D01*
X210384980Y-170537095D02*
X209384980Y-170537095D01*
X209384980Y-170156142D01*
X209432600Y-170060904D01*
X209480219Y-170013285D01*
X209575457Y-169965666D01*
X209718314Y-169965666D01*
X209813552Y-170013285D01*
X209861171Y-170060904D01*
X209908790Y-170156142D01*
X209908790Y-170537095D01*
X209384980Y-169632333D02*
X209384980Y-169013285D01*
X209765933Y-169346619D01*
X209765933Y-169203761D01*
X209813552Y-169108523D01*
X209861171Y-169060904D01*
X209956409Y-169013285D01*
X210194504Y-169013285D01*
X210289742Y-169060904D01*
X210337361Y-169108523D01*
X210384980Y-169203761D01*
X210384980Y-169489476D01*
X210337361Y-169584714D01*
X210289742Y-169632333D01*
X207560680Y-170465666D02*
X207560680Y-171037095D01*
X207560680Y-170751380D02*
X206560680Y-170751380D01*
X206703538Y-170846619D01*
X206798776Y-170941857D01*
X206846395Y-171037095D01*
X206560680Y-169846619D02*
X206560680Y-169751380D01*
X206608300Y-169656142D01*
X206655919Y-169608523D01*
X206751157Y-169560904D01*
X206941633Y-169513285D01*
X207179728Y-169513285D01*
X207370204Y-169560904D01*
X207465442Y-169608523D01*
X207513061Y-169656142D01*
X207560680Y-169751380D01*
X207560680Y-169846619D01*
X207513061Y-169941857D01*
X207465442Y-169989476D01*
X207370204Y-170037095D01*
X207179728Y-170084714D01*
X206941633Y-170084714D01*
X206751157Y-170037095D01*
X206655919Y-169989476D01*
X206608300Y-169941857D01*
X206560680Y-169846619D01*
X206560680Y-168894238D02*
X206560680Y-168799000D01*
X206608300Y-168703761D01*
X206655919Y-168656142D01*
X206751157Y-168608523D01*
X206941633Y-168560904D01*
X207179728Y-168560904D01*
X207370204Y-168608523D01*
X207465442Y-168656142D01*
X207513061Y-168703761D01*
X207560680Y-168799000D01*
X207560680Y-168894238D01*
X207513061Y-168989476D01*
X207465442Y-169037095D01*
X207370204Y-169084714D01*
X207179728Y-169132333D01*
X206941633Y-169132333D01*
X206751157Y-169084714D01*
X206655919Y-169037095D01*
X206608300Y-168989476D01*
X206560680Y-168894238D01*
X205190680Y-169965666D02*
X204714490Y-170299000D01*
X205190680Y-170537095D02*
X204190680Y-170537095D01*
X204190680Y-170156142D01*
X204238300Y-170060904D01*
X204285919Y-170013285D01*
X204381157Y-169965666D01*
X204524014Y-169965666D01*
X204619252Y-170013285D01*
X204666871Y-170060904D01*
X204714490Y-170156142D01*
X204714490Y-170537095D01*
X204524014Y-169108523D02*
X205190680Y-169108523D01*
X204143061Y-169346619D02*
X204857347Y-169584714D01*
X204857347Y-168965666D01*
X202366380Y-170465666D02*
X202366380Y-171037095D01*
X202366380Y-170751380D02*
X201366380Y-170751380D01*
X201509238Y-170846619D01*
X201604476Y-170941857D01*
X201652095Y-171037095D01*
X201366380Y-169846619D02*
X201366380Y-169751380D01*
X201414000Y-169656142D01*
X201461619Y-169608523D01*
X201556857Y-169560904D01*
X201747333Y-169513285D01*
X201985428Y-169513285D01*
X202175904Y-169560904D01*
X202271142Y-169608523D01*
X202318761Y-169656142D01*
X202366380Y-169751380D01*
X202366380Y-169846619D01*
X202318761Y-169941857D01*
X202271142Y-169989476D01*
X202175904Y-170037095D01*
X201985428Y-170084714D01*
X201747333Y-170084714D01*
X201556857Y-170037095D01*
X201461619Y-169989476D01*
X201414000Y-169941857D01*
X201366380Y-169846619D01*
X201366380Y-168894238D02*
X201366380Y-168799000D01*
X201414000Y-168703761D01*
X201461619Y-168656142D01*
X201556857Y-168608523D01*
X201747333Y-168560904D01*
X201985428Y-168560904D01*
X202175904Y-168608523D01*
X202271142Y-168656142D01*
X202318761Y-168703761D01*
X202366380Y-168799000D01*
X202366380Y-168894238D01*
X202318761Y-168989476D01*
X202271142Y-169037095D01*
X202175904Y-169084714D01*
X201985428Y-169132333D01*
X201747333Y-169132333D01*
X201556857Y-169084714D01*
X201461619Y-169037095D01*
X201414000Y-168989476D01*
X201366380Y-168894238D01*
X199996380Y-169965666D02*
X199520190Y-170299000D01*
X199996380Y-170537095D02*
X198996380Y-170537095D01*
X198996380Y-170156142D01*
X199044000Y-170060904D01*
X199091619Y-170013285D01*
X199186857Y-169965666D01*
X199329714Y-169965666D01*
X199424952Y-170013285D01*
X199472571Y-170060904D01*
X199520190Y-170156142D01*
X199520190Y-170537095D01*
X198996380Y-169060904D02*
X198996380Y-169537095D01*
X199472571Y-169584714D01*
X199424952Y-169537095D01*
X199377333Y-169441857D01*
X199377333Y-169203761D01*
X199424952Y-169108523D01*
X199472571Y-169060904D01*
X199567809Y-169013285D01*
X199805904Y-169013285D01*
X199901142Y-169060904D01*
X199948761Y-169108523D01*
X199996380Y-169203761D01*
X199996380Y-169441857D01*
X199948761Y-169537095D01*
X199901142Y-169584714D01*
X233532180Y-170465666D02*
X233532180Y-171037095D01*
X233532180Y-170751380D02*
X232532180Y-170751380D01*
X232675038Y-170846619D01*
X232770276Y-170941857D01*
X232817895Y-171037095D01*
X232532180Y-169846619D02*
X232532180Y-169751380D01*
X232579800Y-169656142D01*
X232627419Y-169608523D01*
X232722657Y-169560904D01*
X232913133Y-169513285D01*
X233151228Y-169513285D01*
X233341704Y-169560904D01*
X233436942Y-169608523D01*
X233484561Y-169656142D01*
X233532180Y-169751380D01*
X233532180Y-169846619D01*
X233484561Y-169941857D01*
X233436942Y-169989476D01*
X233341704Y-170037095D01*
X233151228Y-170084714D01*
X232913133Y-170084714D01*
X232722657Y-170037095D01*
X232627419Y-169989476D01*
X232579800Y-169941857D01*
X232532180Y-169846619D01*
X232532180Y-168894238D02*
X232532180Y-168799000D01*
X232579800Y-168703761D01*
X232627419Y-168656142D01*
X232722657Y-168608523D01*
X232913133Y-168560904D01*
X233151228Y-168560904D01*
X233341704Y-168608523D01*
X233436942Y-168656142D01*
X233484561Y-168703761D01*
X233532180Y-168799000D01*
X233532180Y-168894238D01*
X233484561Y-168989476D01*
X233436942Y-169037095D01*
X233341704Y-169084714D01*
X233151228Y-169132333D01*
X232913133Y-169132333D01*
X232722657Y-169084714D01*
X232627419Y-169037095D01*
X232579800Y-168989476D01*
X232532180Y-168894238D01*
X231162180Y-169965666D02*
X230685990Y-170299000D01*
X231162180Y-170537095D02*
X230162180Y-170537095D01*
X230162180Y-170156142D01*
X230209800Y-170060904D01*
X230257419Y-170013285D01*
X230352657Y-169965666D01*
X230495514Y-169965666D01*
X230590752Y-170013285D01*
X230638371Y-170060904D01*
X230685990Y-170156142D01*
X230685990Y-170537095D01*
X230162180Y-169632333D02*
X230162180Y-168965666D01*
X231162180Y-169394238D01*
X228337880Y-170465666D02*
X228337880Y-171037095D01*
X228337880Y-170751380D02*
X227337880Y-170751380D01*
X227480738Y-170846619D01*
X227575976Y-170941857D01*
X227623595Y-171037095D01*
X227337880Y-169846619D02*
X227337880Y-169751380D01*
X227385500Y-169656142D01*
X227433119Y-169608523D01*
X227528357Y-169560904D01*
X227718833Y-169513285D01*
X227956928Y-169513285D01*
X228147404Y-169560904D01*
X228242642Y-169608523D01*
X228290261Y-169656142D01*
X228337880Y-169751380D01*
X228337880Y-169846619D01*
X228290261Y-169941857D01*
X228242642Y-169989476D01*
X228147404Y-170037095D01*
X227956928Y-170084714D01*
X227718833Y-170084714D01*
X227528357Y-170037095D01*
X227433119Y-169989476D01*
X227385500Y-169941857D01*
X227337880Y-169846619D01*
X227337880Y-168894238D02*
X227337880Y-168799000D01*
X227385500Y-168703761D01*
X227433119Y-168656142D01*
X227528357Y-168608523D01*
X227718833Y-168560904D01*
X227956928Y-168560904D01*
X228147404Y-168608523D01*
X228242642Y-168656142D01*
X228290261Y-168703761D01*
X228337880Y-168799000D01*
X228337880Y-168894238D01*
X228290261Y-168989476D01*
X228242642Y-169037095D01*
X228147404Y-169084714D01*
X227956928Y-169132333D01*
X227718833Y-169132333D01*
X227528357Y-169084714D01*
X227433119Y-169037095D01*
X227385500Y-168989476D01*
X227337880Y-168894238D01*
X225967880Y-169965666D02*
X225491690Y-170299000D01*
X225967880Y-170537095D02*
X224967880Y-170537095D01*
X224967880Y-170156142D01*
X225015500Y-170060904D01*
X225063119Y-170013285D01*
X225158357Y-169965666D01*
X225301214Y-169965666D01*
X225396452Y-170013285D01*
X225444071Y-170060904D01*
X225491690Y-170156142D01*
X225491690Y-170537095D01*
X225967880Y-169489476D02*
X225967880Y-169299000D01*
X225920261Y-169203761D01*
X225872642Y-169156142D01*
X225729785Y-169060904D01*
X225539309Y-169013285D01*
X225158357Y-169013285D01*
X225063119Y-169060904D01*
X225015500Y-169108523D01*
X224967880Y-169203761D01*
X224967880Y-169394238D01*
X225015500Y-169489476D01*
X225063119Y-169537095D01*
X225158357Y-169584714D01*
X225396452Y-169584714D01*
X225491690Y-169537095D01*
X225539309Y-169489476D01*
X225586928Y-169394238D01*
X225586928Y-169203761D01*
X225539309Y-169108523D01*
X225491690Y-169060904D01*
X225396452Y-169013285D01*
X223143580Y-170465666D02*
X223143580Y-171037095D01*
X223143580Y-170751380D02*
X222143580Y-170751380D01*
X222286438Y-170846619D01*
X222381676Y-170941857D01*
X222429295Y-171037095D01*
X222143580Y-169846619D02*
X222143580Y-169751380D01*
X222191200Y-169656142D01*
X222238819Y-169608523D01*
X222334057Y-169560904D01*
X222524533Y-169513285D01*
X222762628Y-169513285D01*
X222953104Y-169560904D01*
X223048342Y-169608523D01*
X223095961Y-169656142D01*
X223143580Y-169751380D01*
X223143580Y-169846619D01*
X223095961Y-169941857D01*
X223048342Y-169989476D01*
X222953104Y-170037095D01*
X222762628Y-170084714D01*
X222524533Y-170084714D01*
X222334057Y-170037095D01*
X222238819Y-169989476D01*
X222191200Y-169941857D01*
X222143580Y-169846619D01*
X222143580Y-168894238D02*
X222143580Y-168799000D01*
X222191200Y-168703761D01*
X222238819Y-168656142D01*
X222334057Y-168608523D01*
X222524533Y-168560904D01*
X222762628Y-168560904D01*
X222953104Y-168608523D01*
X223048342Y-168656142D01*
X223095961Y-168703761D01*
X223143580Y-168799000D01*
X223143580Y-168894238D01*
X223095961Y-168989476D01*
X223048342Y-169037095D01*
X222953104Y-169084714D01*
X222762628Y-169132333D01*
X222524533Y-169132333D01*
X222334057Y-169084714D01*
X222238819Y-169037095D01*
X222191200Y-168989476D01*
X222143580Y-168894238D01*
X220773580Y-170441857D02*
X220297390Y-170775190D01*
X220773580Y-171013285D02*
X219773580Y-171013285D01*
X219773580Y-170632333D01*
X219821200Y-170537095D01*
X219868819Y-170489476D01*
X219964057Y-170441857D01*
X220106914Y-170441857D01*
X220202152Y-170489476D01*
X220249771Y-170537095D01*
X220297390Y-170632333D01*
X220297390Y-171013285D01*
X220773580Y-169489476D02*
X220773580Y-170060904D01*
X220773580Y-169775190D02*
X219773580Y-169775190D01*
X219916438Y-169870428D01*
X220011676Y-169965666D01*
X220059295Y-170060904D01*
X219773580Y-168870428D02*
X219773580Y-168775190D01*
X219821200Y-168679952D01*
X219868819Y-168632333D01*
X219964057Y-168584714D01*
X220154533Y-168537095D01*
X220392628Y-168537095D01*
X220583104Y-168584714D01*
X220678342Y-168632333D01*
X220725961Y-168679952D01*
X220773580Y-168775190D01*
X220773580Y-168870428D01*
X220725961Y-168965666D01*
X220678342Y-169013285D01*
X220583104Y-169060904D01*
X220392628Y-169108523D01*
X220154533Y-169108523D01*
X219964057Y-169060904D01*
X219868819Y-169013285D01*
X219821200Y-168965666D01*
X219773580Y-168870428D01*
X249569380Y-170465666D02*
X249569380Y-171037095D01*
X249569380Y-170751380D02*
X248569380Y-170751380D01*
X248712238Y-170846619D01*
X248807476Y-170941857D01*
X248855095Y-171037095D01*
X248569380Y-169846619D02*
X248569380Y-169751380D01*
X248617000Y-169656142D01*
X248664619Y-169608523D01*
X248759857Y-169560904D01*
X248950333Y-169513285D01*
X249188428Y-169513285D01*
X249378904Y-169560904D01*
X249474142Y-169608523D01*
X249521761Y-169656142D01*
X249569380Y-169751380D01*
X249569380Y-169846619D01*
X249521761Y-169941857D01*
X249474142Y-169989476D01*
X249378904Y-170037095D01*
X249188428Y-170084714D01*
X248950333Y-170084714D01*
X248759857Y-170037095D01*
X248664619Y-169989476D01*
X248617000Y-169941857D01*
X248569380Y-169846619D01*
X248569380Y-168894238D02*
X248569380Y-168799000D01*
X248617000Y-168703761D01*
X248664619Y-168656142D01*
X248759857Y-168608523D01*
X248950333Y-168560904D01*
X249188428Y-168560904D01*
X249378904Y-168608523D01*
X249474142Y-168656142D01*
X249521761Y-168703761D01*
X249569380Y-168799000D01*
X249569380Y-168894238D01*
X249521761Y-168989476D01*
X249474142Y-169037095D01*
X249378904Y-169084714D01*
X249188428Y-169132333D01*
X248950333Y-169132333D01*
X248759857Y-169084714D01*
X248664619Y-169037095D01*
X248617000Y-168989476D01*
X248569380Y-168894238D01*
X251939380Y-170441857D02*
X251463190Y-170775190D01*
X251939380Y-171013285D02*
X250939380Y-171013285D01*
X250939380Y-170632333D01*
X250987000Y-170537095D01*
X251034619Y-170489476D01*
X251129857Y-170441857D01*
X251272714Y-170441857D01*
X251367952Y-170489476D01*
X251415571Y-170537095D01*
X251463190Y-170632333D01*
X251463190Y-171013285D01*
X251939380Y-169489476D02*
X251939380Y-170060904D01*
X251939380Y-169775190D02*
X250939380Y-169775190D01*
X251082238Y-169870428D01*
X251177476Y-169965666D01*
X251225095Y-170060904D01*
X251939380Y-168537095D02*
X251939380Y-169108523D01*
X251939380Y-168822809D02*
X250939380Y-168822809D01*
X251082238Y-168918047D01*
X251177476Y-169013285D01*
X251225095Y-169108523D01*
X244870380Y-170465666D02*
X244870380Y-171037095D01*
X244870380Y-170751380D02*
X243870380Y-170751380D01*
X244013238Y-170846619D01*
X244108476Y-170941857D01*
X244156095Y-171037095D01*
X243870380Y-169846619D02*
X243870380Y-169751380D01*
X243918000Y-169656142D01*
X243965619Y-169608523D01*
X244060857Y-169560904D01*
X244251333Y-169513285D01*
X244489428Y-169513285D01*
X244679904Y-169560904D01*
X244775142Y-169608523D01*
X244822761Y-169656142D01*
X244870380Y-169751380D01*
X244870380Y-169846619D01*
X244822761Y-169941857D01*
X244775142Y-169989476D01*
X244679904Y-170037095D01*
X244489428Y-170084714D01*
X244251333Y-170084714D01*
X244060857Y-170037095D01*
X243965619Y-169989476D01*
X243918000Y-169941857D01*
X243870380Y-169846619D01*
X243870380Y-168894238D02*
X243870380Y-168799000D01*
X243918000Y-168703761D01*
X243965619Y-168656142D01*
X244060857Y-168608523D01*
X244251333Y-168560904D01*
X244489428Y-168560904D01*
X244679904Y-168608523D01*
X244775142Y-168656142D01*
X244822761Y-168703761D01*
X244870380Y-168799000D01*
X244870380Y-168894238D01*
X244822761Y-168989476D01*
X244775142Y-169037095D01*
X244679904Y-169084714D01*
X244489428Y-169132333D01*
X244251333Y-169132333D01*
X244060857Y-169084714D01*
X243965619Y-169037095D01*
X243918000Y-168989476D01*
X243870380Y-168894238D01*
X247240380Y-170441857D02*
X246764190Y-170775190D01*
X247240380Y-171013285D02*
X246240380Y-171013285D01*
X246240380Y-170632333D01*
X246288000Y-170537095D01*
X246335619Y-170489476D01*
X246430857Y-170441857D01*
X246573714Y-170441857D01*
X246668952Y-170489476D01*
X246716571Y-170537095D01*
X246764190Y-170632333D01*
X246764190Y-171013285D01*
X247240380Y-169489476D02*
X247240380Y-170060904D01*
X247240380Y-169775190D02*
X246240380Y-169775190D01*
X246383238Y-169870428D01*
X246478476Y-169965666D01*
X246526095Y-170060904D01*
X246335619Y-169108523D02*
X246288000Y-169060904D01*
X246240380Y-168965666D01*
X246240380Y-168727571D01*
X246288000Y-168632333D01*
X246335619Y-168584714D01*
X246430857Y-168537095D01*
X246526095Y-168537095D01*
X246668952Y-168584714D01*
X247240380Y-169156142D01*
X247240380Y-168537095D01*
X233986480Y-170465666D02*
X233986480Y-171037095D01*
X233986480Y-170751380D02*
X232986480Y-170751380D01*
X233129338Y-170846619D01*
X233224576Y-170941857D01*
X233272195Y-171037095D01*
X232986480Y-169846619D02*
X232986480Y-169751380D01*
X233034100Y-169656142D01*
X233081719Y-169608523D01*
X233176957Y-169560904D01*
X233367433Y-169513285D01*
X233605528Y-169513285D01*
X233796004Y-169560904D01*
X233891242Y-169608523D01*
X233938861Y-169656142D01*
X233986480Y-169751380D01*
X233986480Y-169846619D01*
X233938861Y-169941857D01*
X233891242Y-169989476D01*
X233796004Y-170037095D01*
X233605528Y-170084714D01*
X233367433Y-170084714D01*
X233176957Y-170037095D01*
X233081719Y-169989476D01*
X233034100Y-169941857D01*
X232986480Y-169846619D01*
X232986480Y-168894238D02*
X232986480Y-168799000D01*
X233034100Y-168703761D01*
X233081719Y-168656142D01*
X233176957Y-168608523D01*
X233367433Y-168560904D01*
X233605528Y-168560904D01*
X233796004Y-168608523D01*
X233891242Y-168656142D01*
X233938861Y-168703761D01*
X233986480Y-168799000D01*
X233986480Y-168894238D01*
X233938861Y-168989476D01*
X233891242Y-169037095D01*
X233796004Y-169084714D01*
X233605528Y-169132333D01*
X233367433Y-169132333D01*
X233176957Y-169084714D01*
X233081719Y-169037095D01*
X233034100Y-168989476D01*
X232986480Y-168894238D01*
X236356480Y-173799477D02*
X235880290Y-174132810D01*
X236356480Y-174370905D02*
X235356480Y-174370905D01*
X235356480Y-173989953D01*
X235404100Y-173894715D01*
X235451719Y-173847096D01*
X235546957Y-173799477D01*
X235689814Y-173799477D01*
X235785052Y-173847096D01*
X235832671Y-173894715D01*
X235880290Y-173989953D01*
X235880290Y-174370905D01*
X236356480Y-172847096D02*
X236356480Y-173418524D01*
X236356480Y-173132810D02*
X235356480Y-173132810D01*
X235499338Y-173228048D01*
X235594576Y-173323286D01*
X235642195Y-173418524D01*
X235356480Y-171942334D02*
X235356480Y-172418524D01*
X235832671Y-172466143D01*
X235785052Y-172418524D01*
X235737433Y-172323286D01*
X235737433Y-172085191D01*
X235785052Y-171989953D01*
X235832671Y-171942334D01*
X235927909Y-171894715D01*
X236166004Y-171894715D01*
X236261242Y-171942334D01*
X236308861Y-171989953D01*
X236356480Y-172085191D01*
X236356480Y-172323286D01*
X236308861Y-172418524D01*
X236261242Y-172466143D01*
M02*
