G04 #@! TF.GenerationSoftware,KiCad,Pcbnew,(5.1.5)-3*
G04 #@! TF.CreationDate,2020-04-12T17:29:34+03:00*
G04 #@! TF.ProjectId,respirator-control_rev2,72657370-6972-4617-946f-722d636f6e74,rev?*
G04 #@! TF.SameCoordinates,Original*
G04 #@! TF.FileFunction,Legend,Bot*
G04 #@! TF.FilePolarity,Positive*
%FSLAX46Y46*%
G04 Gerber Fmt 4.6, Leading zero omitted, Abs format (unit mm)*
G04 Created by KiCad (PCBNEW (5.1.5)-3) date 2020-04-12 17:29:34*
%MOMM*%
%LPD*%
G04 APERTURE LIST*
%ADD10C,0.150000*%
%ADD11C,0.300000*%
%ADD12C,0.200000*%
%ADD13C,0.120000*%
%ADD14C,0.100000*%
%ADD15C,0.254000*%
G04 APERTURE END LIST*
D10*
X235834095Y-127833380D02*
X235834095Y-126833380D01*
X235500761Y-127547666D01*
X235167428Y-126833380D01*
X235167428Y-127833380D01*
X234738857Y-127547666D02*
X234262666Y-127547666D01*
X234834095Y-127833380D02*
X234500761Y-126833380D01*
X234167428Y-127833380D01*
X233929333Y-126833380D02*
X233262666Y-127833380D01*
X233262666Y-126833380D02*
X233929333Y-127833380D01*
X194940095Y-127579380D02*
X194940095Y-126579380D01*
X194606761Y-127293666D01*
X194273428Y-126579380D01*
X194273428Y-127579380D01*
X193844857Y-127293666D02*
X193368666Y-127293666D01*
X193940095Y-127579380D02*
X193606761Y-126579380D01*
X193273428Y-127579380D01*
X193035333Y-126579380D02*
X192368666Y-127579380D01*
X192368666Y-126579380D02*
X193035333Y-127579380D01*
X255503238Y-127071380D02*
X255503238Y-126071380D01*
X255169904Y-126785666D01*
X254836571Y-126071380D01*
X254836571Y-127071380D01*
X254360380Y-127071380D02*
X254360380Y-126071380D01*
X253884190Y-127071380D02*
X253884190Y-126071380D01*
X253312761Y-127071380D01*
X253312761Y-126071380D01*
X215625238Y-126817380D02*
X215625238Y-125817380D01*
X215291904Y-126531666D01*
X214958571Y-125817380D01*
X214958571Y-126817380D01*
X214482380Y-126817380D02*
X214482380Y-125817380D01*
X214006190Y-126817380D02*
X214006190Y-125817380D01*
X213434761Y-126817380D01*
X213434761Y-125817380D01*
X155824095Y-127833380D02*
X155824095Y-126833380D01*
X155490761Y-127547666D01*
X155157428Y-126833380D01*
X155157428Y-127833380D01*
X154728857Y-127547666D02*
X154252666Y-127547666D01*
X154824095Y-127833380D02*
X154490761Y-126833380D01*
X154157428Y-127833380D01*
X153919333Y-126833380D02*
X153252666Y-127833380D01*
X153252666Y-126833380D02*
X153919333Y-127833380D01*
X176255238Y-127071380D02*
X176255238Y-126071380D01*
X175921904Y-126785666D01*
X175588571Y-126071380D01*
X175588571Y-127071380D01*
X175112380Y-127071380D02*
X175112380Y-126071380D01*
X174636190Y-127071380D02*
X174636190Y-126071380D01*
X174064761Y-127071380D01*
X174064761Y-126071380D01*
X245276571Y-144073571D02*
X245133714Y-144121190D01*
X245086095Y-144168809D01*
X245038476Y-144264047D01*
X245038476Y-144406904D01*
X245086095Y-144502142D01*
X245133714Y-144549761D01*
X245228952Y-144597380D01*
X245609904Y-144597380D01*
X245609904Y-143597380D01*
X245276571Y-143597380D01*
X245181333Y-143645000D01*
X245133714Y-143692619D01*
X245086095Y-143787857D01*
X245086095Y-143883095D01*
X245133714Y-143978333D01*
X245181333Y-144025952D01*
X245276571Y-144073571D01*
X245609904Y-144073571D01*
X244752761Y-143597380D02*
X244419428Y-144597380D01*
X244086095Y-143597380D01*
X243752761Y-144597380D02*
X243752761Y-143597380D01*
X243419428Y-144311666D01*
X243086095Y-143597380D01*
X243086095Y-144597380D01*
X205454142Y-144978380D02*
X205787476Y-144502190D01*
X206025571Y-144978380D02*
X206025571Y-143978380D01*
X205644619Y-143978380D01*
X205549380Y-144026000D01*
X205501761Y-144073619D01*
X205454142Y-144168857D01*
X205454142Y-144311714D01*
X205501761Y-144406952D01*
X205549380Y-144454571D01*
X205644619Y-144502190D01*
X206025571Y-144502190D01*
X204597000Y-144978380D02*
X204597000Y-144454571D01*
X204644619Y-144359333D01*
X204739857Y-144311714D01*
X204930333Y-144311714D01*
X205025571Y-144359333D01*
X204597000Y-144930761D02*
X204692238Y-144978380D01*
X204930333Y-144978380D01*
X205025571Y-144930761D01*
X205073190Y-144835523D01*
X205073190Y-144740285D01*
X205025571Y-144645047D01*
X204930333Y-144597428D01*
X204692238Y-144597428D01*
X204597000Y-144549809D01*
X204263666Y-144311714D02*
X203882714Y-144311714D01*
X204120809Y-143978380D02*
X204120809Y-144835523D01*
X204073190Y-144930761D01*
X203977952Y-144978380D01*
X203882714Y-144978380D01*
X203168428Y-144930761D02*
X203263666Y-144978380D01*
X203454142Y-144978380D01*
X203549380Y-144930761D01*
X203597000Y-144835523D01*
X203597000Y-144454571D01*
X203549380Y-144359333D01*
X203454142Y-144311714D01*
X203263666Y-144311714D01*
X203168428Y-144359333D01*
X203120809Y-144454571D01*
X203120809Y-144549809D01*
X203597000Y-144645047D01*
X169877666Y-145740380D02*
X169877666Y-144740380D01*
X169496714Y-144740380D01*
X169401476Y-144788000D01*
X169353857Y-144835619D01*
X169306238Y-144930857D01*
X169306238Y-145073714D01*
X169353857Y-145168952D01*
X169401476Y-145216571D01*
X169496714Y-145264190D01*
X169877666Y-145264190D01*
X168877666Y-145740380D02*
X168877666Y-145073714D01*
X168877666Y-145264190D02*
X168830047Y-145168952D01*
X168782428Y-145121333D01*
X168687190Y-145073714D01*
X168591952Y-145073714D01*
X167877666Y-145692761D02*
X167972904Y-145740380D01*
X168163380Y-145740380D01*
X168258619Y-145692761D01*
X168306238Y-145597523D01*
X168306238Y-145216571D01*
X168258619Y-145121333D01*
X168163380Y-145073714D01*
X167972904Y-145073714D01*
X167877666Y-145121333D01*
X167830047Y-145216571D01*
X167830047Y-145311809D01*
X168306238Y-145407047D01*
X167449095Y-145692761D02*
X167353857Y-145740380D01*
X167163380Y-145740380D01*
X167068142Y-145692761D01*
X167020523Y-145597523D01*
X167020523Y-145549904D01*
X167068142Y-145454666D01*
X167163380Y-145407047D01*
X167306238Y-145407047D01*
X167401476Y-145359428D01*
X167449095Y-145264190D01*
X167449095Y-145216571D01*
X167401476Y-145121333D01*
X167306238Y-145073714D01*
X167163380Y-145073714D01*
X167068142Y-145121333D01*
X166639571Y-145692761D02*
X166544333Y-145740380D01*
X166353857Y-145740380D01*
X166258619Y-145692761D01*
X166211000Y-145597523D01*
X166211000Y-145549904D01*
X166258619Y-145454666D01*
X166353857Y-145407047D01*
X166496714Y-145407047D01*
X166591952Y-145359428D01*
X166639571Y-145264190D01*
X166639571Y-145216571D01*
X166591952Y-145121333D01*
X166496714Y-145073714D01*
X166353857Y-145073714D01*
X166258619Y-145121333D01*
X165353857Y-145073714D02*
X165353857Y-145740380D01*
X165782428Y-145073714D02*
X165782428Y-145597523D01*
X165734809Y-145692761D01*
X165639571Y-145740380D01*
X165496714Y-145740380D01*
X165401476Y-145692761D01*
X165353857Y-145645142D01*
X164877666Y-145740380D02*
X164877666Y-145073714D01*
X164877666Y-145264190D02*
X164830047Y-145168952D01*
X164782428Y-145121333D01*
X164687190Y-145073714D01*
X164591952Y-145073714D01*
X163877666Y-145692761D02*
X163972904Y-145740380D01*
X164163380Y-145740380D01*
X164258619Y-145692761D01*
X164306238Y-145597523D01*
X164306238Y-145216571D01*
X164258619Y-145121333D01*
X164163380Y-145073714D01*
X163972904Y-145073714D01*
X163877666Y-145121333D01*
X163830047Y-145216571D01*
X163830047Y-145311809D01*
X164306238Y-145407047D01*
X162068142Y-145740380D02*
X162401476Y-145264190D01*
X162639571Y-145740380D02*
X162639571Y-144740380D01*
X162258619Y-144740380D01*
X162163380Y-144788000D01*
X162115761Y-144835619D01*
X162068142Y-144930857D01*
X162068142Y-145073714D01*
X162115761Y-145168952D01*
X162163380Y-145216571D01*
X162258619Y-145264190D01*
X162639571Y-145264190D01*
X161211000Y-145740380D02*
X161211000Y-145216571D01*
X161258619Y-145121333D01*
X161353857Y-145073714D01*
X161544333Y-145073714D01*
X161639571Y-145121333D01*
X161211000Y-145692761D02*
X161306238Y-145740380D01*
X161544333Y-145740380D01*
X161639571Y-145692761D01*
X161687190Y-145597523D01*
X161687190Y-145502285D01*
X161639571Y-145407047D01*
X161544333Y-145359428D01*
X161306238Y-145359428D01*
X161211000Y-145311809D01*
X160734809Y-145073714D02*
X160734809Y-145740380D01*
X160734809Y-145168952D02*
X160687190Y-145121333D01*
X160591952Y-145073714D01*
X160449095Y-145073714D01*
X160353857Y-145121333D01*
X160306238Y-145216571D01*
X160306238Y-145740380D01*
X159401476Y-145073714D02*
X159401476Y-145883238D01*
X159449095Y-145978476D01*
X159496714Y-146026095D01*
X159591952Y-146073714D01*
X159734809Y-146073714D01*
X159830047Y-146026095D01*
X159401476Y-145692761D02*
X159496714Y-145740380D01*
X159687190Y-145740380D01*
X159782428Y-145692761D01*
X159830047Y-145645142D01*
X159877666Y-145549904D01*
X159877666Y-145264190D01*
X159830047Y-145168952D01*
X159782428Y-145121333D01*
X159687190Y-145073714D01*
X159496714Y-145073714D01*
X159401476Y-145121333D01*
X158544333Y-145692761D02*
X158639571Y-145740380D01*
X158830047Y-145740380D01*
X158925285Y-145692761D01*
X158972904Y-145597523D01*
X158972904Y-145216571D01*
X158925285Y-145121333D01*
X158830047Y-145073714D01*
X158639571Y-145073714D01*
X158544333Y-145121333D01*
X158496714Y-145216571D01*
X158496714Y-145311809D01*
X158972904Y-145407047D01*
D11*
X201199571Y-89197571D02*
X201913857Y-89197571D01*
X201913857Y-87697571D01*
X200056714Y-89126142D02*
X200199571Y-89197571D01*
X200485285Y-89197571D01*
X200628142Y-89126142D01*
X200699571Y-89054714D01*
X200771000Y-88911857D01*
X200771000Y-88483285D01*
X200699571Y-88340428D01*
X200628142Y-88269000D01*
X200485285Y-88197571D01*
X200199571Y-88197571D01*
X200056714Y-88269000D01*
X198771000Y-89197571D02*
X198771000Y-87697571D01*
X198771000Y-89126142D02*
X198913857Y-89197571D01*
X199199571Y-89197571D01*
X199342428Y-89126142D01*
X199413857Y-89054714D01*
X199485285Y-88911857D01*
X199485285Y-88483285D01*
X199413857Y-88340428D01*
X199342428Y-88269000D01*
X199199571Y-88197571D01*
X198913857Y-88197571D01*
X198771000Y-88269000D01*
X139544000Y-187809142D02*
X139329714Y-187880571D01*
X138972571Y-187880571D01*
X138829714Y-187809142D01*
X138758285Y-187737714D01*
X138686857Y-187594857D01*
X138686857Y-187452000D01*
X138758285Y-187309142D01*
X138829714Y-187237714D01*
X138972571Y-187166285D01*
X139258285Y-187094857D01*
X139401142Y-187023428D01*
X139472571Y-186952000D01*
X139544000Y-186809142D01*
X139544000Y-186666285D01*
X139472571Y-186523428D01*
X139401142Y-186452000D01*
X139258285Y-186380571D01*
X138901142Y-186380571D01*
X138686857Y-186452000D01*
X137472571Y-187809142D02*
X137615428Y-187880571D01*
X137901142Y-187880571D01*
X138044000Y-187809142D01*
X138115428Y-187666285D01*
X138115428Y-187094857D01*
X138044000Y-186952000D01*
X137901142Y-186880571D01*
X137615428Y-186880571D01*
X137472571Y-186952000D01*
X137401142Y-187094857D01*
X137401142Y-187237714D01*
X138115428Y-187380571D01*
X136758285Y-186880571D02*
X136758285Y-187880571D01*
X136758285Y-187023428D02*
X136686857Y-186952000D01*
X136544000Y-186880571D01*
X136329714Y-186880571D01*
X136186857Y-186952000D01*
X136115428Y-187094857D01*
X136115428Y-187880571D01*
X135472571Y-187809142D02*
X135329714Y-187880571D01*
X135044000Y-187880571D01*
X134901142Y-187809142D01*
X134829714Y-187666285D01*
X134829714Y-187594857D01*
X134901142Y-187452000D01*
X135044000Y-187380571D01*
X135258285Y-187380571D01*
X135401142Y-187309142D01*
X135472571Y-187166285D01*
X135472571Y-187094857D01*
X135401142Y-186952000D01*
X135258285Y-186880571D01*
X135044000Y-186880571D01*
X134901142Y-186952000D01*
X133972571Y-187880571D02*
X134115428Y-187809142D01*
X134186857Y-187737714D01*
X134258285Y-187594857D01*
X134258285Y-187166285D01*
X134186857Y-187023428D01*
X134115428Y-186952000D01*
X133972571Y-186880571D01*
X133758285Y-186880571D01*
X133615428Y-186952000D01*
X133544000Y-187023428D01*
X133472571Y-187166285D01*
X133472571Y-187594857D01*
X133544000Y-187737714D01*
X133615428Y-187809142D01*
X133758285Y-187880571D01*
X133972571Y-187880571D01*
X132829714Y-187880571D02*
X132829714Y-186880571D01*
X132829714Y-187166285D02*
X132758285Y-187023428D01*
X132686857Y-186952000D01*
X132544000Y-186880571D01*
X132401142Y-186880571D01*
X144016857Y-163699000D02*
X143302571Y-163699000D01*
X144159714Y-164127571D02*
X143659714Y-162627571D01*
X143159714Y-164127571D01*
X142445428Y-164127571D02*
X142588285Y-164056142D01*
X142659714Y-163913285D01*
X142659714Y-162627571D01*
X141231142Y-164127571D02*
X141231142Y-163341857D01*
X141302571Y-163199000D01*
X141445428Y-163127571D01*
X141731142Y-163127571D01*
X141874000Y-163199000D01*
X141231142Y-164056142D02*
X141374000Y-164127571D01*
X141731142Y-164127571D01*
X141874000Y-164056142D01*
X141945428Y-163913285D01*
X141945428Y-163770428D01*
X141874000Y-163627571D01*
X141731142Y-163556142D01*
X141374000Y-163556142D01*
X141231142Y-163484714D01*
X140516857Y-164127571D02*
X140516857Y-163127571D01*
X140516857Y-163413285D02*
X140445428Y-163270428D01*
X140374000Y-163199000D01*
X140231142Y-163127571D01*
X140088285Y-163127571D01*
X139588285Y-164127571D02*
X139588285Y-163127571D01*
X139588285Y-163270428D02*
X139516857Y-163199000D01*
X139374000Y-163127571D01*
X139159714Y-163127571D01*
X139016857Y-163199000D01*
X138945428Y-163341857D01*
X138945428Y-164127571D01*
X138945428Y-163341857D02*
X138874000Y-163199000D01*
X138731142Y-163127571D01*
X138516857Y-163127571D01*
X138374000Y-163199000D01*
X138302571Y-163341857D01*
X138302571Y-164127571D01*
X143712000Y-141450142D02*
X143497714Y-141521571D01*
X143140571Y-141521571D01*
X142997714Y-141450142D01*
X142926285Y-141378714D01*
X142854857Y-141235857D01*
X142854857Y-141093000D01*
X142926285Y-140950142D01*
X142997714Y-140878714D01*
X143140571Y-140807285D01*
X143426285Y-140735857D01*
X143569142Y-140664428D01*
X143640571Y-140593000D01*
X143712000Y-140450142D01*
X143712000Y-140307285D01*
X143640571Y-140164428D01*
X143569142Y-140093000D01*
X143426285Y-140021571D01*
X143069142Y-140021571D01*
X142854857Y-140093000D01*
X142426285Y-140521571D02*
X141854857Y-140521571D01*
X142212000Y-140021571D02*
X142212000Y-141307285D01*
X142140571Y-141450142D01*
X141997714Y-141521571D01*
X141854857Y-141521571D01*
X140712000Y-141521571D02*
X140712000Y-140735857D01*
X140783428Y-140593000D01*
X140926285Y-140521571D01*
X141212000Y-140521571D01*
X141354857Y-140593000D01*
X140712000Y-141450142D02*
X140854857Y-141521571D01*
X141212000Y-141521571D01*
X141354857Y-141450142D01*
X141426285Y-141307285D01*
X141426285Y-141164428D01*
X141354857Y-141021571D01*
X141212000Y-140950142D01*
X140854857Y-140950142D01*
X140712000Y-140878714D01*
X140212000Y-140521571D02*
X139640571Y-140521571D01*
X139997714Y-140021571D02*
X139997714Y-141307285D01*
X139926285Y-141450142D01*
X139783428Y-141521571D01*
X139640571Y-141521571D01*
X138497714Y-140521571D02*
X138497714Y-141521571D01*
X139140571Y-140521571D02*
X139140571Y-141307285D01*
X139069142Y-141450142D01*
X138926285Y-141521571D01*
X138712000Y-141521571D01*
X138569142Y-141450142D01*
X138497714Y-141378714D01*
X137854857Y-141450142D02*
X137712000Y-141521571D01*
X137426285Y-141521571D01*
X137283428Y-141450142D01*
X137212000Y-141307285D01*
X137212000Y-141235857D01*
X137283428Y-141093000D01*
X137426285Y-141021571D01*
X137640571Y-141021571D01*
X137783428Y-140950142D01*
X137854857Y-140807285D01*
X137854857Y-140735857D01*
X137783428Y-140593000D01*
X137640571Y-140521571D01*
X137426285Y-140521571D01*
X137283428Y-140593000D01*
X146251714Y-117193142D02*
X146037428Y-117264571D01*
X145680285Y-117264571D01*
X145537428Y-117193142D01*
X145466000Y-117121714D01*
X145394571Y-116978857D01*
X145394571Y-116836000D01*
X145466000Y-116693142D01*
X145537428Y-116621714D01*
X145680285Y-116550285D01*
X145966000Y-116478857D01*
X146108857Y-116407428D01*
X146180285Y-116336000D01*
X146251714Y-116193142D01*
X146251714Y-116050285D01*
X146180285Y-115907428D01*
X146108857Y-115836000D01*
X145966000Y-115764571D01*
X145608857Y-115764571D01*
X145394571Y-115836000D01*
X144966000Y-116264571D02*
X144394571Y-116264571D01*
X144751714Y-115764571D02*
X144751714Y-117050285D01*
X144680285Y-117193142D01*
X144537428Y-117264571D01*
X144394571Y-117264571D01*
X143251714Y-117264571D02*
X143251714Y-116478857D01*
X143323142Y-116336000D01*
X143466000Y-116264571D01*
X143751714Y-116264571D01*
X143894571Y-116336000D01*
X143251714Y-117193142D02*
X143394571Y-117264571D01*
X143751714Y-117264571D01*
X143894571Y-117193142D01*
X143966000Y-117050285D01*
X143966000Y-116907428D01*
X143894571Y-116764571D01*
X143751714Y-116693142D01*
X143394571Y-116693142D01*
X143251714Y-116621714D01*
X142537428Y-117264571D02*
X142537428Y-116264571D01*
X142537428Y-116550285D02*
X142466000Y-116407428D01*
X142394571Y-116336000D01*
X142251714Y-116264571D01*
X142108857Y-116264571D01*
X141823142Y-116264571D02*
X141251714Y-116264571D01*
X141608857Y-115764571D02*
X141608857Y-117050285D01*
X141537428Y-117193142D01*
X141394571Y-117264571D01*
X141251714Y-117264571D01*
X139608857Y-117264571D02*
X139608857Y-115764571D01*
X139608857Y-116478857D02*
X138751714Y-116478857D01*
X138751714Y-117264571D02*
X138751714Y-115764571D01*
X137823142Y-117264571D02*
X137966000Y-117193142D01*
X138037428Y-117121714D01*
X138108857Y-116978857D01*
X138108857Y-116550285D01*
X138037428Y-116407428D01*
X137966000Y-116336000D01*
X137823142Y-116264571D01*
X137608857Y-116264571D01*
X137466000Y-116336000D01*
X137394571Y-116407428D01*
X137323142Y-116550285D01*
X137323142Y-116978857D01*
X137394571Y-117121714D01*
X137466000Y-117193142D01*
X137608857Y-117264571D01*
X137823142Y-117264571D01*
X136466000Y-117264571D02*
X136608857Y-117193142D01*
X136680285Y-117050285D01*
X136680285Y-115764571D01*
X135251714Y-117264571D02*
X135251714Y-115764571D01*
X135251714Y-117193142D02*
X135394571Y-117264571D01*
X135680285Y-117264571D01*
X135823142Y-117193142D01*
X135894571Y-117121714D01*
X135966000Y-116978857D01*
X135966000Y-116550285D01*
X135894571Y-116407428D01*
X135823142Y-116336000D01*
X135680285Y-116264571D01*
X135394571Y-116264571D01*
X135251714Y-116336000D01*
X142977142Y-89475571D02*
X142120000Y-89475571D01*
X142548571Y-90975571D02*
X142548571Y-89475571D01*
X141048571Y-90904142D02*
X141191428Y-90975571D01*
X141477142Y-90975571D01*
X141620000Y-90904142D01*
X141691428Y-90761285D01*
X141691428Y-90189857D01*
X141620000Y-90047000D01*
X141477142Y-89975571D01*
X141191428Y-89975571D01*
X141048571Y-90047000D01*
X140977142Y-90189857D01*
X140977142Y-90332714D01*
X141691428Y-90475571D01*
X140405714Y-90904142D02*
X140262857Y-90975571D01*
X139977142Y-90975571D01*
X139834285Y-90904142D01*
X139762857Y-90761285D01*
X139762857Y-90689857D01*
X139834285Y-90547000D01*
X139977142Y-90475571D01*
X140191428Y-90475571D01*
X140334285Y-90404142D01*
X140405714Y-90261285D01*
X140405714Y-90189857D01*
X140334285Y-90047000D01*
X140191428Y-89975571D01*
X139977142Y-89975571D01*
X139834285Y-90047000D01*
X139334285Y-89975571D02*
X138762857Y-89975571D01*
X139120000Y-89475571D02*
X139120000Y-90761285D01*
X139048571Y-90904142D01*
X138905714Y-90975571D01*
X138762857Y-90975571D01*
D12*
X240568001Y-79263473D02*
X240568001Y-104263473D01*
X167568001Y-104263473D02*
X167568001Y-79263473D01*
X138468001Y-179734992D02*
G75*
G03X138468001Y-179734992I-1900000J0D01*
G01*
X167568001Y-79263473D02*
X240568001Y-79263473D01*
X240568001Y-104263473D02*
X167568001Y-104263473D01*
X122168001Y-82263473D02*
G75*
G03X122168001Y-82263473I-1600000J0D01*
G01*
D13*
X137992500Y-145351000D02*
X137992500Y-144886000D01*
X137992500Y-147976000D02*
X137992500Y-147511000D01*
X142806979Y-145350571D02*
G75*
G03X138297816Y-145351000I-2254479J-1080429D01*
G01*
X142806979Y-147511429D02*
G75*
G02X138297816Y-147511000I-2254479J1080429D01*
G01*
X143340315Y-145350173D02*
G75*
G03X137992500Y-144886170I-2787815J-1080827D01*
G01*
X143340315Y-147511827D02*
G75*
G02X137992500Y-147975830I-2787815J1080827D01*
G01*
X234750000Y-115481000D02*
X234750000Y-126221000D01*
X252890000Y-115481000D02*
X252890000Y-126221000D01*
X234750000Y-115481000D02*
X252890000Y-115481000D01*
X234750000Y-126221000D02*
X252890000Y-126221000D01*
X240200000Y-126221000D02*
X247440000Y-126221000D01*
X194872000Y-115481000D02*
X194872000Y-126221000D01*
X213012000Y-115481000D02*
X213012000Y-126221000D01*
X194872000Y-115481000D02*
X213012000Y-115481000D01*
X194872000Y-126221000D02*
X213012000Y-126221000D01*
X200322000Y-126221000D02*
X207562000Y-126221000D01*
X154994000Y-115481000D02*
X154994000Y-126221000D01*
X173134000Y-115481000D02*
X173134000Y-126221000D01*
X154994000Y-115481000D02*
X173134000Y-115481000D01*
X154994000Y-126221000D02*
X173134000Y-126221000D01*
X160444000Y-126221000D02*
X167684000Y-126221000D01*
D14*
X134576000Y-170855000D02*
X134576000Y-170855000D01*
X146576000Y-170855000D02*
X146576000Y-170855000D01*
X146576000Y-170855000D02*
G75*
G03X134576000Y-170855000I-6000000J0D01*
G01*
X134576000Y-170855000D02*
G75*
G03X146576000Y-170855000I6000000J0D01*
G01*
X135084000Y-82463000D02*
X135084000Y-82463000D01*
X147084000Y-82463000D02*
X147084000Y-82463000D01*
X147084000Y-82463000D02*
G75*
G03X135084000Y-82463000I-6000000J0D01*
G01*
X135084000Y-82463000D02*
G75*
G03X147084000Y-82463000I6000000J0D01*
G01*
D13*
X189326000Y-171831462D02*
G75*
G03X183776000Y-170286170I-2990000J462D01*
G01*
X189326000Y-171830538D02*
G75*
G02X183776000Y-173375830I-2990000J-462D01*
G01*
X188836000Y-171831000D02*
G75*
G03X188836000Y-171831000I-2500000J0D01*
G01*
X183776000Y-173376000D02*
X183776000Y-170286000D01*
X167112000Y-79315000D02*
X167112000Y-104315000D01*
X240112000Y-79315000D02*
X167112000Y-79315000D01*
X240112000Y-104315000D02*
X240112000Y-79315000D01*
X167112000Y-104315000D02*
X240112000Y-104315000D01*
X172312660Y-99316540D02*
G75*
G02X171812280Y-98816160I0J500380D01*
G01*
X171812280Y-84815680D02*
G75*
G02X172312660Y-84315300I500380J0D01*
G01*
X235812660Y-84315300D02*
G75*
G02X236313040Y-84815680I0J-500380D01*
G01*
X236312000Y-98815000D02*
G75*
G02X235812000Y-99315000I-500000J0D01*
G01*
X236312000Y-98815000D02*
X236312000Y-84815000D01*
X235812660Y-84315000D02*
X172312000Y-84315000D01*
X171812280Y-84815680D02*
X171812280Y-98815000D01*
X172312000Y-99315000D02*
X235812000Y-99315000D01*
X170612000Y-110315000D02*
X173612000Y-110315000D01*
X163982000Y-109955000D02*
X164772000Y-109955000D01*
X163972000Y-109955000D02*
X163972000Y-73675000D01*
X244252000Y-109955000D02*
X164772000Y-109955000D01*
X244252000Y-73675000D02*
X244252000Y-109955000D01*
X163972000Y-73675000D02*
X244252000Y-73675000D01*
X136766000Y-122757000D02*
X144487600Y-122757000D01*
X144476800Y-119435880D02*
X136755200Y-119435880D01*
X136755200Y-119435880D02*
X136746000Y-122787000D01*
X144476800Y-119435880D02*
X144476000Y-122737000D01*
D10*
X141671547Y-150843380D02*
X142147738Y-150843380D01*
X142147738Y-149843380D01*
X141338214Y-150319571D02*
X141004880Y-150319571D01*
X140862023Y-150843380D02*
X141338214Y-150843380D01*
X141338214Y-149843380D01*
X140862023Y-149843380D01*
X140433452Y-150843380D02*
X140433452Y-149843380D01*
X140195357Y-149843380D01*
X140052500Y-149891000D01*
X139957261Y-149986238D01*
X139909642Y-150081476D01*
X139862023Y-150271952D01*
X139862023Y-150414809D01*
X139909642Y-150605285D01*
X139957261Y-150700523D01*
X140052500Y-150795761D01*
X140195357Y-150843380D01*
X140433452Y-150843380D01*
X138909642Y-150843380D02*
X139481071Y-150843380D01*
X139195357Y-150843380D02*
X139195357Y-149843380D01*
X139290595Y-149986238D01*
X139385833Y-150081476D01*
X139481071Y-150129095D01*
X234072380Y-121705761D02*
X233596190Y-121372428D01*
X234072380Y-121134333D02*
X233072380Y-121134333D01*
X233072380Y-121515285D01*
X233120000Y-121610523D01*
X233167619Y-121658142D01*
X233262857Y-121705761D01*
X233405714Y-121705761D01*
X233500952Y-121658142D01*
X233548571Y-121610523D01*
X233596190Y-121515285D01*
X233596190Y-121134333D01*
X233072380Y-121991476D02*
X234072380Y-122324809D01*
X233072380Y-122658142D01*
X233072380Y-122896238D02*
X233072380Y-123515285D01*
X233453333Y-123181952D01*
X233453333Y-123324809D01*
X233500952Y-123420047D01*
X233548571Y-123467666D01*
X233643809Y-123515285D01*
X233881904Y-123515285D01*
X233977142Y-123467666D01*
X234024761Y-123420047D01*
X234072380Y-123324809D01*
X234072380Y-123039095D01*
X234024761Y-122943857D01*
X233977142Y-122896238D01*
X194194380Y-121705761D02*
X193718190Y-121372428D01*
X194194380Y-121134333D02*
X193194380Y-121134333D01*
X193194380Y-121515285D01*
X193242000Y-121610523D01*
X193289619Y-121658142D01*
X193384857Y-121705761D01*
X193527714Y-121705761D01*
X193622952Y-121658142D01*
X193670571Y-121610523D01*
X193718190Y-121515285D01*
X193718190Y-121134333D01*
X193194380Y-121991476D02*
X194194380Y-122324809D01*
X193194380Y-122658142D01*
X193289619Y-122943857D02*
X193242000Y-122991476D01*
X193194380Y-123086714D01*
X193194380Y-123324809D01*
X193242000Y-123420047D01*
X193289619Y-123467666D01*
X193384857Y-123515285D01*
X193480095Y-123515285D01*
X193622952Y-123467666D01*
X194194380Y-122896238D01*
X194194380Y-123515285D01*
X154316380Y-121705761D02*
X153840190Y-121372428D01*
X154316380Y-121134333D02*
X153316380Y-121134333D01*
X153316380Y-121515285D01*
X153364000Y-121610523D01*
X153411619Y-121658142D01*
X153506857Y-121705761D01*
X153649714Y-121705761D01*
X153744952Y-121658142D01*
X153792571Y-121610523D01*
X153840190Y-121515285D01*
X153840190Y-121134333D01*
X153316380Y-121991476D02*
X154316380Y-122324809D01*
X153316380Y-122658142D01*
X154316380Y-123515285D02*
X154316380Y-122943857D01*
X154316380Y-123229571D02*
X153316380Y-123229571D01*
X153459238Y-123134333D01*
X153554476Y-123039095D01*
X153602095Y-122943857D01*
D15*
X142269333Y-171369047D02*
X142087904Y-171429523D01*
X141785523Y-171429523D01*
X141664571Y-171369047D01*
X141604095Y-171308571D01*
X141543619Y-171187619D01*
X141543619Y-171066666D01*
X141604095Y-170945714D01*
X141664571Y-170885238D01*
X141785523Y-170824761D01*
X142027428Y-170764285D01*
X142148380Y-170703809D01*
X142208857Y-170643333D01*
X142269333Y-170522380D01*
X142269333Y-170401428D01*
X142208857Y-170280476D01*
X142148380Y-170220000D01*
X142027428Y-170159523D01*
X141725047Y-170159523D01*
X141543619Y-170220000D01*
X141120285Y-170159523D02*
X140817904Y-171429523D01*
X140576000Y-170522380D01*
X140334095Y-171429523D01*
X140031714Y-170159523D01*
X139668857Y-170159523D02*
X138882666Y-170159523D01*
X139306000Y-170643333D01*
X139124571Y-170643333D01*
X139003619Y-170703809D01*
X138943142Y-170764285D01*
X138882666Y-170885238D01*
X138882666Y-171187619D01*
X138943142Y-171308571D01*
X139003619Y-171369047D01*
X139124571Y-171429523D01*
X139487428Y-171429523D01*
X139608380Y-171369047D01*
X139668857Y-171308571D01*
X142777333Y-82977047D02*
X142595904Y-83037523D01*
X142293523Y-83037523D01*
X142172571Y-82977047D01*
X142112095Y-82916571D01*
X142051619Y-82795619D01*
X142051619Y-82674666D01*
X142112095Y-82553714D01*
X142172571Y-82493238D01*
X142293523Y-82432761D01*
X142535428Y-82372285D01*
X142656380Y-82311809D01*
X142716857Y-82251333D01*
X142777333Y-82130380D01*
X142777333Y-82009428D01*
X142716857Y-81888476D01*
X142656380Y-81828000D01*
X142535428Y-81767523D01*
X142233047Y-81767523D01*
X142051619Y-81828000D01*
X141628285Y-81767523D02*
X141325904Y-83037523D01*
X141084000Y-82130380D01*
X140842095Y-83037523D01*
X140539714Y-81767523D01*
X139390666Y-83037523D02*
X140116380Y-83037523D01*
X139753523Y-83037523D02*
X139753523Y-81767523D01*
X139874476Y-81948952D01*
X139995428Y-82069904D01*
X140116380Y-82130380D01*
D10*
X187455047Y-176243380D02*
X187931238Y-176243380D01*
X187931238Y-175243380D01*
X187121714Y-175719571D02*
X186788380Y-175719571D01*
X186645523Y-176243380D02*
X187121714Y-176243380D01*
X187121714Y-175243380D01*
X186645523Y-175243380D01*
X186216952Y-176243380D02*
X186216952Y-175243380D01*
X185978857Y-175243380D01*
X185836000Y-175291000D01*
X185740761Y-175386238D01*
X185693142Y-175481476D01*
X185645523Y-175671952D01*
X185645523Y-175814809D01*
X185693142Y-176005285D01*
X185740761Y-176100523D01*
X185836000Y-176195761D01*
X185978857Y-176243380D01*
X186216952Y-176243380D01*
X185264571Y-175338619D02*
X185216952Y-175291000D01*
X185121714Y-175243380D01*
X184883619Y-175243380D01*
X184788380Y-175291000D01*
X184740761Y-175338619D01*
X184693142Y-175433857D01*
X184693142Y-175529095D01*
X184740761Y-175671952D01*
X185312190Y-176243380D01*
X184693142Y-176243380D01*
X167053904Y-110577380D02*
X167053904Y-111386904D01*
X167006285Y-111482142D01*
X166958666Y-111529761D01*
X166863428Y-111577380D01*
X166672952Y-111577380D01*
X166577714Y-111529761D01*
X166530095Y-111482142D01*
X166482476Y-111386904D01*
X166482476Y-110577380D01*
X165482476Y-111577380D02*
X166053904Y-111577380D01*
X165768190Y-111577380D02*
X165768190Y-110577380D01*
X165863428Y-110720238D01*
X165958666Y-110815476D01*
X166053904Y-110863095D01*
X136280761Y-120713666D02*
X136328380Y-120856523D01*
X136328380Y-121094619D01*
X136280761Y-121189857D01*
X136233142Y-121237476D01*
X136137904Y-121285095D01*
X136042666Y-121285095D01*
X135947428Y-121237476D01*
X135899809Y-121189857D01*
X135852190Y-121094619D01*
X135804571Y-120904142D01*
X135756952Y-120808904D01*
X135709333Y-120761285D01*
X135614095Y-120713666D01*
X135518857Y-120713666D01*
X135423619Y-120761285D01*
X135376000Y-120808904D01*
X135328380Y-120904142D01*
X135328380Y-121142238D01*
X135376000Y-121285095D01*
X135328380Y-121618428D02*
X136328380Y-121856523D01*
X135614095Y-122047000D01*
X136328380Y-122237476D01*
X135328380Y-122475571D01*
X135423619Y-122808904D02*
X135376000Y-122856523D01*
X135328380Y-122951761D01*
X135328380Y-123189857D01*
X135376000Y-123285095D01*
X135423619Y-123332714D01*
X135518857Y-123380333D01*
X135614095Y-123380333D01*
X135756952Y-123332714D01*
X136328380Y-122761285D01*
X136328380Y-123380333D01*
X137313904Y-79455380D02*
X137313904Y-78455380D01*
X137313904Y-78931571D02*
X136742476Y-78931571D01*
X136742476Y-79455380D02*
X136742476Y-78455380D01*
X136361523Y-78455380D02*
X135742476Y-78455380D01*
X136075809Y-78836333D01*
X135932952Y-78836333D01*
X135837714Y-78883952D01*
X135790095Y-78931571D01*
X135742476Y-79026809D01*
X135742476Y-79264904D01*
X135790095Y-79360142D01*
X135837714Y-79407761D01*
X135932952Y-79455380D01*
X136218666Y-79455380D01*
X136313904Y-79407761D01*
X136361523Y-79360142D01*
X279045904Y-184357380D02*
X279045904Y-183357380D01*
X279045904Y-183833571D02*
X278474476Y-183833571D01*
X278474476Y-184357380D02*
X278474476Y-183357380D01*
X278045904Y-183452619D02*
X277998285Y-183405000D01*
X277903047Y-183357380D01*
X277664952Y-183357380D01*
X277569714Y-183405000D01*
X277522095Y-183452619D01*
X277474476Y-183547857D01*
X277474476Y-183643095D01*
X277522095Y-183785952D01*
X278093523Y-184357380D01*
X277474476Y-184357380D01*
X279045904Y-79455380D02*
X279045904Y-78455380D01*
X279045904Y-78931571D02*
X278474476Y-78931571D01*
X278474476Y-79455380D02*
X278474476Y-78455380D01*
X277474476Y-79455380D02*
X278045904Y-79455380D01*
X277760190Y-79455380D02*
X277760190Y-78455380D01*
X277855428Y-78598238D01*
X277950666Y-78693476D01*
X278045904Y-78741095D01*
M02*
