G04 #@! TF.GenerationSoftware,KiCad,Pcbnew,(5.1.5)-3*
G04 #@! TF.CreationDate,2020-05-04T10:21:06+03:00*
G04 #@! TF.ProjectId,respirator-control_rev2,72657370-6972-4617-946f-722d636f6e74,rev?*
G04 #@! TF.SameCoordinates,Original*
G04 #@! TF.FileFunction,Soldermask,Bot*
G04 #@! TF.FilePolarity,Negative*
%FSLAX46Y46*%
G04 Gerber Fmt 4.6, Leading zero omitted, Abs format (unit mm)*
G04 Created by KiCad (PCBNEW (5.1.5)-3) date 2020-05-04 10:21:06*
%MOMM*%
%LPD*%
G04 APERTURE LIST*
%ADD10C,0.100000*%
G04 APERTURE END LIST*
D10*
G36*
X230330564Y-209682389D02*
G01*
X230521833Y-209761615D01*
X230521835Y-209761616D01*
X230644121Y-209843325D01*
X230693973Y-209876635D01*
X230840365Y-210023027D01*
X230955385Y-210195167D01*
X231034611Y-210386436D01*
X231075000Y-210589484D01*
X231075000Y-210796516D01*
X231034611Y-210999564D01*
X230977898Y-211136482D01*
X230955384Y-211190835D01*
X230840365Y-211362973D01*
X230693973Y-211509365D01*
X230521835Y-211624384D01*
X230521834Y-211624385D01*
X230521833Y-211624385D01*
X230330564Y-211703611D01*
X230127516Y-211744000D01*
X229920484Y-211744000D01*
X229717436Y-211703611D01*
X229526167Y-211624385D01*
X229526166Y-211624385D01*
X229526165Y-211624384D01*
X229354027Y-211509365D01*
X229207635Y-211362973D01*
X229092616Y-211190835D01*
X229070102Y-211136482D01*
X229013389Y-210999564D01*
X228973000Y-210796516D01*
X228973000Y-210589484D01*
X229013389Y-210386436D01*
X229092615Y-210195167D01*
X229207635Y-210023027D01*
X229354027Y-209876635D01*
X229403879Y-209843325D01*
X229526165Y-209761616D01*
X229526167Y-209761615D01*
X229717436Y-209682389D01*
X229920484Y-209642000D01*
X230127516Y-209642000D01*
X230330564Y-209682389D01*
G37*
G36*
X166497812Y-209813627D02*
G01*
X166647112Y-209843324D01*
X166811084Y-209911244D01*
X166958654Y-210009847D01*
X167084153Y-210135346D01*
X167182756Y-210282916D01*
X167250676Y-210446888D01*
X167285300Y-210620959D01*
X167285300Y-210798441D01*
X167250676Y-210972512D01*
X167182756Y-211136484D01*
X167084153Y-211284054D01*
X166958654Y-211409553D01*
X166811084Y-211508156D01*
X166647112Y-211576076D01*
X166497812Y-211605773D01*
X166473042Y-211610700D01*
X166295558Y-211610700D01*
X166270788Y-211605773D01*
X166121488Y-211576076D01*
X165957516Y-211508156D01*
X165809946Y-211409553D01*
X165684447Y-211284054D01*
X165585844Y-211136484D01*
X165517924Y-210972512D01*
X165483300Y-210798441D01*
X165483300Y-210620959D01*
X165517924Y-210446888D01*
X165585844Y-210282916D01*
X165684447Y-210135346D01*
X165809946Y-210009847D01*
X165957516Y-209911244D01*
X166121488Y-209843324D01*
X166270788Y-209813627D01*
X166295558Y-209808700D01*
X166473042Y-209808700D01*
X166497812Y-209813627D01*
G37*
G36*
X162205300Y-211610700D02*
G01*
X160403300Y-211610700D01*
X160403300Y-209808700D01*
X162205300Y-209808700D01*
X162205300Y-211610700D01*
G37*
G36*
X163957812Y-209813627D02*
G01*
X164107112Y-209843324D01*
X164271084Y-209911244D01*
X164418654Y-210009847D01*
X164544153Y-210135346D01*
X164642756Y-210282916D01*
X164710676Y-210446888D01*
X164745300Y-210620959D01*
X164745300Y-210798441D01*
X164710676Y-210972512D01*
X164642756Y-211136484D01*
X164544153Y-211284054D01*
X164418654Y-211409553D01*
X164271084Y-211508156D01*
X164107112Y-211576076D01*
X163957812Y-211605773D01*
X163933042Y-211610700D01*
X163755558Y-211610700D01*
X163730788Y-211605773D01*
X163581488Y-211576076D01*
X163417516Y-211508156D01*
X163269946Y-211409553D01*
X163144447Y-211284054D01*
X163045844Y-211136484D01*
X162977924Y-210972512D01*
X162943300Y-210798441D01*
X162943300Y-210620959D01*
X162977924Y-210446888D01*
X163045844Y-210282916D01*
X163144447Y-210135346D01*
X163269946Y-210009847D01*
X163417516Y-209911244D01*
X163581488Y-209843324D01*
X163730788Y-209813627D01*
X163755558Y-209808700D01*
X163933042Y-209808700D01*
X163957812Y-209813627D01*
G37*
G36*
X242464228Y-208350703D02*
G01*
X242619100Y-208414853D01*
X242758481Y-208507985D01*
X242877015Y-208626519D01*
X242970147Y-208765900D01*
X243034297Y-208920772D01*
X243067000Y-209085184D01*
X243067000Y-209252816D01*
X243034297Y-209417228D01*
X242970147Y-209572100D01*
X242877015Y-209711481D01*
X242758481Y-209830015D01*
X242619100Y-209923147D01*
X242464228Y-209987297D01*
X242299816Y-210020000D01*
X242132184Y-210020000D01*
X241967772Y-209987297D01*
X241812900Y-209923147D01*
X241673519Y-209830015D01*
X241554985Y-209711481D01*
X241461853Y-209572100D01*
X241397703Y-209417228D01*
X241365000Y-209252816D01*
X241365000Y-209085184D01*
X241397703Y-208920772D01*
X241461853Y-208765900D01*
X241554985Y-208626519D01*
X241673519Y-208507985D01*
X241812900Y-208414853D01*
X241967772Y-208350703D01*
X242132184Y-208318000D01*
X242299816Y-208318000D01*
X242464228Y-208350703D01*
G37*
G36*
X234844228Y-208350703D02*
G01*
X234999100Y-208414853D01*
X235138481Y-208507985D01*
X235257015Y-208626519D01*
X235350147Y-208765900D01*
X235414297Y-208920772D01*
X235447000Y-209085184D01*
X235447000Y-209252816D01*
X235414297Y-209417228D01*
X235350147Y-209572100D01*
X235257015Y-209711481D01*
X235138481Y-209830015D01*
X234999100Y-209923147D01*
X234844228Y-209987297D01*
X234679816Y-210020000D01*
X234512184Y-210020000D01*
X234347772Y-209987297D01*
X234192900Y-209923147D01*
X234053519Y-209830015D01*
X233934985Y-209711481D01*
X233841853Y-209572100D01*
X233777703Y-209417228D01*
X233745000Y-209252816D01*
X233745000Y-209085184D01*
X233777703Y-208920772D01*
X233841853Y-208765900D01*
X233934985Y-208626519D01*
X234053519Y-208507985D01*
X234192900Y-208414853D01*
X234347772Y-208350703D01*
X234512184Y-208318000D01*
X234679816Y-208318000D01*
X234844228Y-208350703D01*
G37*
G36*
X149385928Y-206221103D02*
G01*
X149540800Y-206285253D01*
X149680181Y-206378385D01*
X149798715Y-206496919D01*
X149891847Y-206636300D01*
X149955997Y-206791172D01*
X149988700Y-206955584D01*
X149988700Y-207123216D01*
X149955997Y-207287628D01*
X149891847Y-207442500D01*
X149798715Y-207581881D01*
X149680181Y-207700415D01*
X149540800Y-207793547D01*
X149385928Y-207857697D01*
X149221516Y-207890400D01*
X149053884Y-207890400D01*
X148889472Y-207857697D01*
X148734600Y-207793547D01*
X148595219Y-207700415D01*
X148476685Y-207581881D01*
X148383553Y-207442500D01*
X148319403Y-207287628D01*
X148286700Y-207123216D01*
X148286700Y-206955584D01*
X148319403Y-206791172D01*
X148383553Y-206636300D01*
X148476685Y-206496919D01*
X148595219Y-206378385D01*
X148734600Y-206285253D01*
X148889472Y-206221103D01*
X149053884Y-206188400D01*
X149221516Y-206188400D01*
X149385928Y-206221103D01*
G37*
G36*
X157005928Y-206221103D02*
G01*
X157160800Y-206285253D01*
X157300181Y-206378385D01*
X157418715Y-206496919D01*
X157511847Y-206636300D01*
X157575997Y-206791172D01*
X157608700Y-206955584D01*
X157608700Y-207123216D01*
X157575997Y-207287628D01*
X157511847Y-207442500D01*
X157418715Y-207581881D01*
X157300181Y-207700415D01*
X157160800Y-207793547D01*
X157005928Y-207857697D01*
X156841516Y-207890400D01*
X156673884Y-207890400D01*
X156509472Y-207857697D01*
X156354600Y-207793547D01*
X156215219Y-207700415D01*
X156096685Y-207581881D01*
X156003553Y-207442500D01*
X155939403Y-207287628D01*
X155906700Y-207123216D01*
X155906700Y-206955584D01*
X155939403Y-206791172D01*
X156003553Y-206636300D01*
X156096685Y-206496919D01*
X156215219Y-206378385D01*
X156354600Y-206285253D01*
X156509472Y-206221103D01*
X156673884Y-206188400D01*
X156841516Y-206188400D01*
X157005928Y-206221103D01*
G37*
G36*
X254516000Y-206737000D02*
G01*
X252014000Y-206737000D01*
X252014000Y-204235000D01*
X254516000Y-204235000D01*
X254516000Y-206737000D01*
G37*
G36*
X248509795Y-204259184D02*
G01*
X248629903Y-204283075D01*
X248857571Y-204377378D01*
X249062466Y-204514285D01*
X249236715Y-204688534D01*
X249373622Y-204893429D01*
X249467925Y-205121097D01*
X249516000Y-205362787D01*
X249516000Y-205609213D01*
X249467925Y-205850903D01*
X249373622Y-206078571D01*
X249236715Y-206283466D01*
X249062466Y-206457715D01*
X248857571Y-206594622D01*
X248857570Y-206594623D01*
X248857569Y-206594623D01*
X248629903Y-206688925D01*
X248388214Y-206737000D01*
X248141786Y-206737000D01*
X247900097Y-206688925D01*
X247672431Y-206594623D01*
X247672430Y-206594623D01*
X247672429Y-206594622D01*
X247467534Y-206457715D01*
X247293285Y-206283466D01*
X247156378Y-206078571D01*
X247062075Y-205850903D01*
X247014000Y-205609213D01*
X247014000Y-205362787D01*
X247062075Y-205121097D01*
X247156378Y-204893429D01*
X247293285Y-204688534D01*
X247467534Y-204514285D01*
X247672429Y-204377378D01*
X247900097Y-204283075D01*
X248020205Y-204259184D01*
X248141786Y-204235000D01*
X248388214Y-204235000D01*
X248509795Y-204259184D01*
G37*
G36*
X242210228Y-203524703D02*
G01*
X242365100Y-203588853D01*
X242504481Y-203681985D01*
X242623015Y-203800519D01*
X242716147Y-203939900D01*
X242780297Y-204094772D01*
X242813000Y-204259184D01*
X242813000Y-204426816D01*
X242780297Y-204591228D01*
X242716147Y-204746100D01*
X242623015Y-204885481D01*
X242504481Y-205004015D01*
X242365100Y-205097147D01*
X242210228Y-205161297D01*
X242045816Y-205194000D01*
X241878184Y-205194000D01*
X241713772Y-205161297D01*
X241558900Y-205097147D01*
X241419519Y-205004015D01*
X241300985Y-204885481D01*
X241207853Y-204746100D01*
X241143703Y-204591228D01*
X241111000Y-204426816D01*
X241111000Y-204259184D01*
X241143703Y-204094772D01*
X241207853Y-203939900D01*
X241300985Y-203800519D01*
X241419519Y-203681985D01*
X241558900Y-203588853D01*
X241713772Y-203524703D01*
X241878184Y-203492000D01*
X242045816Y-203492000D01*
X242210228Y-203524703D01*
G37*
G36*
X234590228Y-203524703D02*
G01*
X234745100Y-203588853D01*
X234884481Y-203681985D01*
X235003015Y-203800519D01*
X235096147Y-203939900D01*
X235160297Y-204094772D01*
X235193000Y-204259184D01*
X235193000Y-204426816D01*
X235160297Y-204591228D01*
X235096147Y-204746100D01*
X235003015Y-204885481D01*
X234884481Y-205004015D01*
X234745100Y-205097147D01*
X234590228Y-205161297D01*
X234425816Y-205194000D01*
X234258184Y-205194000D01*
X234093772Y-205161297D01*
X233938900Y-205097147D01*
X233799519Y-205004015D01*
X233680985Y-204885481D01*
X233587853Y-204746100D01*
X233523703Y-204591228D01*
X233491000Y-204426816D01*
X233491000Y-204259184D01*
X233523703Y-204094772D01*
X233587853Y-203939900D01*
X233680985Y-203800519D01*
X233799519Y-203681985D01*
X233938900Y-203588853D01*
X234093772Y-203524703D01*
X234258184Y-203492000D01*
X234425816Y-203492000D01*
X234590228Y-203524703D01*
G37*
G36*
X230330564Y-202182389D02*
G01*
X230521833Y-202261615D01*
X230521835Y-202261616D01*
X230582052Y-202301852D01*
X230693973Y-202376635D01*
X230840365Y-202523027D01*
X230955385Y-202695167D01*
X231034611Y-202886436D01*
X231075000Y-203089484D01*
X231075000Y-203296516D01*
X231034611Y-203499564D01*
X230997626Y-203588853D01*
X230955384Y-203690835D01*
X230840365Y-203862973D01*
X230693973Y-204009365D01*
X230521835Y-204124384D01*
X230521834Y-204124385D01*
X230521833Y-204124385D01*
X230330564Y-204203611D01*
X230127516Y-204244000D01*
X229920484Y-204244000D01*
X229717436Y-204203611D01*
X229526167Y-204124385D01*
X229526166Y-204124385D01*
X229526165Y-204124384D01*
X229354027Y-204009365D01*
X229207635Y-203862973D01*
X229092616Y-203690835D01*
X229050374Y-203588853D01*
X229013389Y-203499564D01*
X228973000Y-203296516D01*
X228973000Y-203089484D01*
X229013389Y-202886436D01*
X229092615Y-202695167D01*
X229207635Y-202523027D01*
X229354027Y-202376635D01*
X229465948Y-202301852D01*
X229526165Y-202261616D01*
X229526167Y-202261615D01*
X229717436Y-202182389D01*
X229920484Y-202142000D01*
X230127516Y-202142000D01*
X230330564Y-202182389D01*
G37*
G36*
X151246800Y-200960600D02*
G01*
X151082460Y-200960600D01*
X151058074Y-200963002D01*
X151034625Y-200970115D01*
X151013014Y-200981666D01*
X150994072Y-200997211D01*
X150978527Y-201016153D01*
X150966976Y-201037764D01*
X150959863Y-201061213D01*
X150957461Y-201085599D01*
X150959863Y-201109985D01*
X150966976Y-201133434D01*
X150978527Y-201155045D01*
X150994072Y-201173987D01*
X151003145Y-201182209D01*
X151080064Y-201245336D01*
X151152044Y-201333043D01*
X151186229Y-201396999D01*
X151205528Y-201433105D01*
X151205529Y-201433108D01*
X151238466Y-201541684D01*
X151249587Y-201654600D01*
X151238466Y-201767516D01*
X151205529Y-201876092D01*
X151205528Y-201876095D01*
X151186229Y-201912201D01*
X151152044Y-201976157D01*
X151080064Y-202063864D01*
X150992357Y-202135844D01*
X150910941Y-202179361D01*
X150890566Y-202192975D01*
X150873239Y-202210302D01*
X150859626Y-202230676D01*
X150850248Y-202253315D01*
X150845468Y-202277348D01*
X150845468Y-202301852D01*
X150850248Y-202325885D01*
X150859626Y-202348524D01*
X150873240Y-202368899D01*
X150890567Y-202386226D01*
X150910941Y-202399839D01*
X150992357Y-202443356D01*
X151080064Y-202515336D01*
X151152044Y-202603043D01*
X151186229Y-202666999D01*
X151205528Y-202703105D01*
X151205529Y-202703108D01*
X151238466Y-202811684D01*
X151249587Y-202924600D01*
X151238466Y-203037516D01*
X151205529Y-203146092D01*
X151205528Y-203146095D01*
X151186229Y-203182201D01*
X151152044Y-203246157D01*
X151080064Y-203333864D01*
X150992357Y-203405844D01*
X150928401Y-203440029D01*
X150892295Y-203459328D01*
X150892292Y-203459329D01*
X150783716Y-203492266D01*
X150699098Y-203500600D01*
X150192502Y-203500600D01*
X150107884Y-203492266D01*
X149999308Y-203459329D01*
X149999305Y-203459328D01*
X149963199Y-203440029D01*
X149899243Y-203405844D01*
X149811536Y-203333864D01*
X149739556Y-203246157D01*
X149705371Y-203182201D01*
X149686072Y-203146095D01*
X149686071Y-203146092D01*
X149653134Y-203037516D01*
X149642013Y-202924600D01*
X149653134Y-202811684D01*
X149686071Y-202703108D01*
X149686072Y-202703105D01*
X149705371Y-202666999D01*
X149739556Y-202603043D01*
X149811536Y-202515336D01*
X149899243Y-202443356D01*
X149980659Y-202399839D01*
X150001034Y-202386225D01*
X150018361Y-202368898D01*
X150031974Y-202348524D01*
X150041352Y-202325885D01*
X150046132Y-202301852D01*
X150046132Y-202277348D01*
X150041352Y-202253315D01*
X150031974Y-202230676D01*
X150018360Y-202210301D01*
X150001033Y-202192974D01*
X149980659Y-202179361D01*
X149899243Y-202135844D01*
X149811536Y-202063864D01*
X149739556Y-201976157D01*
X149705371Y-201912201D01*
X149686072Y-201876095D01*
X149686071Y-201876092D01*
X149653134Y-201767516D01*
X149642013Y-201654600D01*
X149653134Y-201541684D01*
X149686071Y-201433108D01*
X149686072Y-201433105D01*
X149705371Y-201396999D01*
X149739556Y-201333043D01*
X149811536Y-201245336D01*
X149888446Y-201182217D01*
X149905765Y-201164898D01*
X149919379Y-201144523D01*
X149928757Y-201121884D01*
X149933537Y-201097851D01*
X149933537Y-201073347D01*
X149928757Y-201049314D01*
X149919379Y-201026675D01*
X149905766Y-201006301D01*
X149888439Y-200988974D01*
X149868064Y-200975360D01*
X149845425Y-200965982D01*
X149821392Y-200961202D01*
X149809140Y-200960600D01*
X149644800Y-200960600D01*
X149644800Y-199808600D01*
X151246800Y-199808600D01*
X151246800Y-200960600D01*
G37*
G36*
X230018228Y-198952703D02*
G01*
X230173100Y-199016853D01*
X230312481Y-199109985D01*
X230431015Y-199228519D01*
X230524147Y-199367900D01*
X230588297Y-199522772D01*
X230621000Y-199687184D01*
X230621000Y-199854816D01*
X230588297Y-200019228D01*
X230524147Y-200174100D01*
X230431015Y-200313481D01*
X230312481Y-200432015D01*
X230173100Y-200525147D01*
X230018228Y-200589297D01*
X229853816Y-200622000D01*
X229686184Y-200622000D01*
X229521772Y-200589297D01*
X229366900Y-200525147D01*
X229227519Y-200432015D01*
X229108985Y-200313481D01*
X229015853Y-200174100D01*
X228951703Y-200019228D01*
X228919000Y-199854816D01*
X228919000Y-199687184D01*
X228951703Y-199522772D01*
X229015853Y-199367900D01*
X229108985Y-199228519D01*
X229227519Y-199109985D01*
X229366900Y-199016853D01*
X229521772Y-198952703D01*
X229686184Y-198920000D01*
X229853816Y-198920000D01*
X230018228Y-198952703D01*
G37*
G36*
X209698228Y-198952703D02*
G01*
X209853100Y-199016853D01*
X209992481Y-199109985D01*
X210111015Y-199228519D01*
X210204147Y-199367900D01*
X210268297Y-199522772D01*
X210301000Y-199687184D01*
X210301000Y-199854816D01*
X210268297Y-200019228D01*
X210204147Y-200174100D01*
X210111015Y-200313481D01*
X209992481Y-200432015D01*
X209853100Y-200525147D01*
X209698228Y-200589297D01*
X209533816Y-200622000D01*
X209366184Y-200622000D01*
X209201772Y-200589297D01*
X209046900Y-200525147D01*
X208907519Y-200432015D01*
X208788985Y-200313481D01*
X208695853Y-200174100D01*
X208631703Y-200019228D01*
X208599000Y-199854816D01*
X208599000Y-199687184D01*
X208631703Y-199522772D01*
X208695853Y-199367900D01*
X208788985Y-199228519D01*
X208907519Y-199109985D01*
X209046900Y-199016853D01*
X209201772Y-198952703D01*
X209366184Y-198920000D01*
X209533816Y-198920000D01*
X209698228Y-198952703D01*
G37*
G36*
X207158228Y-198952703D02*
G01*
X207313100Y-199016853D01*
X207452481Y-199109985D01*
X207571015Y-199228519D01*
X207664147Y-199367900D01*
X207728297Y-199522772D01*
X207761000Y-199687184D01*
X207761000Y-199854816D01*
X207728297Y-200019228D01*
X207664147Y-200174100D01*
X207571015Y-200313481D01*
X207452481Y-200432015D01*
X207313100Y-200525147D01*
X207158228Y-200589297D01*
X206993816Y-200622000D01*
X206826184Y-200622000D01*
X206661772Y-200589297D01*
X206506900Y-200525147D01*
X206367519Y-200432015D01*
X206248985Y-200313481D01*
X206155853Y-200174100D01*
X206091703Y-200019228D01*
X206059000Y-199854816D01*
X206059000Y-199687184D01*
X206091703Y-199522772D01*
X206155853Y-199367900D01*
X206248985Y-199228519D01*
X206367519Y-199109985D01*
X206506900Y-199016853D01*
X206661772Y-198952703D01*
X206826184Y-198920000D01*
X206993816Y-198920000D01*
X207158228Y-198952703D01*
G37*
G36*
X204618228Y-198952703D02*
G01*
X204773100Y-199016853D01*
X204912481Y-199109985D01*
X205031015Y-199228519D01*
X205124147Y-199367900D01*
X205188297Y-199522772D01*
X205221000Y-199687184D01*
X205221000Y-199854816D01*
X205188297Y-200019228D01*
X205124147Y-200174100D01*
X205031015Y-200313481D01*
X204912481Y-200432015D01*
X204773100Y-200525147D01*
X204618228Y-200589297D01*
X204453816Y-200622000D01*
X204286184Y-200622000D01*
X204121772Y-200589297D01*
X203966900Y-200525147D01*
X203827519Y-200432015D01*
X203708985Y-200313481D01*
X203615853Y-200174100D01*
X203551703Y-200019228D01*
X203519000Y-199854816D01*
X203519000Y-199687184D01*
X203551703Y-199522772D01*
X203615853Y-199367900D01*
X203708985Y-199228519D01*
X203827519Y-199109985D01*
X203966900Y-199016853D01*
X204121772Y-198952703D01*
X204286184Y-198920000D01*
X204453816Y-198920000D01*
X204618228Y-198952703D01*
G37*
G36*
X235098228Y-198952703D02*
G01*
X235253100Y-199016853D01*
X235392481Y-199109985D01*
X235511015Y-199228519D01*
X235604147Y-199367900D01*
X235668297Y-199522772D01*
X235701000Y-199687184D01*
X235701000Y-199854816D01*
X235668297Y-200019228D01*
X235604147Y-200174100D01*
X235511015Y-200313481D01*
X235392481Y-200432015D01*
X235253100Y-200525147D01*
X235098228Y-200589297D01*
X234933816Y-200622000D01*
X234766184Y-200622000D01*
X234601772Y-200589297D01*
X234446900Y-200525147D01*
X234307519Y-200432015D01*
X234188985Y-200313481D01*
X234095853Y-200174100D01*
X234031703Y-200019228D01*
X233999000Y-199854816D01*
X233999000Y-199687184D01*
X234031703Y-199522772D01*
X234095853Y-199367900D01*
X234188985Y-199228519D01*
X234307519Y-199109985D01*
X234446900Y-199016853D01*
X234601772Y-198952703D01*
X234766184Y-198920000D01*
X234933816Y-198920000D01*
X235098228Y-198952703D01*
G37*
G36*
X232558228Y-198952703D02*
G01*
X232713100Y-199016853D01*
X232852481Y-199109985D01*
X232971015Y-199228519D01*
X233064147Y-199367900D01*
X233128297Y-199522772D01*
X233161000Y-199687184D01*
X233161000Y-199854816D01*
X233128297Y-200019228D01*
X233064147Y-200174100D01*
X232971015Y-200313481D01*
X232852481Y-200432015D01*
X232713100Y-200525147D01*
X232558228Y-200589297D01*
X232393816Y-200622000D01*
X232226184Y-200622000D01*
X232061772Y-200589297D01*
X231906900Y-200525147D01*
X231767519Y-200432015D01*
X231648985Y-200313481D01*
X231555853Y-200174100D01*
X231491703Y-200019228D01*
X231459000Y-199854816D01*
X231459000Y-199687184D01*
X231491703Y-199522772D01*
X231555853Y-199367900D01*
X231648985Y-199228519D01*
X231767519Y-199109985D01*
X231906900Y-199016853D01*
X232061772Y-198952703D01*
X232226184Y-198920000D01*
X232393816Y-198920000D01*
X232558228Y-198952703D01*
G37*
G36*
X227478228Y-198952703D02*
G01*
X227633100Y-199016853D01*
X227772481Y-199109985D01*
X227891015Y-199228519D01*
X227984147Y-199367900D01*
X228048297Y-199522772D01*
X228081000Y-199687184D01*
X228081000Y-199854816D01*
X228048297Y-200019228D01*
X227984147Y-200174100D01*
X227891015Y-200313481D01*
X227772481Y-200432015D01*
X227633100Y-200525147D01*
X227478228Y-200589297D01*
X227313816Y-200622000D01*
X227146184Y-200622000D01*
X226981772Y-200589297D01*
X226826900Y-200525147D01*
X226687519Y-200432015D01*
X226568985Y-200313481D01*
X226475853Y-200174100D01*
X226411703Y-200019228D01*
X226379000Y-199854816D01*
X226379000Y-199687184D01*
X226411703Y-199522772D01*
X226475853Y-199367900D01*
X226568985Y-199228519D01*
X226687519Y-199109985D01*
X226826900Y-199016853D01*
X226981772Y-198952703D01*
X227146184Y-198920000D01*
X227313816Y-198920000D01*
X227478228Y-198952703D01*
G37*
G36*
X222398228Y-198952703D02*
G01*
X222553100Y-199016853D01*
X222692481Y-199109985D01*
X222811015Y-199228519D01*
X222904147Y-199367900D01*
X222968297Y-199522772D01*
X223001000Y-199687184D01*
X223001000Y-199854816D01*
X222968297Y-200019228D01*
X222904147Y-200174100D01*
X222811015Y-200313481D01*
X222692481Y-200432015D01*
X222553100Y-200525147D01*
X222398228Y-200589297D01*
X222233816Y-200622000D01*
X222066184Y-200622000D01*
X221901772Y-200589297D01*
X221746900Y-200525147D01*
X221607519Y-200432015D01*
X221488985Y-200313481D01*
X221395853Y-200174100D01*
X221331703Y-200019228D01*
X221299000Y-199854816D01*
X221299000Y-199687184D01*
X221331703Y-199522772D01*
X221395853Y-199367900D01*
X221488985Y-199228519D01*
X221607519Y-199109985D01*
X221746900Y-199016853D01*
X221901772Y-198952703D01*
X222066184Y-198920000D01*
X222233816Y-198920000D01*
X222398228Y-198952703D01*
G37*
G36*
X240178228Y-198952703D02*
G01*
X240333100Y-199016853D01*
X240472481Y-199109985D01*
X240591015Y-199228519D01*
X240684147Y-199367900D01*
X240748297Y-199522772D01*
X240781000Y-199687184D01*
X240781000Y-199854816D01*
X240748297Y-200019228D01*
X240684147Y-200174100D01*
X240591015Y-200313481D01*
X240472481Y-200432015D01*
X240333100Y-200525147D01*
X240178228Y-200589297D01*
X240013816Y-200622000D01*
X239846184Y-200622000D01*
X239681772Y-200589297D01*
X239526900Y-200525147D01*
X239387519Y-200432015D01*
X239268985Y-200313481D01*
X239175853Y-200174100D01*
X239111703Y-200019228D01*
X239079000Y-199854816D01*
X239079000Y-199687184D01*
X239111703Y-199522772D01*
X239175853Y-199367900D01*
X239268985Y-199228519D01*
X239387519Y-199109985D01*
X239526900Y-199016853D01*
X239681772Y-198952703D01*
X239846184Y-198920000D01*
X240013816Y-198920000D01*
X240178228Y-198952703D01*
G37*
G36*
X237638228Y-198952703D02*
G01*
X237793100Y-199016853D01*
X237932481Y-199109985D01*
X238051015Y-199228519D01*
X238144147Y-199367900D01*
X238208297Y-199522772D01*
X238241000Y-199687184D01*
X238241000Y-199854816D01*
X238208297Y-200019228D01*
X238144147Y-200174100D01*
X238051015Y-200313481D01*
X237932481Y-200432015D01*
X237793100Y-200525147D01*
X237638228Y-200589297D01*
X237473816Y-200622000D01*
X237306184Y-200622000D01*
X237141772Y-200589297D01*
X236986900Y-200525147D01*
X236847519Y-200432015D01*
X236728985Y-200313481D01*
X236635853Y-200174100D01*
X236571703Y-200019228D01*
X236539000Y-199854816D01*
X236539000Y-199687184D01*
X236571703Y-199522772D01*
X236635853Y-199367900D01*
X236728985Y-199228519D01*
X236847519Y-199109985D01*
X236986900Y-199016853D01*
X237141772Y-198952703D01*
X237306184Y-198920000D01*
X237473816Y-198920000D01*
X237638228Y-198952703D01*
G37*
G36*
X219858228Y-198952703D02*
G01*
X220013100Y-199016853D01*
X220152481Y-199109985D01*
X220271015Y-199228519D01*
X220364147Y-199367900D01*
X220428297Y-199522772D01*
X220461000Y-199687184D01*
X220461000Y-199854816D01*
X220428297Y-200019228D01*
X220364147Y-200174100D01*
X220271015Y-200313481D01*
X220152481Y-200432015D01*
X220013100Y-200525147D01*
X219858228Y-200589297D01*
X219693816Y-200622000D01*
X219526184Y-200622000D01*
X219361772Y-200589297D01*
X219206900Y-200525147D01*
X219067519Y-200432015D01*
X218948985Y-200313481D01*
X218855853Y-200174100D01*
X218791703Y-200019228D01*
X218759000Y-199854816D01*
X218759000Y-199687184D01*
X218791703Y-199522772D01*
X218855853Y-199367900D01*
X218948985Y-199228519D01*
X219067519Y-199109985D01*
X219206900Y-199016853D01*
X219361772Y-198952703D01*
X219526184Y-198920000D01*
X219693816Y-198920000D01*
X219858228Y-198952703D01*
G37*
G36*
X217318228Y-198952703D02*
G01*
X217473100Y-199016853D01*
X217612481Y-199109985D01*
X217731015Y-199228519D01*
X217824147Y-199367900D01*
X217888297Y-199522772D01*
X217921000Y-199687184D01*
X217921000Y-199854816D01*
X217888297Y-200019228D01*
X217824147Y-200174100D01*
X217731015Y-200313481D01*
X217612481Y-200432015D01*
X217473100Y-200525147D01*
X217318228Y-200589297D01*
X217153816Y-200622000D01*
X216986184Y-200622000D01*
X216821772Y-200589297D01*
X216666900Y-200525147D01*
X216527519Y-200432015D01*
X216408985Y-200313481D01*
X216315853Y-200174100D01*
X216251703Y-200019228D01*
X216219000Y-199854816D01*
X216219000Y-199687184D01*
X216251703Y-199522772D01*
X216315853Y-199367900D01*
X216408985Y-199228519D01*
X216527519Y-199109985D01*
X216666900Y-199016853D01*
X216821772Y-198952703D01*
X216986184Y-198920000D01*
X217153816Y-198920000D01*
X217318228Y-198952703D01*
G37*
G36*
X214778228Y-198952703D02*
G01*
X214933100Y-199016853D01*
X215072481Y-199109985D01*
X215191015Y-199228519D01*
X215284147Y-199367900D01*
X215348297Y-199522772D01*
X215381000Y-199687184D01*
X215381000Y-199854816D01*
X215348297Y-200019228D01*
X215284147Y-200174100D01*
X215191015Y-200313481D01*
X215072481Y-200432015D01*
X214933100Y-200525147D01*
X214778228Y-200589297D01*
X214613816Y-200622000D01*
X214446184Y-200622000D01*
X214281772Y-200589297D01*
X214126900Y-200525147D01*
X213987519Y-200432015D01*
X213868985Y-200313481D01*
X213775853Y-200174100D01*
X213711703Y-200019228D01*
X213679000Y-199854816D01*
X213679000Y-199687184D01*
X213711703Y-199522772D01*
X213775853Y-199367900D01*
X213868985Y-199228519D01*
X213987519Y-199109985D01*
X214126900Y-199016853D01*
X214281772Y-198952703D01*
X214446184Y-198920000D01*
X214613816Y-198920000D01*
X214778228Y-198952703D01*
G37*
G36*
X212238228Y-198952703D02*
G01*
X212393100Y-199016853D01*
X212532481Y-199109985D01*
X212651015Y-199228519D01*
X212744147Y-199367900D01*
X212808297Y-199522772D01*
X212841000Y-199687184D01*
X212841000Y-199854816D01*
X212808297Y-200019228D01*
X212744147Y-200174100D01*
X212651015Y-200313481D01*
X212532481Y-200432015D01*
X212393100Y-200525147D01*
X212238228Y-200589297D01*
X212073816Y-200622000D01*
X211906184Y-200622000D01*
X211741772Y-200589297D01*
X211586900Y-200525147D01*
X211447519Y-200432015D01*
X211328985Y-200313481D01*
X211235853Y-200174100D01*
X211171703Y-200019228D01*
X211139000Y-199854816D01*
X211139000Y-199687184D01*
X211171703Y-199522772D01*
X211235853Y-199367900D01*
X211328985Y-199228519D01*
X211447519Y-199109985D01*
X211586900Y-199016853D01*
X211741772Y-198952703D01*
X211906184Y-198920000D01*
X212073816Y-198920000D01*
X212238228Y-198952703D01*
G37*
G36*
X224938228Y-198952703D02*
G01*
X225093100Y-199016853D01*
X225232481Y-199109985D01*
X225351015Y-199228519D01*
X225444147Y-199367900D01*
X225508297Y-199522772D01*
X225541000Y-199687184D01*
X225541000Y-199854816D01*
X225508297Y-200019228D01*
X225444147Y-200174100D01*
X225351015Y-200313481D01*
X225232481Y-200432015D01*
X225093100Y-200525147D01*
X224938228Y-200589297D01*
X224773816Y-200622000D01*
X224606184Y-200622000D01*
X224441772Y-200589297D01*
X224286900Y-200525147D01*
X224147519Y-200432015D01*
X224028985Y-200313481D01*
X223935853Y-200174100D01*
X223871703Y-200019228D01*
X223839000Y-199854816D01*
X223839000Y-199687184D01*
X223871703Y-199522772D01*
X223935853Y-199367900D01*
X224028985Y-199228519D01*
X224147519Y-199109985D01*
X224286900Y-199016853D01*
X224441772Y-198952703D01*
X224606184Y-198920000D01*
X224773816Y-198920000D01*
X224938228Y-198952703D01*
G37*
G36*
X138595912Y-197215227D02*
G01*
X138745212Y-197244924D01*
X138909184Y-197312844D01*
X139056754Y-197411447D01*
X139182253Y-197536946D01*
X139280856Y-197684516D01*
X139348776Y-197848488D01*
X139383400Y-198022559D01*
X139383400Y-198200041D01*
X139348776Y-198374112D01*
X139280856Y-198538084D01*
X139182253Y-198685654D01*
X139056754Y-198811153D01*
X138909184Y-198909756D01*
X138745212Y-198977676D01*
X138595912Y-199007373D01*
X138571142Y-199012300D01*
X138393658Y-199012300D01*
X138368888Y-199007373D01*
X138219588Y-198977676D01*
X138055616Y-198909756D01*
X137908046Y-198811153D01*
X137782547Y-198685654D01*
X137683944Y-198538084D01*
X137616024Y-198374112D01*
X137581400Y-198200041D01*
X137581400Y-198022559D01*
X137616024Y-197848488D01*
X137683944Y-197684516D01*
X137782547Y-197536946D01*
X137908046Y-197411447D01*
X138055616Y-197312844D01*
X138219588Y-197244924D01*
X138368888Y-197215227D01*
X138393658Y-197210300D01*
X138571142Y-197210300D01*
X138595912Y-197215227D01*
G37*
G36*
X136843400Y-199012300D02*
G01*
X135041400Y-199012300D01*
X135041400Y-197210300D01*
X136843400Y-197210300D01*
X136843400Y-199012300D01*
G37*
G36*
X143675912Y-197215227D02*
G01*
X143825212Y-197244924D01*
X143989184Y-197312844D01*
X144136754Y-197411447D01*
X144262253Y-197536946D01*
X144360856Y-197684516D01*
X144428776Y-197848488D01*
X144463400Y-198022559D01*
X144463400Y-198200041D01*
X144428776Y-198374112D01*
X144360856Y-198538084D01*
X144262253Y-198685654D01*
X144136754Y-198811153D01*
X143989184Y-198909756D01*
X143825212Y-198977676D01*
X143675912Y-199007373D01*
X143651142Y-199012300D01*
X143473658Y-199012300D01*
X143448888Y-199007373D01*
X143299588Y-198977676D01*
X143135616Y-198909756D01*
X142988046Y-198811153D01*
X142862547Y-198685654D01*
X142763944Y-198538084D01*
X142696024Y-198374112D01*
X142661400Y-198200041D01*
X142661400Y-198022559D01*
X142696024Y-197848488D01*
X142763944Y-197684516D01*
X142862547Y-197536946D01*
X142988046Y-197411447D01*
X143135616Y-197312844D01*
X143299588Y-197244924D01*
X143448888Y-197215227D01*
X143473658Y-197210300D01*
X143651142Y-197210300D01*
X143675912Y-197215227D01*
G37*
G36*
X141135912Y-197215227D02*
G01*
X141285212Y-197244924D01*
X141449184Y-197312844D01*
X141596754Y-197411447D01*
X141722253Y-197536946D01*
X141820856Y-197684516D01*
X141888776Y-197848488D01*
X141923400Y-198022559D01*
X141923400Y-198200041D01*
X141888776Y-198374112D01*
X141820856Y-198538084D01*
X141722253Y-198685654D01*
X141596754Y-198811153D01*
X141449184Y-198909756D01*
X141285212Y-198977676D01*
X141135912Y-199007373D01*
X141111142Y-199012300D01*
X140933658Y-199012300D01*
X140908888Y-199007373D01*
X140759588Y-198977676D01*
X140595616Y-198909756D01*
X140448046Y-198811153D01*
X140322547Y-198685654D01*
X140223944Y-198538084D01*
X140156024Y-198374112D01*
X140121400Y-198200041D01*
X140121400Y-198022559D01*
X140156024Y-197848488D01*
X140223944Y-197684516D01*
X140322547Y-197536946D01*
X140448046Y-197411447D01*
X140595616Y-197312844D01*
X140759588Y-197244924D01*
X140908888Y-197215227D01*
X140933658Y-197210300D01*
X141111142Y-197210300D01*
X141135912Y-197215227D01*
G37*
G36*
X149043028Y-194727603D02*
G01*
X149197900Y-194791753D01*
X149337281Y-194884885D01*
X149455815Y-195003419D01*
X149548947Y-195142800D01*
X149613097Y-195297672D01*
X149645800Y-195462084D01*
X149645800Y-195629716D01*
X149613097Y-195794128D01*
X149548947Y-195949000D01*
X149455815Y-196088381D01*
X149337281Y-196206915D01*
X149197900Y-196300047D01*
X149043028Y-196364197D01*
X148878616Y-196396900D01*
X148710984Y-196396900D01*
X148546572Y-196364197D01*
X148391700Y-196300047D01*
X148252319Y-196206915D01*
X148133785Y-196088381D01*
X148040653Y-195949000D01*
X147976503Y-195794128D01*
X147943800Y-195629716D01*
X147943800Y-195462084D01*
X147976503Y-195297672D01*
X148040653Y-195142800D01*
X148133785Y-195003419D01*
X148252319Y-194884885D01*
X148391700Y-194791753D01*
X148546572Y-194727603D01*
X148710984Y-194694900D01*
X148878616Y-194694900D01*
X149043028Y-194727603D01*
G37*
G36*
X156663028Y-194727603D02*
G01*
X156817900Y-194791753D01*
X156957281Y-194884885D01*
X157075815Y-195003419D01*
X157168947Y-195142800D01*
X157233097Y-195297672D01*
X157265800Y-195462084D01*
X157265800Y-195629716D01*
X157233097Y-195794128D01*
X157168947Y-195949000D01*
X157075815Y-196088381D01*
X156957281Y-196206915D01*
X156817900Y-196300047D01*
X156663028Y-196364197D01*
X156498616Y-196396900D01*
X156330984Y-196396900D01*
X156166572Y-196364197D01*
X156011700Y-196300047D01*
X155872319Y-196206915D01*
X155753785Y-196088381D01*
X155660653Y-195949000D01*
X155596503Y-195794128D01*
X155563800Y-195629716D01*
X155563800Y-195462084D01*
X155596503Y-195297672D01*
X155660653Y-195142800D01*
X155753785Y-195003419D01*
X155872319Y-194884885D01*
X156011700Y-194791753D01*
X156166572Y-194727603D01*
X156330984Y-194694900D01*
X156498616Y-194694900D01*
X156663028Y-194727603D01*
G37*
G36*
X254026000Y-196367000D02*
G01*
X249964000Y-196367000D01*
X249964000Y-194285000D01*
X254026000Y-194285000D01*
X254026000Y-196367000D01*
G37*
G36*
X161679528Y-190993803D02*
G01*
X161834400Y-191057953D01*
X161973781Y-191151085D01*
X162092315Y-191269619D01*
X162185447Y-191409000D01*
X162249597Y-191563872D01*
X162282300Y-191728284D01*
X162282300Y-191895916D01*
X162249597Y-192060328D01*
X162185447Y-192215200D01*
X162092315Y-192354581D01*
X161973781Y-192473115D01*
X161834400Y-192566247D01*
X161679528Y-192630397D01*
X161515116Y-192663100D01*
X161347484Y-192663100D01*
X161183072Y-192630397D01*
X161028200Y-192566247D01*
X160888819Y-192473115D01*
X160770285Y-192354581D01*
X160677153Y-192215200D01*
X160613003Y-192060328D01*
X160580300Y-191895916D01*
X160580300Y-191728284D01*
X160613003Y-191563872D01*
X160677153Y-191409000D01*
X160770285Y-191269619D01*
X160888819Y-191151085D01*
X161028200Y-191057953D01*
X161183072Y-190993803D01*
X161347484Y-190961100D01*
X161515116Y-190961100D01*
X161679528Y-190993803D01*
G37*
G36*
X156853528Y-190765203D02*
G01*
X157008400Y-190829353D01*
X157147781Y-190922485D01*
X157266315Y-191041019D01*
X157359447Y-191180400D01*
X157423597Y-191335272D01*
X157456300Y-191499684D01*
X157456300Y-191667316D01*
X157423597Y-191831728D01*
X157359447Y-191986600D01*
X157266315Y-192125981D01*
X157147781Y-192244515D01*
X157008400Y-192337647D01*
X156853528Y-192401797D01*
X156689116Y-192434500D01*
X156521484Y-192434500D01*
X156357072Y-192401797D01*
X156202200Y-192337647D01*
X156062819Y-192244515D01*
X155944285Y-192125981D01*
X155851153Y-191986600D01*
X155787003Y-191831728D01*
X155754300Y-191667316D01*
X155754300Y-191499684D01*
X155787003Y-191335272D01*
X155851153Y-191180400D01*
X155944285Y-191041019D01*
X156062819Y-190922485D01*
X156202200Y-190829353D01*
X156357072Y-190765203D01*
X156521484Y-190732500D01*
X156689116Y-190732500D01*
X156853528Y-190765203D01*
G37*
G36*
X253087112Y-189290021D02*
G01*
X253189072Y-189300063D01*
X253385301Y-189359589D01*
X253385303Y-189359590D01*
X253566145Y-189456252D01*
X253724660Y-189586340D01*
X253854747Y-189744854D01*
X253951411Y-189925699D01*
X254010937Y-190121928D01*
X254031036Y-190326000D01*
X254010937Y-190530072D01*
X253951411Y-190726301D01*
X253951410Y-190726303D01*
X253854748Y-190907145D01*
X253724660Y-191065660D01*
X253566145Y-191195748D01*
X253427942Y-191269619D01*
X253385301Y-191292411D01*
X253189072Y-191351937D01*
X253087112Y-191361979D01*
X253036133Y-191367000D01*
X250953867Y-191367000D01*
X250902888Y-191361979D01*
X250800928Y-191351937D01*
X250604699Y-191292411D01*
X250562058Y-191269619D01*
X250423855Y-191195748D01*
X250265340Y-191065660D01*
X250135252Y-190907145D01*
X250038590Y-190726303D01*
X250038589Y-190726301D01*
X249979063Y-190530072D01*
X249958964Y-190326000D01*
X249979063Y-190121928D01*
X250038589Y-189925699D01*
X250135253Y-189744854D01*
X250265340Y-189586340D01*
X250423855Y-189456252D01*
X250604697Y-189359590D01*
X250604699Y-189359589D01*
X250800928Y-189300063D01*
X250902888Y-189290021D01*
X250953867Y-189285000D01*
X253036133Y-189285000D01*
X253087112Y-189290021D01*
G37*
G36*
X152935900Y-184945900D02*
G01*
X152771560Y-184945900D01*
X152747174Y-184948302D01*
X152723725Y-184955415D01*
X152702114Y-184966966D01*
X152683172Y-184982511D01*
X152667627Y-185001453D01*
X152656076Y-185023064D01*
X152648963Y-185046513D01*
X152646561Y-185070899D01*
X152648963Y-185095285D01*
X152656076Y-185118734D01*
X152667627Y-185140345D01*
X152683172Y-185159287D01*
X152692245Y-185167509D01*
X152769164Y-185230636D01*
X152841144Y-185318343D01*
X152875169Y-185382000D01*
X152894628Y-185418405D01*
X152894629Y-185418408D01*
X152927566Y-185526984D01*
X152938687Y-185639900D01*
X152927566Y-185752816D01*
X152894629Y-185861392D01*
X152894628Y-185861395D01*
X152890107Y-185869853D01*
X152841144Y-185961457D01*
X152769164Y-186049164D01*
X152681457Y-186121144D01*
X152600041Y-186164661D01*
X152579666Y-186178275D01*
X152562339Y-186195602D01*
X152548726Y-186215976D01*
X152539348Y-186238615D01*
X152534568Y-186262648D01*
X152534568Y-186287152D01*
X152539348Y-186311185D01*
X152548726Y-186333824D01*
X152562340Y-186354199D01*
X152579667Y-186371526D01*
X152600041Y-186385139D01*
X152681457Y-186428656D01*
X152769164Y-186500636D01*
X152841144Y-186588343D01*
X152875329Y-186652299D01*
X152894628Y-186688405D01*
X152894629Y-186688408D01*
X152927566Y-186796984D01*
X152938687Y-186909900D01*
X152927566Y-187022816D01*
X152894629Y-187131392D01*
X152894628Y-187131395D01*
X152875329Y-187167501D01*
X152841144Y-187231457D01*
X152769164Y-187319164D01*
X152681457Y-187391144D01*
X152617501Y-187425329D01*
X152581395Y-187444628D01*
X152581392Y-187444629D01*
X152472816Y-187477566D01*
X152388198Y-187485900D01*
X151881602Y-187485900D01*
X151796984Y-187477566D01*
X151688408Y-187444629D01*
X151688405Y-187444628D01*
X151652299Y-187425329D01*
X151588343Y-187391144D01*
X151500636Y-187319164D01*
X151428656Y-187231457D01*
X151394471Y-187167501D01*
X151375172Y-187131395D01*
X151375171Y-187131392D01*
X151342234Y-187022816D01*
X151331113Y-186909900D01*
X151342234Y-186796984D01*
X151375171Y-186688408D01*
X151375172Y-186688405D01*
X151394471Y-186652299D01*
X151428656Y-186588343D01*
X151500636Y-186500636D01*
X151588343Y-186428656D01*
X151669759Y-186385139D01*
X151690134Y-186371525D01*
X151707461Y-186354198D01*
X151721074Y-186333824D01*
X151730452Y-186311185D01*
X151735232Y-186287152D01*
X151735232Y-186262648D01*
X151730452Y-186238615D01*
X151721074Y-186215976D01*
X151707460Y-186195601D01*
X151690133Y-186178274D01*
X151669759Y-186164661D01*
X151588343Y-186121144D01*
X151500636Y-186049164D01*
X151428656Y-185961457D01*
X151379693Y-185869853D01*
X151375172Y-185861395D01*
X151375171Y-185861392D01*
X151342234Y-185752816D01*
X151331113Y-185639900D01*
X151342234Y-185526984D01*
X151375171Y-185418408D01*
X151375172Y-185418405D01*
X151394631Y-185382000D01*
X151428656Y-185318343D01*
X151500636Y-185230636D01*
X151577546Y-185167517D01*
X151594865Y-185150198D01*
X151608479Y-185129823D01*
X151617857Y-185107184D01*
X151622637Y-185083151D01*
X151622637Y-185058647D01*
X151617857Y-185034614D01*
X151608479Y-185011975D01*
X151594866Y-184991601D01*
X151577539Y-184974274D01*
X151557164Y-184960660D01*
X151534525Y-184951282D01*
X151510492Y-184946502D01*
X151498240Y-184945900D01*
X151333900Y-184945900D01*
X151333900Y-183793900D01*
X152935900Y-183793900D01*
X152935900Y-184945900D01*
G37*
G36*
X174156000Y-186071000D02*
G01*
X172354000Y-186071000D01*
X172354000Y-184269000D01*
X174156000Y-184269000D01*
X174156000Y-186071000D01*
G37*
G36*
X178448512Y-184273927D02*
G01*
X178597812Y-184303624D01*
X178761784Y-184371544D01*
X178909354Y-184470147D01*
X179034853Y-184595646D01*
X179133456Y-184743216D01*
X179201376Y-184907188D01*
X179236000Y-185081259D01*
X179236000Y-185258741D01*
X179201376Y-185432812D01*
X179133456Y-185596784D01*
X179034853Y-185744354D01*
X178909354Y-185869853D01*
X178761784Y-185968456D01*
X178597812Y-186036376D01*
X178448512Y-186066073D01*
X178423742Y-186071000D01*
X178246258Y-186071000D01*
X178221488Y-186066073D01*
X178072188Y-186036376D01*
X177908216Y-185968456D01*
X177760646Y-185869853D01*
X177635147Y-185744354D01*
X177536544Y-185596784D01*
X177468624Y-185432812D01*
X177434000Y-185258741D01*
X177434000Y-185081259D01*
X177468624Y-184907188D01*
X177536544Y-184743216D01*
X177635147Y-184595646D01*
X177760646Y-184470147D01*
X177908216Y-184371544D01*
X178072188Y-184303624D01*
X178221488Y-184273927D01*
X178246258Y-184269000D01*
X178423742Y-184269000D01*
X178448512Y-184273927D01*
G37*
G36*
X175908512Y-184273927D02*
G01*
X176057812Y-184303624D01*
X176221784Y-184371544D01*
X176369354Y-184470147D01*
X176494853Y-184595646D01*
X176593456Y-184743216D01*
X176661376Y-184907188D01*
X176696000Y-185081259D01*
X176696000Y-185258741D01*
X176661376Y-185432812D01*
X176593456Y-185596784D01*
X176494853Y-185744354D01*
X176369354Y-185869853D01*
X176221784Y-185968456D01*
X176057812Y-186036376D01*
X175908512Y-186066073D01*
X175883742Y-186071000D01*
X175706258Y-186071000D01*
X175681488Y-186066073D01*
X175532188Y-186036376D01*
X175368216Y-185968456D01*
X175220646Y-185869853D01*
X175095147Y-185744354D01*
X174996544Y-185596784D01*
X174928624Y-185432812D01*
X174894000Y-185258741D01*
X174894000Y-185081259D01*
X174928624Y-184907188D01*
X174996544Y-184743216D01*
X175095147Y-184595646D01*
X175220646Y-184470147D01*
X175368216Y-184371544D01*
X175532188Y-184303624D01*
X175681488Y-184273927D01*
X175706258Y-184269000D01*
X175883742Y-184269000D01*
X175908512Y-184273927D01*
G37*
G36*
X217318228Y-183712703D02*
G01*
X217473100Y-183776853D01*
X217612481Y-183869985D01*
X217731015Y-183988519D01*
X217824147Y-184127900D01*
X217888297Y-184282772D01*
X217921000Y-184447184D01*
X217921000Y-184614816D01*
X217888297Y-184779228D01*
X217824147Y-184934100D01*
X217731015Y-185073481D01*
X217612481Y-185192015D01*
X217473100Y-185285147D01*
X217318228Y-185349297D01*
X217153816Y-185382000D01*
X216986184Y-185382000D01*
X216821772Y-185349297D01*
X216666900Y-185285147D01*
X216527519Y-185192015D01*
X216408985Y-185073481D01*
X216315853Y-184934100D01*
X216251703Y-184779228D01*
X216219000Y-184614816D01*
X216219000Y-184447184D01*
X216251703Y-184282772D01*
X216315853Y-184127900D01*
X216408985Y-183988519D01*
X216527519Y-183869985D01*
X216666900Y-183776853D01*
X216821772Y-183712703D01*
X216986184Y-183680000D01*
X217153816Y-183680000D01*
X217318228Y-183712703D01*
G37*
G36*
X230018228Y-183712703D02*
G01*
X230173100Y-183776853D01*
X230312481Y-183869985D01*
X230431015Y-183988519D01*
X230524147Y-184127900D01*
X230588297Y-184282772D01*
X230621000Y-184447184D01*
X230621000Y-184614816D01*
X230588297Y-184779228D01*
X230524147Y-184934100D01*
X230431015Y-185073481D01*
X230312481Y-185192015D01*
X230173100Y-185285147D01*
X230018228Y-185349297D01*
X229853816Y-185382000D01*
X229686184Y-185382000D01*
X229521772Y-185349297D01*
X229366900Y-185285147D01*
X229227519Y-185192015D01*
X229108985Y-185073481D01*
X229015853Y-184934100D01*
X228951703Y-184779228D01*
X228919000Y-184614816D01*
X228919000Y-184447184D01*
X228951703Y-184282772D01*
X229015853Y-184127900D01*
X229108985Y-183988519D01*
X229227519Y-183869985D01*
X229366900Y-183776853D01*
X229521772Y-183712703D01*
X229686184Y-183680000D01*
X229853816Y-183680000D01*
X230018228Y-183712703D01*
G37*
G36*
X235098228Y-183712703D02*
G01*
X235253100Y-183776853D01*
X235392481Y-183869985D01*
X235511015Y-183988519D01*
X235604147Y-184127900D01*
X235668297Y-184282772D01*
X235701000Y-184447184D01*
X235701000Y-184614816D01*
X235668297Y-184779228D01*
X235604147Y-184934100D01*
X235511015Y-185073481D01*
X235392481Y-185192015D01*
X235253100Y-185285147D01*
X235098228Y-185349297D01*
X234933816Y-185382000D01*
X234766184Y-185382000D01*
X234601772Y-185349297D01*
X234446900Y-185285147D01*
X234307519Y-185192015D01*
X234188985Y-185073481D01*
X234095853Y-184934100D01*
X234031703Y-184779228D01*
X233999000Y-184614816D01*
X233999000Y-184447184D01*
X234031703Y-184282772D01*
X234095853Y-184127900D01*
X234188985Y-183988519D01*
X234307519Y-183869985D01*
X234446900Y-183776853D01*
X234601772Y-183712703D01*
X234766184Y-183680000D01*
X234933816Y-183680000D01*
X235098228Y-183712703D01*
G37*
G36*
X237638228Y-183712703D02*
G01*
X237793100Y-183776853D01*
X237932481Y-183869985D01*
X238051015Y-183988519D01*
X238144147Y-184127900D01*
X238208297Y-184282772D01*
X238241000Y-184447184D01*
X238241000Y-184614816D01*
X238208297Y-184779228D01*
X238144147Y-184934100D01*
X238051015Y-185073481D01*
X237932481Y-185192015D01*
X237793100Y-185285147D01*
X237638228Y-185349297D01*
X237473816Y-185382000D01*
X237306184Y-185382000D01*
X237141772Y-185349297D01*
X236986900Y-185285147D01*
X236847519Y-185192015D01*
X236728985Y-185073481D01*
X236635853Y-184934100D01*
X236571703Y-184779228D01*
X236539000Y-184614816D01*
X236539000Y-184447184D01*
X236571703Y-184282772D01*
X236635853Y-184127900D01*
X236728985Y-183988519D01*
X236847519Y-183869985D01*
X236986900Y-183776853D01*
X237141772Y-183712703D01*
X237306184Y-183680000D01*
X237473816Y-183680000D01*
X237638228Y-183712703D01*
G37*
G36*
X240781000Y-185382000D02*
G01*
X239079000Y-185382000D01*
X239079000Y-183680000D01*
X240781000Y-183680000D01*
X240781000Y-185382000D01*
G37*
G36*
X227478228Y-183712703D02*
G01*
X227633100Y-183776853D01*
X227772481Y-183869985D01*
X227891015Y-183988519D01*
X227984147Y-184127900D01*
X228048297Y-184282772D01*
X228081000Y-184447184D01*
X228081000Y-184614816D01*
X228048297Y-184779228D01*
X227984147Y-184934100D01*
X227891015Y-185073481D01*
X227772481Y-185192015D01*
X227633100Y-185285147D01*
X227478228Y-185349297D01*
X227313816Y-185382000D01*
X227146184Y-185382000D01*
X226981772Y-185349297D01*
X226826900Y-185285147D01*
X226687519Y-185192015D01*
X226568985Y-185073481D01*
X226475853Y-184934100D01*
X226411703Y-184779228D01*
X226379000Y-184614816D01*
X226379000Y-184447184D01*
X226411703Y-184282772D01*
X226475853Y-184127900D01*
X226568985Y-183988519D01*
X226687519Y-183869985D01*
X226826900Y-183776853D01*
X226981772Y-183712703D01*
X227146184Y-183680000D01*
X227313816Y-183680000D01*
X227478228Y-183712703D01*
G37*
G36*
X204618228Y-183712703D02*
G01*
X204773100Y-183776853D01*
X204912481Y-183869985D01*
X205031015Y-183988519D01*
X205124147Y-184127900D01*
X205188297Y-184282772D01*
X205221000Y-184447184D01*
X205221000Y-184614816D01*
X205188297Y-184779228D01*
X205124147Y-184934100D01*
X205031015Y-185073481D01*
X204912481Y-185192015D01*
X204773100Y-185285147D01*
X204618228Y-185349297D01*
X204453816Y-185382000D01*
X204286184Y-185382000D01*
X204121772Y-185349297D01*
X203966900Y-185285147D01*
X203827519Y-185192015D01*
X203708985Y-185073481D01*
X203615853Y-184934100D01*
X203551703Y-184779228D01*
X203519000Y-184614816D01*
X203519000Y-184447184D01*
X203551703Y-184282772D01*
X203615853Y-184127900D01*
X203708985Y-183988519D01*
X203827519Y-183869985D01*
X203966900Y-183776853D01*
X204121772Y-183712703D01*
X204286184Y-183680000D01*
X204453816Y-183680000D01*
X204618228Y-183712703D01*
G37*
G36*
X207158228Y-183712703D02*
G01*
X207313100Y-183776853D01*
X207452481Y-183869985D01*
X207571015Y-183988519D01*
X207664147Y-184127900D01*
X207728297Y-184282772D01*
X207761000Y-184447184D01*
X207761000Y-184614816D01*
X207728297Y-184779228D01*
X207664147Y-184934100D01*
X207571015Y-185073481D01*
X207452481Y-185192015D01*
X207313100Y-185285147D01*
X207158228Y-185349297D01*
X206993816Y-185382000D01*
X206826184Y-185382000D01*
X206661772Y-185349297D01*
X206506900Y-185285147D01*
X206367519Y-185192015D01*
X206248985Y-185073481D01*
X206155853Y-184934100D01*
X206091703Y-184779228D01*
X206059000Y-184614816D01*
X206059000Y-184447184D01*
X206091703Y-184282772D01*
X206155853Y-184127900D01*
X206248985Y-183988519D01*
X206367519Y-183869985D01*
X206506900Y-183776853D01*
X206661772Y-183712703D01*
X206826184Y-183680000D01*
X206993816Y-183680000D01*
X207158228Y-183712703D01*
G37*
G36*
X209698228Y-183712703D02*
G01*
X209853100Y-183776853D01*
X209992481Y-183869985D01*
X210111015Y-183988519D01*
X210204147Y-184127900D01*
X210268297Y-184282772D01*
X210301000Y-184447184D01*
X210301000Y-184614816D01*
X210268297Y-184779228D01*
X210204147Y-184934100D01*
X210111015Y-185073481D01*
X209992481Y-185192015D01*
X209853100Y-185285147D01*
X209698228Y-185349297D01*
X209533816Y-185382000D01*
X209366184Y-185382000D01*
X209201772Y-185349297D01*
X209046900Y-185285147D01*
X208907519Y-185192015D01*
X208788985Y-185073481D01*
X208695853Y-184934100D01*
X208631703Y-184779228D01*
X208599000Y-184614816D01*
X208599000Y-184447184D01*
X208631703Y-184282772D01*
X208695853Y-184127900D01*
X208788985Y-183988519D01*
X208907519Y-183869985D01*
X209046900Y-183776853D01*
X209201772Y-183712703D01*
X209366184Y-183680000D01*
X209533816Y-183680000D01*
X209698228Y-183712703D01*
G37*
G36*
X212238228Y-183712703D02*
G01*
X212393100Y-183776853D01*
X212532481Y-183869985D01*
X212651015Y-183988519D01*
X212744147Y-184127900D01*
X212808297Y-184282772D01*
X212841000Y-184447184D01*
X212841000Y-184614816D01*
X212808297Y-184779228D01*
X212744147Y-184934100D01*
X212651015Y-185073481D01*
X212532481Y-185192015D01*
X212393100Y-185285147D01*
X212238228Y-185349297D01*
X212073816Y-185382000D01*
X211906184Y-185382000D01*
X211741772Y-185349297D01*
X211586900Y-185285147D01*
X211447519Y-185192015D01*
X211328985Y-185073481D01*
X211235853Y-184934100D01*
X211171703Y-184779228D01*
X211139000Y-184614816D01*
X211139000Y-184447184D01*
X211171703Y-184282772D01*
X211235853Y-184127900D01*
X211328985Y-183988519D01*
X211447519Y-183869985D01*
X211586900Y-183776853D01*
X211741772Y-183712703D01*
X211906184Y-183680000D01*
X212073816Y-183680000D01*
X212238228Y-183712703D01*
G37*
G36*
X214778228Y-183712703D02*
G01*
X214933100Y-183776853D01*
X215072481Y-183869985D01*
X215191015Y-183988519D01*
X215284147Y-184127900D01*
X215348297Y-184282772D01*
X215381000Y-184447184D01*
X215381000Y-184614816D01*
X215348297Y-184779228D01*
X215284147Y-184934100D01*
X215191015Y-185073481D01*
X215072481Y-185192015D01*
X214933100Y-185285147D01*
X214778228Y-185349297D01*
X214613816Y-185382000D01*
X214446184Y-185382000D01*
X214281772Y-185349297D01*
X214126900Y-185285147D01*
X213987519Y-185192015D01*
X213868985Y-185073481D01*
X213775853Y-184934100D01*
X213711703Y-184779228D01*
X213679000Y-184614816D01*
X213679000Y-184447184D01*
X213711703Y-184282772D01*
X213775853Y-184127900D01*
X213868985Y-183988519D01*
X213987519Y-183869985D01*
X214126900Y-183776853D01*
X214281772Y-183712703D01*
X214446184Y-183680000D01*
X214613816Y-183680000D01*
X214778228Y-183712703D01*
G37*
G36*
X232558228Y-183712703D02*
G01*
X232713100Y-183776853D01*
X232852481Y-183869985D01*
X232971015Y-183988519D01*
X233064147Y-184127900D01*
X233128297Y-184282772D01*
X233161000Y-184447184D01*
X233161000Y-184614816D01*
X233128297Y-184779228D01*
X233064147Y-184934100D01*
X232971015Y-185073481D01*
X232852481Y-185192015D01*
X232713100Y-185285147D01*
X232558228Y-185349297D01*
X232393816Y-185382000D01*
X232226184Y-185382000D01*
X232061772Y-185349297D01*
X231906900Y-185285147D01*
X231767519Y-185192015D01*
X231648985Y-185073481D01*
X231555853Y-184934100D01*
X231491703Y-184779228D01*
X231459000Y-184614816D01*
X231459000Y-184447184D01*
X231491703Y-184282772D01*
X231555853Y-184127900D01*
X231648985Y-183988519D01*
X231767519Y-183869985D01*
X231906900Y-183776853D01*
X232061772Y-183712703D01*
X232226184Y-183680000D01*
X232393816Y-183680000D01*
X232558228Y-183712703D01*
G37*
G36*
X224938228Y-183712703D02*
G01*
X225093100Y-183776853D01*
X225232481Y-183869985D01*
X225351015Y-183988519D01*
X225444147Y-184127900D01*
X225508297Y-184282772D01*
X225541000Y-184447184D01*
X225541000Y-184614816D01*
X225508297Y-184779228D01*
X225444147Y-184934100D01*
X225351015Y-185073481D01*
X225232481Y-185192015D01*
X225093100Y-185285147D01*
X224938228Y-185349297D01*
X224773816Y-185382000D01*
X224606184Y-185382000D01*
X224441772Y-185349297D01*
X224286900Y-185285147D01*
X224147519Y-185192015D01*
X224028985Y-185073481D01*
X223935853Y-184934100D01*
X223871703Y-184779228D01*
X223839000Y-184614816D01*
X223839000Y-184447184D01*
X223871703Y-184282772D01*
X223935853Y-184127900D01*
X224028985Y-183988519D01*
X224147519Y-183869985D01*
X224286900Y-183776853D01*
X224441772Y-183712703D01*
X224606184Y-183680000D01*
X224773816Y-183680000D01*
X224938228Y-183712703D01*
G37*
G36*
X219858228Y-183712703D02*
G01*
X220013100Y-183776853D01*
X220152481Y-183869985D01*
X220271015Y-183988519D01*
X220364147Y-184127900D01*
X220428297Y-184282772D01*
X220461000Y-184447184D01*
X220461000Y-184614816D01*
X220428297Y-184779228D01*
X220364147Y-184934100D01*
X220271015Y-185073481D01*
X220152481Y-185192015D01*
X220013100Y-185285147D01*
X219858228Y-185349297D01*
X219693816Y-185382000D01*
X219526184Y-185382000D01*
X219361772Y-185349297D01*
X219206900Y-185285147D01*
X219067519Y-185192015D01*
X218948985Y-185073481D01*
X218855853Y-184934100D01*
X218791703Y-184779228D01*
X218759000Y-184614816D01*
X218759000Y-184447184D01*
X218791703Y-184282772D01*
X218855853Y-184127900D01*
X218948985Y-183988519D01*
X219067519Y-183869985D01*
X219206900Y-183776853D01*
X219361772Y-183712703D01*
X219526184Y-183680000D01*
X219693816Y-183680000D01*
X219858228Y-183712703D01*
G37*
G36*
X222398228Y-183712703D02*
G01*
X222553100Y-183776853D01*
X222692481Y-183869985D01*
X222811015Y-183988519D01*
X222904147Y-184127900D01*
X222968297Y-184282772D01*
X223001000Y-184447184D01*
X223001000Y-184614816D01*
X222968297Y-184779228D01*
X222904147Y-184934100D01*
X222811015Y-185073481D01*
X222692481Y-185192015D01*
X222553100Y-185285147D01*
X222398228Y-185349297D01*
X222233816Y-185382000D01*
X222066184Y-185382000D01*
X221901772Y-185349297D01*
X221746900Y-185285147D01*
X221607519Y-185192015D01*
X221488985Y-185073481D01*
X221395853Y-184934100D01*
X221331703Y-184779228D01*
X221299000Y-184614816D01*
X221299000Y-184447184D01*
X221331703Y-184282772D01*
X221395853Y-184127900D01*
X221488985Y-183988519D01*
X221607519Y-183869985D01*
X221746900Y-183776853D01*
X221901772Y-183712703D01*
X222066184Y-183680000D01*
X222233816Y-183680000D01*
X222398228Y-183712703D01*
G37*
G36*
X161679528Y-183373803D02*
G01*
X161834400Y-183437953D01*
X161973781Y-183531085D01*
X162092315Y-183649619D01*
X162185447Y-183789000D01*
X162249597Y-183943872D01*
X162282300Y-184108284D01*
X162282300Y-184275916D01*
X162249597Y-184440328D01*
X162185447Y-184595200D01*
X162092315Y-184734581D01*
X161973781Y-184853115D01*
X161834400Y-184946247D01*
X161679528Y-185010397D01*
X161515116Y-185043100D01*
X161347484Y-185043100D01*
X161183072Y-185010397D01*
X161028200Y-184946247D01*
X160888819Y-184853115D01*
X160770285Y-184734581D01*
X160677153Y-184595200D01*
X160613003Y-184440328D01*
X160580300Y-184275916D01*
X160580300Y-184108284D01*
X160613003Y-183943872D01*
X160677153Y-183789000D01*
X160770285Y-183649619D01*
X160888819Y-183531085D01*
X161028200Y-183437953D01*
X161183072Y-183373803D01*
X161347484Y-183341100D01*
X161515116Y-183341100D01*
X161679528Y-183373803D01*
G37*
G36*
X156853528Y-183145203D02*
G01*
X157008400Y-183209353D01*
X157147781Y-183302485D01*
X157266315Y-183421019D01*
X157359447Y-183560400D01*
X157423597Y-183715272D01*
X157456300Y-183879684D01*
X157456300Y-184047316D01*
X157423597Y-184211728D01*
X157359447Y-184366600D01*
X157266315Y-184505981D01*
X157147781Y-184624515D01*
X157008400Y-184717647D01*
X156853528Y-184781797D01*
X156689116Y-184814500D01*
X156521484Y-184814500D01*
X156357072Y-184781797D01*
X156202200Y-184717647D01*
X156062819Y-184624515D01*
X155944285Y-184505981D01*
X155851153Y-184366600D01*
X155787003Y-184211728D01*
X155754300Y-184047316D01*
X155754300Y-183879684D01*
X155787003Y-183715272D01*
X155851153Y-183560400D01*
X155944285Y-183421019D01*
X156062819Y-183302485D01*
X156202200Y-183209353D01*
X156357072Y-183145203D01*
X156521484Y-183112500D01*
X156689116Y-183112500D01*
X156853528Y-183145203D01*
G37*
G36*
X278659256Y-178096298D02*
G01*
X278765579Y-178117447D01*
X279066042Y-178241903D01*
X279336451Y-178422585D01*
X279566415Y-178652549D01*
X279747097Y-178922958D01*
X279871553Y-179223421D01*
X279935000Y-179542391D01*
X279935000Y-179867609D01*
X279871553Y-180186579D01*
X279747097Y-180487042D01*
X279566415Y-180757451D01*
X279336451Y-180987415D01*
X279066042Y-181168097D01*
X278765579Y-181292553D01*
X278659256Y-181313702D01*
X278446611Y-181356000D01*
X278121389Y-181356000D01*
X277908744Y-181313702D01*
X277802421Y-181292553D01*
X277501958Y-181168097D01*
X277231549Y-180987415D01*
X277001585Y-180757451D01*
X276820903Y-180487042D01*
X276696447Y-180186579D01*
X276633000Y-179867609D01*
X276633000Y-179542391D01*
X276696447Y-179223421D01*
X276820903Y-178922958D01*
X277001585Y-178652549D01*
X277231549Y-178422585D01*
X277501958Y-178241903D01*
X277802421Y-178117447D01*
X277908744Y-178096298D01*
X278121389Y-178054000D01*
X278446611Y-178054000D01*
X278659256Y-178096298D01*
G37*
G36*
X143300549Y-172226116D02*
G01*
X143411734Y-172248232D01*
X143621203Y-172334997D01*
X143809720Y-172460960D01*
X143970040Y-172621280D01*
X144096003Y-172809797D01*
X144182768Y-173019266D01*
X144227000Y-173241636D01*
X144227000Y-173468364D01*
X144182768Y-173690734D01*
X144096003Y-173900203D01*
X143970040Y-174088720D01*
X143809720Y-174249040D01*
X143621203Y-174375003D01*
X143411734Y-174461768D01*
X143300549Y-174483884D01*
X143189365Y-174506000D01*
X142962635Y-174506000D01*
X142851451Y-174483884D01*
X142740266Y-174461768D01*
X142530797Y-174375003D01*
X142342280Y-174249040D01*
X142181960Y-174088720D01*
X142055997Y-173900203D01*
X141969232Y-173690734D01*
X141925000Y-173468364D01*
X141925000Y-173241636D01*
X141969232Y-173019266D01*
X142055997Y-172809797D01*
X142181960Y-172621280D01*
X142342280Y-172460960D01*
X142530797Y-172334997D01*
X142740266Y-172248232D01*
X142851451Y-172226116D01*
X142962635Y-172204000D01*
X143189365Y-172204000D01*
X143300549Y-172226116D01*
G37*
G36*
X138300549Y-172226116D02*
G01*
X138411734Y-172248232D01*
X138621203Y-172334997D01*
X138809720Y-172460960D01*
X138970040Y-172621280D01*
X139096003Y-172809797D01*
X139182768Y-173019266D01*
X139227000Y-173241636D01*
X139227000Y-173468364D01*
X139182768Y-173690734D01*
X139096003Y-173900203D01*
X138970040Y-174088720D01*
X138809720Y-174249040D01*
X138621203Y-174375003D01*
X138411734Y-174461768D01*
X138300549Y-174483884D01*
X138189365Y-174506000D01*
X137962635Y-174506000D01*
X137851451Y-174483884D01*
X137740266Y-174461768D01*
X137530797Y-174375003D01*
X137342280Y-174249040D01*
X137181960Y-174088720D01*
X137055997Y-173900203D01*
X136969232Y-173690734D01*
X136925000Y-173468364D01*
X136925000Y-173241636D01*
X136969232Y-173019266D01*
X137055997Y-172809797D01*
X137181960Y-172621280D01*
X137342280Y-172460960D01*
X137530797Y-172334997D01*
X137740266Y-172248232D01*
X137851451Y-172226116D01*
X137962635Y-172204000D01*
X138189365Y-172204000D01*
X138300549Y-172226116D01*
G37*
G36*
X236152328Y-172790703D02*
G01*
X236307200Y-172854853D01*
X236446581Y-172947985D01*
X236565115Y-173066519D01*
X236658247Y-173205900D01*
X236722397Y-173360772D01*
X236755100Y-173525184D01*
X236755100Y-173692816D01*
X236722397Y-173857228D01*
X236658247Y-174012100D01*
X236565115Y-174151481D01*
X236446581Y-174270015D01*
X236307200Y-174363147D01*
X236152328Y-174427297D01*
X235987916Y-174460000D01*
X235820284Y-174460000D01*
X235655872Y-174427297D01*
X235501000Y-174363147D01*
X235361619Y-174270015D01*
X235243085Y-174151481D01*
X235149953Y-174012100D01*
X235085803Y-173857228D01*
X235053100Y-173692816D01*
X235053100Y-173525184D01*
X235085803Y-173360772D01*
X235149953Y-173205900D01*
X235243085Y-173066519D01*
X235361619Y-172947985D01*
X235501000Y-172854853D01*
X235655872Y-172790703D01*
X235820284Y-172758000D01*
X235987916Y-172758000D01*
X236152328Y-172790703D01*
G37*
G36*
X230958028Y-172790703D02*
G01*
X231112900Y-172854853D01*
X231252281Y-172947985D01*
X231370815Y-173066519D01*
X231463947Y-173205900D01*
X231528097Y-173360772D01*
X231560800Y-173525184D01*
X231560800Y-173692816D01*
X231528097Y-173857228D01*
X231463947Y-174012100D01*
X231370815Y-174151481D01*
X231252281Y-174270015D01*
X231112900Y-174363147D01*
X230958028Y-174427297D01*
X230793616Y-174460000D01*
X230625984Y-174460000D01*
X230461572Y-174427297D01*
X230306700Y-174363147D01*
X230167319Y-174270015D01*
X230048785Y-174151481D01*
X229955653Y-174012100D01*
X229891503Y-173857228D01*
X229858800Y-173692816D01*
X229858800Y-173525184D01*
X229891503Y-173360772D01*
X229955653Y-173205900D01*
X230048785Y-173066519D01*
X230167319Y-172947985D01*
X230306700Y-172854853D01*
X230461572Y-172790703D01*
X230625984Y-172758000D01*
X230793616Y-172758000D01*
X230958028Y-172790703D01*
G37*
G36*
X225763728Y-172790703D02*
G01*
X225918600Y-172854853D01*
X226057981Y-172947985D01*
X226176515Y-173066519D01*
X226269647Y-173205900D01*
X226333797Y-173360772D01*
X226366500Y-173525184D01*
X226366500Y-173692816D01*
X226333797Y-173857228D01*
X226269647Y-174012100D01*
X226176515Y-174151481D01*
X226057981Y-174270015D01*
X225918600Y-174363147D01*
X225763728Y-174427297D01*
X225599316Y-174460000D01*
X225431684Y-174460000D01*
X225267272Y-174427297D01*
X225112400Y-174363147D01*
X224973019Y-174270015D01*
X224854485Y-174151481D01*
X224761353Y-174012100D01*
X224697203Y-173857228D01*
X224664500Y-173692816D01*
X224664500Y-173525184D01*
X224697203Y-173360772D01*
X224761353Y-173205900D01*
X224854485Y-173066519D01*
X224973019Y-172947985D01*
X225112400Y-172854853D01*
X225267272Y-172790703D01*
X225431684Y-172758000D01*
X225599316Y-172758000D01*
X225763728Y-172790703D01*
G37*
G36*
X210180828Y-172790703D02*
G01*
X210335700Y-172854853D01*
X210475081Y-172947985D01*
X210593615Y-173066519D01*
X210686747Y-173205900D01*
X210750897Y-173360772D01*
X210783600Y-173525184D01*
X210783600Y-173692816D01*
X210750897Y-173857228D01*
X210686747Y-174012100D01*
X210593615Y-174151481D01*
X210475081Y-174270015D01*
X210335700Y-174363147D01*
X210180828Y-174427297D01*
X210016416Y-174460000D01*
X209848784Y-174460000D01*
X209684372Y-174427297D01*
X209529500Y-174363147D01*
X209390119Y-174270015D01*
X209271585Y-174151481D01*
X209178453Y-174012100D01*
X209114303Y-173857228D01*
X209081600Y-173692816D01*
X209081600Y-173525184D01*
X209114303Y-173360772D01*
X209178453Y-173205900D01*
X209271585Y-173066519D01*
X209390119Y-172947985D01*
X209529500Y-172854853D01*
X209684372Y-172790703D01*
X209848784Y-172758000D01*
X210016416Y-172758000D01*
X210180828Y-172790703D01*
G37*
G36*
X204986528Y-172790703D02*
G01*
X205141400Y-172854853D01*
X205280781Y-172947985D01*
X205399315Y-173066519D01*
X205492447Y-173205900D01*
X205556597Y-173360772D01*
X205589300Y-173525184D01*
X205589300Y-173692816D01*
X205556597Y-173857228D01*
X205492447Y-174012100D01*
X205399315Y-174151481D01*
X205280781Y-174270015D01*
X205141400Y-174363147D01*
X204986528Y-174427297D01*
X204822116Y-174460000D01*
X204654484Y-174460000D01*
X204490072Y-174427297D01*
X204335200Y-174363147D01*
X204195819Y-174270015D01*
X204077285Y-174151481D01*
X203984153Y-174012100D01*
X203920003Y-173857228D01*
X203887300Y-173692816D01*
X203887300Y-173525184D01*
X203920003Y-173360772D01*
X203984153Y-173205900D01*
X204077285Y-173066519D01*
X204195819Y-172947985D01*
X204335200Y-172854853D01*
X204490072Y-172790703D01*
X204654484Y-172758000D01*
X204822116Y-172758000D01*
X204986528Y-172790703D01*
G37*
G36*
X199792228Y-172790703D02*
G01*
X199947100Y-172854853D01*
X200086481Y-172947985D01*
X200205015Y-173066519D01*
X200298147Y-173205900D01*
X200362297Y-173360772D01*
X200395000Y-173525184D01*
X200395000Y-173692816D01*
X200362297Y-173857228D01*
X200298147Y-174012100D01*
X200205015Y-174151481D01*
X200086481Y-174270015D01*
X199947100Y-174363147D01*
X199792228Y-174427297D01*
X199627816Y-174460000D01*
X199460184Y-174460000D01*
X199295772Y-174427297D01*
X199140900Y-174363147D01*
X199001519Y-174270015D01*
X198882985Y-174151481D01*
X198789853Y-174012100D01*
X198725703Y-173857228D01*
X198693000Y-173692816D01*
X198693000Y-173525184D01*
X198725703Y-173360772D01*
X198789853Y-173205900D01*
X198882985Y-173066519D01*
X199001519Y-172947985D01*
X199140900Y-172854853D01*
X199295772Y-172790703D01*
X199460184Y-172758000D01*
X199627816Y-172758000D01*
X199792228Y-172790703D01*
G37*
G36*
X220569428Y-172790703D02*
G01*
X220724300Y-172854853D01*
X220863681Y-172947985D01*
X220982215Y-173066519D01*
X221075347Y-173205900D01*
X221139497Y-173360772D01*
X221172200Y-173525184D01*
X221172200Y-173692816D01*
X221139497Y-173857228D01*
X221075347Y-174012100D01*
X220982215Y-174151481D01*
X220863681Y-174270015D01*
X220724300Y-174363147D01*
X220569428Y-174427297D01*
X220405016Y-174460000D01*
X220237384Y-174460000D01*
X220072972Y-174427297D01*
X219918100Y-174363147D01*
X219778719Y-174270015D01*
X219660185Y-174151481D01*
X219567053Y-174012100D01*
X219502903Y-173857228D01*
X219470200Y-173692816D01*
X219470200Y-173525184D01*
X219502903Y-173360772D01*
X219567053Y-173205900D01*
X219660185Y-173066519D01*
X219778719Y-172947985D01*
X219918100Y-172854853D01*
X220072972Y-172790703D01*
X220237384Y-172758000D01*
X220405016Y-172758000D01*
X220569428Y-172790703D01*
G37*
G36*
X251735228Y-172790703D02*
G01*
X251890100Y-172854853D01*
X252029481Y-172947985D01*
X252148015Y-173066519D01*
X252241147Y-173205900D01*
X252305297Y-173360772D01*
X252338000Y-173525184D01*
X252338000Y-173692816D01*
X252305297Y-173857228D01*
X252241147Y-174012100D01*
X252148015Y-174151481D01*
X252029481Y-174270015D01*
X251890100Y-174363147D01*
X251735228Y-174427297D01*
X251570816Y-174460000D01*
X251403184Y-174460000D01*
X251238772Y-174427297D01*
X251083900Y-174363147D01*
X250944519Y-174270015D01*
X250825985Y-174151481D01*
X250732853Y-174012100D01*
X250668703Y-173857228D01*
X250636000Y-173692816D01*
X250636000Y-173525184D01*
X250668703Y-173360772D01*
X250732853Y-173205900D01*
X250825985Y-173066519D01*
X250944519Y-172947985D01*
X251083900Y-172854853D01*
X251238772Y-172790703D01*
X251403184Y-172758000D01*
X251570816Y-172758000D01*
X251735228Y-172790703D01*
G37*
G36*
X247036228Y-172790703D02*
G01*
X247191100Y-172854853D01*
X247330481Y-172947985D01*
X247449015Y-173066519D01*
X247542147Y-173205900D01*
X247606297Y-173360772D01*
X247639000Y-173525184D01*
X247639000Y-173692816D01*
X247606297Y-173857228D01*
X247542147Y-174012100D01*
X247449015Y-174151481D01*
X247330481Y-174270015D01*
X247191100Y-174363147D01*
X247036228Y-174427297D01*
X246871816Y-174460000D01*
X246704184Y-174460000D01*
X246539772Y-174427297D01*
X246384900Y-174363147D01*
X246245519Y-174270015D01*
X246126985Y-174151481D01*
X246033853Y-174012100D01*
X245969703Y-173857228D01*
X245937000Y-173692816D01*
X245937000Y-173525184D01*
X245969703Y-173360772D01*
X246033853Y-173205900D01*
X246126985Y-173066519D01*
X246245519Y-172947985D01*
X246384900Y-172854853D01*
X246539772Y-172790703D01*
X246704184Y-172758000D01*
X246871816Y-172758000D01*
X247036228Y-172790703D01*
G37*
G36*
X215375128Y-172790703D02*
G01*
X215530000Y-172854853D01*
X215669381Y-172947985D01*
X215787915Y-173066519D01*
X215881047Y-173205900D01*
X215945197Y-173360772D01*
X215977900Y-173525184D01*
X215977900Y-173692816D01*
X215945197Y-173857228D01*
X215881047Y-174012100D01*
X215787915Y-174151481D01*
X215669381Y-174270015D01*
X215530000Y-174363147D01*
X215375128Y-174427297D01*
X215210716Y-174460000D01*
X215043084Y-174460000D01*
X214878672Y-174427297D01*
X214723800Y-174363147D01*
X214584419Y-174270015D01*
X214465885Y-174151481D01*
X214372753Y-174012100D01*
X214308603Y-173857228D01*
X214275900Y-173692816D01*
X214275900Y-173525184D01*
X214308603Y-173360772D01*
X214372753Y-173205900D01*
X214465885Y-173066519D01*
X214584419Y-172947985D01*
X214723800Y-172854853D01*
X214878672Y-172790703D01*
X215043084Y-172758000D01*
X215210716Y-172758000D01*
X215375128Y-172790703D01*
G37*
G36*
X186017000Y-172782000D02*
G01*
X184115000Y-172782000D01*
X184115000Y-170880000D01*
X186017000Y-170880000D01*
X186017000Y-172782000D01*
G37*
G36*
X187883395Y-170916546D02*
G01*
X188056466Y-170988234D01*
X188056467Y-170988235D01*
X188212227Y-171092310D01*
X188344690Y-171224773D01*
X188344691Y-171224775D01*
X188448766Y-171380534D01*
X188520454Y-171553605D01*
X188557000Y-171737333D01*
X188557000Y-171924667D01*
X188520454Y-172108395D01*
X188448766Y-172281466D01*
X188448765Y-172281467D01*
X188344690Y-172437227D01*
X188212227Y-172569690D01*
X188135017Y-172621280D01*
X188056466Y-172673766D01*
X187883395Y-172745454D01*
X187699667Y-172782000D01*
X187512333Y-172782000D01*
X187328605Y-172745454D01*
X187155534Y-172673766D01*
X187076983Y-172621280D01*
X186999773Y-172569690D01*
X186867310Y-172437227D01*
X186763235Y-172281467D01*
X186763234Y-172281466D01*
X186691546Y-172108395D01*
X186655000Y-171924667D01*
X186655000Y-171737333D01*
X186691546Y-171553605D01*
X186763234Y-171380534D01*
X186867309Y-171224775D01*
X186867310Y-171224773D01*
X186999773Y-171092310D01*
X187155533Y-170988235D01*
X187155534Y-170988234D01*
X187328605Y-170916546D01*
X187512333Y-170880000D01*
X187699667Y-170880000D01*
X187883395Y-170916546D01*
G37*
G36*
X138300549Y-167226116D02*
G01*
X138411734Y-167248232D01*
X138621203Y-167334997D01*
X138809720Y-167460960D01*
X138970040Y-167621280D01*
X139096003Y-167809797D01*
X139182768Y-168019266D01*
X139227000Y-168241636D01*
X139227000Y-168468364D01*
X139182768Y-168690734D01*
X139096003Y-168900203D01*
X138970040Y-169088720D01*
X138809720Y-169249040D01*
X138621203Y-169375003D01*
X138411734Y-169461768D01*
X138300549Y-169483884D01*
X138189365Y-169506000D01*
X137962635Y-169506000D01*
X137851451Y-169483884D01*
X137740266Y-169461768D01*
X137530797Y-169375003D01*
X137342280Y-169249040D01*
X137181960Y-169088720D01*
X137055997Y-168900203D01*
X136969232Y-168690734D01*
X136925000Y-168468364D01*
X136925000Y-168241636D01*
X136969232Y-168019266D01*
X137055997Y-167809797D01*
X137181960Y-167621280D01*
X137342280Y-167460960D01*
X137530797Y-167334997D01*
X137740266Y-167248232D01*
X137851451Y-167226116D01*
X137962635Y-167204000D01*
X138189365Y-167204000D01*
X138300549Y-167226116D01*
G37*
G36*
X143300549Y-167226116D02*
G01*
X143411734Y-167248232D01*
X143621203Y-167334997D01*
X143809720Y-167460960D01*
X143970040Y-167621280D01*
X144096003Y-167809797D01*
X144182768Y-168019266D01*
X144227000Y-168241636D01*
X144227000Y-168468364D01*
X144182768Y-168690734D01*
X144096003Y-168900203D01*
X143970040Y-169088720D01*
X143809720Y-169249040D01*
X143621203Y-169375003D01*
X143411734Y-169461768D01*
X143300549Y-169483884D01*
X143189365Y-169506000D01*
X142962635Y-169506000D01*
X142851451Y-169483884D01*
X142740266Y-169461768D01*
X142530797Y-169375003D01*
X142342280Y-169249040D01*
X142181960Y-169088720D01*
X142055997Y-168900203D01*
X141969232Y-168690734D01*
X141925000Y-168468364D01*
X141925000Y-168241636D01*
X141969232Y-168019266D01*
X142055997Y-167809797D01*
X142181960Y-167621280D01*
X142342280Y-167460960D01*
X142530797Y-167334997D01*
X142740266Y-167248232D01*
X142851451Y-167226116D01*
X142962635Y-167204000D01*
X143189365Y-167204000D01*
X143300549Y-167226116D01*
G37*
G36*
X230958028Y-165170703D02*
G01*
X231112900Y-165234853D01*
X231252281Y-165327985D01*
X231370815Y-165446519D01*
X231463947Y-165585900D01*
X231528097Y-165740772D01*
X231560800Y-165905184D01*
X231560800Y-166072816D01*
X231528097Y-166237228D01*
X231463947Y-166392100D01*
X231370815Y-166531481D01*
X231252281Y-166650015D01*
X231112900Y-166743147D01*
X230958028Y-166807297D01*
X230793616Y-166840000D01*
X230625984Y-166840000D01*
X230461572Y-166807297D01*
X230306700Y-166743147D01*
X230167319Y-166650015D01*
X230048785Y-166531481D01*
X229955653Y-166392100D01*
X229891503Y-166237228D01*
X229858800Y-166072816D01*
X229858800Y-165905184D01*
X229891503Y-165740772D01*
X229955653Y-165585900D01*
X230048785Y-165446519D01*
X230167319Y-165327985D01*
X230306700Y-165234853D01*
X230461572Y-165170703D01*
X230625984Y-165138000D01*
X230793616Y-165138000D01*
X230958028Y-165170703D01*
G37*
G36*
X220569428Y-165170703D02*
G01*
X220724300Y-165234853D01*
X220863681Y-165327985D01*
X220982215Y-165446519D01*
X221075347Y-165585900D01*
X221139497Y-165740772D01*
X221172200Y-165905184D01*
X221172200Y-166072816D01*
X221139497Y-166237228D01*
X221075347Y-166392100D01*
X220982215Y-166531481D01*
X220863681Y-166650015D01*
X220724300Y-166743147D01*
X220569428Y-166807297D01*
X220405016Y-166840000D01*
X220237384Y-166840000D01*
X220072972Y-166807297D01*
X219918100Y-166743147D01*
X219778719Y-166650015D01*
X219660185Y-166531481D01*
X219567053Y-166392100D01*
X219502903Y-166237228D01*
X219470200Y-166072816D01*
X219470200Y-165905184D01*
X219502903Y-165740772D01*
X219567053Y-165585900D01*
X219660185Y-165446519D01*
X219778719Y-165327985D01*
X219918100Y-165234853D01*
X220072972Y-165170703D01*
X220237384Y-165138000D01*
X220405016Y-165138000D01*
X220569428Y-165170703D01*
G37*
G36*
X236152328Y-165170703D02*
G01*
X236307200Y-165234853D01*
X236446581Y-165327985D01*
X236565115Y-165446519D01*
X236658247Y-165585900D01*
X236722397Y-165740772D01*
X236755100Y-165905184D01*
X236755100Y-166072816D01*
X236722397Y-166237228D01*
X236658247Y-166392100D01*
X236565115Y-166531481D01*
X236446581Y-166650015D01*
X236307200Y-166743147D01*
X236152328Y-166807297D01*
X235987916Y-166840000D01*
X235820284Y-166840000D01*
X235655872Y-166807297D01*
X235501000Y-166743147D01*
X235361619Y-166650015D01*
X235243085Y-166531481D01*
X235149953Y-166392100D01*
X235085803Y-166237228D01*
X235053100Y-166072816D01*
X235053100Y-165905184D01*
X235085803Y-165740772D01*
X235149953Y-165585900D01*
X235243085Y-165446519D01*
X235361619Y-165327985D01*
X235501000Y-165234853D01*
X235655872Y-165170703D01*
X235820284Y-165138000D01*
X235987916Y-165138000D01*
X236152328Y-165170703D01*
G37*
G36*
X247036228Y-165170703D02*
G01*
X247191100Y-165234853D01*
X247330481Y-165327985D01*
X247449015Y-165446519D01*
X247542147Y-165585900D01*
X247606297Y-165740772D01*
X247639000Y-165905184D01*
X247639000Y-166072816D01*
X247606297Y-166237228D01*
X247542147Y-166392100D01*
X247449015Y-166531481D01*
X247330481Y-166650015D01*
X247191100Y-166743147D01*
X247036228Y-166807297D01*
X246871816Y-166840000D01*
X246704184Y-166840000D01*
X246539772Y-166807297D01*
X246384900Y-166743147D01*
X246245519Y-166650015D01*
X246126985Y-166531481D01*
X246033853Y-166392100D01*
X245969703Y-166237228D01*
X245937000Y-166072816D01*
X245937000Y-165905184D01*
X245969703Y-165740772D01*
X246033853Y-165585900D01*
X246126985Y-165446519D01*
X246245519Y-165327985D01*
X246384900Y-165234853D01*
X246539772Y-165170703D01*
X246704184Y-165138000D01*
X246871816Y-165138000D01*
X247036228Y-165170703D01*
G37*
G36*
X251735228Y-165170703D02*
G01*
X251890100Y-165234853D01*
X252029481Y-165327985D01*
X252148015Y-165446519D01*
X252241147Y-165585900D01*
X252305297Y-165740772D01*
X252338000Y-165905184D01*
X252338000Y-166072816D01*
X252305297Y-166237228D01*
X252241147Y-166392100D01*
X252148015Y-166531481D01*
X252029481Y-166650015D01*
X251890100Y-166743147D01*
X251735228Y-166807297D01*
X251570816Y-166840000D01*
X251403184Y-166840000D01*
X251238772Y-166807297D01*
X251083900Y-166743147D01*
X250944519Y-166650015D01*
X250825985Y-166531481D01*
X250732853Y-166392100D01*
X250668703Y-166237228D01*
X250636000Y-166072816D01*
X250636000Y-165905184D01*
X250668703Y-165740772D01*
X250732853Y-165585900D01*
X250825985Y-165446519D01*
X250944519Y-165327985D01*
X251083900Y-165234853D01*
X251238772Y-165170703D01*
X251403184Y-165138000D01*
X251570816Y-165138000D01*
X251735228Y-165170703D01*
G37*
G36*
X204986528Y-165170703D02*
G01*
X205141400Y-165234853D01*
X205280781Y-165327985D01*
X205399315Y-165446519D01*
X205492447Y-165585900D01*
X205556597Y-165740772D01*
X205589300Y-165905184D01*
X205589300Y-166072816D01*
X205556597Y-166237228D01*
X205492447Y-166392100D01*
X205399315Y-166531481D01*
X205280781Y-166650015D01*
X205141400Y-166743147D01*
X204986528Y-166807297D01*
X204822116Y-166840000D01*
X204654484Y-166840000D01*
X204490072Y-166807297D01*
X204335200Y-166743147D01*
X204195819Y-166650015D01*
X204077285Y-166531481D01*
X203984153Y-166392100D01*
X203920003Y-166237228D01*
X203887300Y-166072816D01*
X203887300Y-165905184D01*
X203920003Y-165740772D01*
X203984153Y-165585900D01*
X204077285Y-165446519D01*
X204195819Y-165327985D01*
X204335200Y-165234853D01*
X204490072Y-165170703D01*
X204654484Y-165138000D01*
X204822116Y-165138000D01*
X204986528Y-165170703D01*
G37*
G36*
X210180828Y-165170703D02*
G01*
X210335700Y-165234853D01*
X210475081Y-165327985D01*
X210593615Y-165446519D01*
X210686747Y-165585900D01*
X210750897Y-165740772D01*
X210783600Y-165905184D01*
X210783600Y-166072816D01*
X210750897Y-166237228D01*
X210686747Y-166392100D01*
X210593615Y-166531481D01*
X210475081Y-166650015D01*
X210335700Y-166743147D01*
X210180828Y-166807297D01*
X210016416Y-166840000D01*
X209848784Y-166840000D01*
X209684372Y-166807297D01*
X209529500Y-166743147D01*
X209390119Y-166650015D01*
X209271585Y-166531481D01*
X209178453Y-166392100D01*
X209114303Y-166237228D01*
X209081600Y-166072816D01*
X209081600Y-165905184D01*
X209114303Y-165740772D01*
X209178453Y-165585900D01*
X209271585Y-165446519D01*
X209390119Y-165327985D01*
X209529500Y-165234853D01*
X209684372Y-165170703D01*
X209848784Y-165138000D01*
X210016416Y-165138000D01*
X210180828Y-165170703D01*
G37*
G36*
X215375128Y-165170703D02*
G01*
X215530000Y-165234853D01*
X215669381Y-165327985D01*
X215787915Y-165446519D01*
X215881047Y-165585900D01*
X215945197Y-165740772D01*
X215977900Y-165905184D01*
X215977900Y-166072816D01*
X215945197Y-166237228D01*
X215881047Y-166392100D01*
X215787915Y-166531481D01*
X215669381Y-166650015D01*
X215530000Y-166743147D01*
X215375128Y-166807297D01*
X215210716Y-166840000D01*
X215043084Y-166840000D01*
X214878672Y-166807297D01*
X214723800Y-166743147D01*
X214584419Y-166650015D01*
X214465885Y-166531481D01*
X214372753Y-166392100D01*
X214308603Y-166237228D01*
X214275900Y-166072816D01*
X214275900Y-165905184D01*
X214308603Y-165740772D01*
X214372753Y-165585900D01*
X214465885Y-165446519D01*
X214584419Y-165327985D01*
X214723800Y-165234853D01*
X214878672Y-165170703D01*
X215043084Y-165138000D01*
X215210716Y-165138000D01*
X215375128Y-165170703D01*
G37*
G36*
X225763728Y-165170703D02*
G01*
X225918600Y-165234853D01*
X226057981Y-165327985D01*
X226176515Y-165446519D01*
X226269647Y-165585900D01*
X226333797Y-165740772D01*
X226366500Y-165905184D01*
X226366500Y-166072816D01*
X226333797Y-166237228D01*
X226269647Y-166392100D01*
X226176515Y-166531481D01*
X226057981Y-166650015D01*
X225918600Y-166743147D01*
X225763728Y-166807297D01*
X225599316Y-166840000D01*
X225431684Y-166840000D01*
X225267272Y-166807297D01*
X225112400Y-166743147D01*
X224973019Y-166650015D01*
X224854485Y-166531481D01*
X224761353Y-166392100D01*
X224697203Y-166237228D01*
X224664500Y-166072816D01*
X224664500Y-165905184D01*
X224697203Y-165740772D01*
X224761353Y-165585900D01*
X224854485Y-165446519D01*
X224973019Y-165327985D01*
X225112400Y-165234853D01*
X225267272Y-165170703D01*
X225431684Y-165138000D01*
X225599316Y-165138000D01*
X225763728Y-165170703D01*
G37*
G36*
X199792228Y-165170703D02*
G01*
X199947100Y-165234853D01*
X200086481Y-165327985D01*
X200205015Y-165446519D01*
X200298147Y-165585900D01*
X200362297Y-165740772D01*
X200395000Y-165905184D01*
X200395000Y-166072816D01*
X200362297Y-166237228D01*
X200298147Y-166392100D01*
X200205015Y-166531481D01*
X200086481Y-166650015D01*
X199947100Y-166743147D01*
X199792228Y-166807297D01*
X199627816Y-166840000D01*
X199460184Y-166840000D01*
X199295772Y-166807297D01*
X199140900Y-166743147D01*
X199001519Y-166650015D01*
X198882985Y-166531481D01*
X198789853Y-166392100D01*
X198725703Y-166237228D01*
X198693000Y-166072816D01*
X198693000Y-165905184D01*
X198725703Y-165740772D01*
X198789853Y-165585900D01*
X198882985Y-165446519D01*
X199001519Y-165327985D01*
X199140900Y-165234853D01*
X199295772Y-165170703D01*
X199460184Y-165138000D01*
X199627816Y-165138000D01*
X199792228Y-165170703D01*
G37*
G36*
X182893512Y-156329927D02*
G01*
X183042812Y-156359624D01*
X183206784Y-156427544D01*
X183354354Y-156526147D01*
X183479853Y-156651646D01*
X183578456Y-156799216D01*
X183646376Y-156963188D01*
X183681000Y-157137259D01*
X183681000Y-157314741D01*
X183646376Y-157488812D01*
X183578456Y-157652784D01*
X183479853Y-157800354D01*
X183354354Y-157925853D01*
X183206784Y-158024456D01*
X183042812Y-158092376D01*
X182893512Y-158122073D01*
X182868742Y-158127000D01*
X182691258Y-158127000D01*
X182666488Y-158122073D01*
X182517188Y-158092376D01*
X182353216Y-158024456D01*
X182205646Y-157925853D01*
X182080147Y-157800354D01*
X181981544Y-157652784D01*
X181913624Y-157488812D01*
X181879000Y-157314741D01*
X181879000Y-157137259D01*
X181913624Y-156963188D01*
X181981544Y-156799216D01*
X182080147Y-156651646D01*
X182205646Y-156526147D01*
X182353216Y-156427544D01*
X182517188Y-156359624D01*
X182666488Y-156329927D01*
X182691258Y-156325000D01*
X182868742Y-156325000D01*
X182893512Y-156329927D01*
G37*
G36*
X187973512Y-156329927D02*
G01*
X188122812Y-156359624D01*
X188286784Y-156427544D01*
X188434354Y-156526147D01*
X188559853Y-156651646D01*
X188658456Y-156799216D01*
X188726376Y-156963188D01*
X188761000Y-157137259D01*
X188761000Y-157314741D01*
X188726376Y-157488812D01*
X188658456Y-157652784D01*
X188559853Y-157800354D01*
X188434354Y-157925853D01*
X188286784Y-158024456D01*
X188122812Y-158092376D01*
X187973512Y-158122073D01*
X187948742Y-158127000D01*
X187771258Y-158127000D01*
X187746488Y-158122073D01*
X187597188Y-158092376D01*
X187433216Y-158024456D01*
X187285646Y-157925853D01*
X187160147Y-157800354D01*
X187061544Y-157652784D01*
X186993624Y-157488812D01*
X186959000Y-157314741D01*
X186959000Y-157137259D01*
X186993624Y-156963188D01*
X187061544Y-156799216D01*
X187160147Y-156651646D01*
X187285646Y-156526147D01*
X187433216Y-156427544D01*
X187597188Y-156359624D01*
X187746488Y-156329927D01*
X187771258Y-156325000D01*
X187948742Y-156325000D01*
X187973512Y-156329927D01*
G37*
G36*
X185433512Y-156329927D02*
G01*
X185582812Y-156359624D01*
X185746784Y-156427544D01*
X185894354Y-156526147D01*
X186019853Y-156651646D01*
X186118456Y-156799216D01*
X186186376Y-156963188D01*
X186221000Y-157137259D01*
X186221000Y-157314741D01*
X186186376Y-157488812D01*
X186118456Y-157652784D01*
X186019853Y-157800354D01*
X185894354Y-157925853D01*
X185746784Y-158024456D01*
X185582812Y-158092376D01*
X185433512Y-158122073D01*
X185408742Y-158127000D01*
X185231258Y-158127000D01*
X185206488Y-158122073D01*
X185057188Y-158092376D01*
X184893216Y-158024456D01*
X184745646Y-157925853D01*
X184620147Y-157800354D01*
X184521544Y-157652784D01*
X184453624Y-157488812D01*
X184419000Y-157314741D01*
X184419000Y-157137259D01*
X184453624Y-156963188D01*
X184521544Y-156799216D01*
X184620147Y-156651646D01*
X184745646Y-156526147D01*
X184893216Y-156427544D01*
X185057188Y-156359624D01*
X185206488Y-156329927D01*
X185231258Y-156325000D01*
X185408742Y-156325000D01*
X185433512Y-156329927D01*
G37*
G36*
X190513512Y-156329927D02*
G01*
X190662812Y-156359624D01*
X190826784Y-156427544D01*
X190974354Y-156526147D01*
X191099853Y-156651646D01*
X191198456Y-156799216D01*
X191266376Y-156963188D01*
X191301000Y-157137259D01*
X191301000Y-157314741D01*
X191266376Y-157488812D01*
X191198456Y-157652784D01*
X191099853Y-157800354D01*
X190974354Y-157925853D01*
X190826784Y-158024456D01*
X190662812Y-158092376D01*
X190513512Y-158122073D01*
X190488742Y-158127000D01*
X190311258Y-158127000D01*
X190286488Y-158122073D01*
X190137188Y-158092376D01*
X189973216Y-158024456D01*
X189825646Y-157925853D01*
X189700147Y-157800354D01*
X189601544Y-157652784D01*
X189533624Y-157488812D01*
X189499000Y-157314741D01*
X189499000Y-157137259D01*
X189533624Y-156963188D01*
X189601544Y-156799216D01*
X189700147Y-156651646D01*
X189825646Y-156526147D01*
X189973216Y-156427544D01*
X190137188Y-156359624D01*
X190286488Y-156329927D01*
X190311258Y-156325000D01*
X190488742Y-156325000D01*
X190513512Y-156329927D01*
G37*
G36*
X193053512Y-156329927D02*
G01*
X193202812Y-156359624D01*
X193366784Y-156427544D01*
X193514354Y-156526147D01*
X193639853Y-156651646D01*
X193738456Y-156799216D01*
X193806376Y-156963188D01*
X193841000Y-157137259D01*
X193841000Y-157314741D01*
X193806376Y-157488812D01*
X193738456Y-157652784D01*
X193639853Y-157800354D01*
X193514354Y-157925853D01*
X193366784Y-158024456D01*
X193202812Y-158092376D01*
X193053512Y-158122073D01*
X193028742Y-158127000D01*
X192851258Y-158127000D01*
X192826488Y-158122073D01*
X192677188Y-158092376D01*
X192513216Y-158024456D01*
X192365646Y-157925853D01*
X192240147Y-157800354D01*
X192141544Y-157652784D01*
X192073624Y-157488812D01*
X192039000Y-157314741D01*
X192039000Y-157137259D01*
X192073624Y-156963188D01*
X192141544Y-156799216D01*
X192240147Y-156651646D01*
X192365646Y-156526147D01*
X192513216Y-156427544D01*
X192677188Y-156359624D01*
X192826488Y-156329927D01*
X192851258Y-156325000D01*
X193028742Y-156325000D01*
X193053512Y-156329927D01*
G37*
G36*
X195593512Y-156329927D02*
G01*
X195742812Y-156359624D01*
X195906784Y-156427544D01*
X196054354Y-156526147D01*
X196179853Y-156651646D01*
X196278456Y-156799216D01*
X196346376Y-156963188D01*
X196381000Y-157137259D01*
X196381000Y-157314741D01*
X196346376Y-157488812D01*
X196278456Y-157652784D01*
X196179853Y-157800354D01*
X196054354Y-157925853D01*
X195906784Y-158024456D01*
X195742812Y-158092376D01*
X195593512Y-158122073D01*
X195568742Y-158127000D01*
X195391258Y-158127000D01*
X195366488Y-158122073D01*
X195217188Y-158092376D01*
X195053216Y-158024456D01*
X194905646Y-157925853D01*
X194780147Y-157800354D01*
X194681544Y-157652784D01*
X194613624Y-157488812D01*
X194579000Y-157314741D01*
X194579000Y-157137259D01*
X194613624Y-156963188D01*
X194681544Y-156799216D01*
X194780147Y-156651646D01*
X194905646Y-156526147D01*
X195053216Y-156427544D01*
X195217188Y-156359624D01*
X195366488Y-156329927D01*
X195391258Y-156325000D01*
X195568742Y-156325000D01*
X195593512Y-156329927D01*
G37*
G36*
X198133512Y-156329927D02*
G01*
X198282812Y-156359624D01*
X198446784Y-156427544D01*
X198594354Y-156526147D01*
X198719853Y-156651646D01*
X198818456Y-156799216D01*
X198886376Y-156963188D01*
X198921000Y-157137259D01*
X198921000Y-157314741D01*
X198886376Y-157488812D01*
X198818456Y-157652784D01*
X198719853Y-157800354D01*
X198594354Y-157925853D01*
X198446784Y-158024456D01*
X198282812Y-158092376D01*
X198133512Y-158122073D01*
X198108742Y-158127000D01*
X197931258Y-158127000D01*
X197906488Y-158122073D01*
X197757188Y-158092376D01*
X197593216Y-158024456D01*
X197445646Y-157925853D01*
X197320147Y-157800354D01*
X197221544Y-157652784D01*
X197153624Y-157488812D01*
X197119000Y-157314741D01*
X197119000Y-157137259D01*
X197153624Y-156963188D01*
X197221544Y-156799216D01*
X197320147Y-156651646D01*
X197445646Y-156526147D01*
X197593216Y-156427544D01*
X197757188Y-156359624D01*
X197906488Y-156329927D01*
X197931258Y-156325000D01*
X198108742Y-156325000D01*
X198133512Y-156329927D01*
G37*
G36*
X223533512Y-156329927D02*
G01*
X223682812Y-156359624D01*
X223846784Y-156427544D01*
X223994354Y-156526147D01*
X224119853Y-156651646D01*
X224218456Y-156799216D01*
X224286376Y-156963188D01*
X224321000Y-157137259D01*
X224321000Y-157314741D01*
X224286376Y-157488812D01*
X224218456Y-157652784D01*
X224119853Y-157800354D01*
X223994354Y-157925853D01*
X223846784Y-158024456D01*
X223682812Y-158092376D01*
X223533512Y-158122073D01*
X223508742Y-158127000D01*
X223331258Y-158127000D01*
X223306488Y-158122073D01*
X223157188Y-158092376D01*
X222993216Y-158024456D01*
X222845646Y-157925853D01*
X222720147Y-157800354D01*
X222621544Y-157652784D01*
X222553624Y-157488812D01*
X222519000Y-157314741D01*
X222519000Y-157137259D01*
X222553624Y-156963188D01*
X222621544Y-156799216D01*
X222720147Y-156651646D01*
X222845646Y-156526147D01*
X222993216Y-156427544D01*
X223157188Y-156359624D01*
X223306488Y-156329927D01*
X223331258Y-156325000D01*
X223508742Y-156325000D01*
X223533512Y-156329927D01*
G37*
G36*
X203213512Y-156329927D02*
G01*
X203362812Y-156359624D01*
X203526784Y-156427544D01*
X203674354Y-156526147D01*
X203799853Y-156651646D01*
X203898456Y-156799216D01*
X203966376Y-156963188D01*
X204001000Y-157137259D01*
X204001000Y-157314741D01*
X203966376Y-157488812D01*
X203898456Y-157652784D01*
X203799853Y-157800354D01*
X203674354Y-157925853D01*
X203526784Y-158024456D01*
X203362812Y-158092376D01*
X203213512Y-158122073D01*
X203188742Y-158127000D01*
X203011258Y-158127000D01*
X202986488Y-158122073D01*
X202837188Y-158092376D01*
X202673216Y-158024456D01*
X202525646Y-157925853D01*
X202400147Y-157800354D01*
X202301544Y-157652784D01*
X202233624Y-157488812D01*
X202199000Y-157314741D01*
X202199000Y-157137259D01*
X202233624Y-156963188D01*
X202301544Y-156799216D01*
X202400147Y-156651646D01*
X202525646Y-156526147D01*
X202673216Y-156427544D01*
X202837188Y-156359624D01*
X202986488Y-156329927D01*
X203011258Y-156325000D01*
X203188742Y-156325000D01*
X203213512Y-156329927D01*
G37*
G36*
X205753512Y-156329927D02*
G01*
X205902812Y-156359624D01*
X206066784Y-156427544D01*
X206214354Y-156526147D01*
X206339853Y-156651646D01*
X206438456Y-156799216D01*
X206506376Y-156963188D01*
X206541000Y-157137259D01*
X206541000Y-157314741D01*
X206506376Y-157488812D01*
X206438456Y-157652784D01*
X206339853Y-157800354D01*
X206214354Y-157925853D01*
X206066784Y-158024456D01*
X205902812Y-158092376D01*
X205753512Y-158122073D01*
X205728742Y-158127000D01*
X205551258Y-158127000D01*
X205526488Y-158122073D01*
X205377188Y-158092376D01*
X205213216Y-158024456D01*
X205065646Y-157925853D01*
X204940147Y-157800354D01*
X204841544Y-157652784D01*
X204773624Y-157488812D01*
X204739000Y-157314741D01*
X204739000Y-157137259D01*
X204773624Y-156963188D01*
X204841544Y-156799216D01*
X204940147Y-156651646D01*
X205065646Y-156526147D01*
X205213216Y-156427544D01*
X205377188Y-156359624D01*
X205526488Y-156329927D01*
X205551258Y-156325000D01*
X205728742Y-156325000D01*
X205753512Y-156329927D01*
G37*
G36*
X208293512Y-156329927D02*
G01*
X208442812Y-156359624D01*
X208606784Y-156427544D01*
X208754354Y-156526147D01*
X208879853Y-156651646D01*
X208978456Y-156799216D01*
X209046376Y-156963188D01*
X209081000Y-157137259D01*
X209081000Y-157314741D01*
X209046376Y-157488812D01*
X208978456Y-157652784D01*
X208879853Y-157800354D01*
X208754354Y-157925853D01*
X208606784Y-158024456D01*
X208442812Y-158092376D01*
X208293512Y-158122073D01*
X208268742Y-158127000D01*
X208091258Y-158127000D01*
X208066488Y-158122073D01*
X207917188Y-158092376D01*
X207753216Y-158024456D01*
X207605646Y-157925853D01*
X207480147Y-157800354D01*
X207381544Y-157652784D01*
X207313624Y-157488812D01*
X207279000Y-157314741D01*
X207279000Y-157137259D01*
X207313624Y-156963188D01*
X207381544Y-156799216D01*
X207480147Y-156651646D01*
X207605646Y-156526147D01*
X207753216Y-156427544D01*
X207917188Y-156359624D01*
X208066488Y-156329927D01*
X208091258Y-156325000D01*
X208268742Y-156325000D01*
X208293512Y-156329927D01*
G37*
G36*
X210833512Y-156329927D02*
G01*
X210982812Y-156359624D01*
X211146784Y-156427544D01*
X211294354Y-156526147D01*
X211419853Y-156651646D01*
X211518456Y-156799216D01*
X211586376Y-156963188D01*
X211621000Y-157137259D01*
X211621000Y-157314741D01*
X211586376Y-157488812D01*
X211518456Y-157652784D01*
X211419853Y-157800354D01*
X211294354Y-157925853D01*
X211146784Y-158024456D01*
X210982812Y-158092376D01*
X210833512Y-158122073D01*
X210808742Y-158127000D01*
X210631258Y-158127000D01*
X210606488Y-158122073D01*
X210457188Y-158092376D01*
X210293216Y-158024456D01*
X210145646Y-157925853D01*
X210020147Y-157800354D01*
X209921544Y-157652784D01*
X209853624Y-157488812D01*
X209819000Y-157314741D01*
X209819000Y-157137259D01*
X209853624Y-156963188D01*
X209921544Y-156799216D01*
X210020147Y-156651646D01*
X210145646Y-156526147D01*
X210293216Y-156427544D01*
X210457188Y-156359624D01*
X210606488Y-156329927D01*
X210631258Y-156325000D01*
X210808742Y-156325000D01*
X210833512Y-156329927D01*
G37*
G36*
X213373512Y-156329927D02*
G01*
X213522812Y-156359624D01*
X213686784Y-156427544D01*
X213834354Y-156526147D01*
X213959853Y-156651646D01*
X214058456Y-156799216D01*
X214126376Y-156963188D01*
X214161000Y-157137259D01*
X214161000Y-157314741D01*
X214126376Y-157488812D01*
X214058456Y-157652784D01*
X213959853Y-157800354D01*
X213834354Y-157925853D01*
X213686784Y-158024456D01*
X213522812Y-158092376D01*
X213373512Y-158122073D01*
X213348742Y-158127000D01*
X213171258Y-158127000D01*
X213146488Y-158122073D01*
X212997188Y-158092376D01*
X212833216Y-158024456D01*
X212685646Y-157925853D01*
X212560147Y-157800354D01*
X212461544Y-157652784D01*
X212393624Y-157488812D01*
X212359000Y-157314741D01*
X212359000Y-157137259D01*
X212393624Y-156963188D01*
X212461544Y-156799216D01*
X212560147Y-156651646D01*
X212685646Y-156526147D01*
X212833216Y-156427544D01*
X212997188Y-156359624D01*
X213146488Y-156329927D01*
X213171258Y-156325000D01*
X213348742Y-156325000D01*
X213373512Y-156329927D01*
G37*
G36*
X215913512Y-156329927D02*
G01*
X216062812Y-156359624D01*
X216226784Y-156427544D01*
X216374354Y-156526147D01*
X216499853Y-156651646D01*
X216598456Y-156799216D01*
X216666376Y-156963188D01*
X216701000Y-157137259D01*
X216701000Y-157314741D01*
X216666376Y-157488812D01*
X216598456Y-157652784D01*
X216499853Y-157800354D01*
X216374354Y-157925853D01*
X216226784Y-158024456D01*
X216062812Y-158092376D01*
X215913512Y-158122073D01*
X215888742Y-158127000D01*
X215711258Y-158127000D01*
X215686488Y-158122073D01*
X215537188Y-158092376D01*
X215373216Y-158024456D01*
X215225646Y-157925853D01*
X215100147Y-157800354D01*
X215001544Y-157652784D01*
X214933624Y-157488812D01*
X214899000Y-157314741D01*
X214899000Y-157137259D01*
X214933624Y-156963188D01*
X215001544Y-156799216D01*
X215100147Y-156651646D01*
X215225646Y-156526147D01*
X215373216Y-156427544D01*
X215537188Y-156359624D01*
X215686488Y-156329927D01*
X215711258Y-156325000D01*
X215888742Y-156325000D01*
X215913512Y-156329927D01*
G37*
G36*
X218453512Y-156329927D02*
G01*
X218602812Y-156359624D01*
X218766784Y-156427544D01*
X218914354Y-156526147D01*
X219039853Y-156651646D01*
X219138456Y-156799216D01*
X219206376Y-156963188D01*
X219241000Y-157137259D01*
X219241000Y-157314741D01*
X219206376Y-157488812D01*
X219138456Y-157652784D01*
X219039853Y-157800354D01*
X218914354Y-157925853D01*
X218766784Y-158024456D01*
X218602812Y-158092376D01*
X218453512Y-158122073D01*
X218428742Y-158127000D01*
X218251258Y-158127000D01*
X218226488Y-158122073D01*
X218077188Y-158092376D01*
X217913216Y-158024456D01*
X217765646Y-157925853D01*
X217640147Y-157800354D01*
X217541544Y-157652784D01*
X217473624Y-157488812D01*
X217439000Y-157314741D01*
X217439000Y-157137259D01*
X217473624Y-156963188D01*
X217541544Y-156799216D01*
X217640147Y-156651646D01*
X217765646Y-156526147D01*
X217913216Y-156427544D01*
X218077188Y-156359624D01*
X218226488Y-156329927D01*
X218251258Y-156325000D01*
X218428742Y-156325000D01*
X218453512Y-156329927D01*
G37*
G36*
X200673512Y-156329927D02*
G01*
X200822812Y-156359624D01*
X200986784Y-156427544D01*
X201134354Y-156526147D01*
X201259853Y-156651646D01*
X201358456Y-156799216D01*
X201426376Y-156963188D01*
X201461000Y-157137259D01*
X201461000Y-157314741D01*
X201426376Y-157488812D01*
X201358456Y-157652784D01*
X201259853Y-157800354D01*
X201134354Y-157925853D01*
X200986784Y-158024456D01*
X200822812Y-158092376D01*
X200673512Y-158122073D01*
X200648742Y-158127000D01*
X200471258Y-158127000D01*
X200446488Y-158122073D01*
X200297188Y-158092376D01*
X200133216Y-158024456D01*
X199985646Y-157925853D01*
X199860147Y-157800354D01*
X199761544Y-157652784D01*
X199693624Y-157488812D01*
X199659000Y-157314741D01*
X199659000Y-157137259D01*
X199693624Y-156963188D01*
X199761544Y-156799216D01*
X199860147Y-156651646D01*
X199985646Y-156526147D01*
X200133216Y-156427544D01*
X200297188Y-156359624D01*
X200446488Y-156329927D01*
X200471258Y-156325000D01*
X200648742Y-156325000D01*
X200673512Y-156329927D01*
G37*
G36*
X228613512Y-156329927D02*
G01*
X228762812Y-156359624D01*
X228926784Y-156427544D01*
X229074354Y-156526147D01*
X229199853Y-156651646D01*
X229298456Y-156799216D01*
X229366376Y-156963188D01*
X229401000Y-157137259D01*
X229401000Y-157314741D01*
X229366376Y-157488812D01*
X229298456Y-157652784D01*
X229199853Y-157800354D01*
X229074354Y-157925853D01*
X228926784Y-158024456D01*
X228762812Y-158092376D01*
X228613512Y-158122073D01*
X228588742Y-158127000D01*
X228411258Y-158127000D01*
X228386488Y-158122073D01*
X228237188Y-158092376D01*
X228073216Y-158024456D01*
X227925646Y-157925853D01*
X227800147Y-157800354D01*
X227701544Y-157652784D01*
X227633624Y-157488812D01*
X227599000Y-157314741D01*
X227599000Y-157137259D01*
X227633624Y-156963188D01*
X227701544Y-156799216D01*
X227800147Y-156651646D01*
X227925646Y-156526147D01*
X228073216Y-156427544D01*
X228237188Y-156359624D01*
X228386488Y-156329927D01*
X228411258Y-156325000D01*
X228588742Y-156325000D01*
X228613512Y-156329927D01*
G37*
G36*
X231153512Y-156329927D02*
G01*
X231302812Y-156359624D01*
X231466784Y-156427544D01*
X231614354Y-156526147D01*
X231739853Y-156651646D01*
X231838456Y-156799216D01*
X231906376Y-156963188D01*
X231941000Y-157137259D01*
X231941000Y-157314741D01*
X231906376Y-157488812D01*
X231838456Y-157652784D01*
X231739853Y-157800354D01*
X231614354Y-157925853D01*
X231466784Y-158024456D01*
X231302812Y-158092376D01*
X231153512Y-158122073D01*
X231128742Y-158127000D01*
X230951258Y-158127000D01*
X230926488Y-158122073D01*
X230777188Y-158092376D01*
X230613216Y-158024456D01*
X230465646Y-157925853D01*
X230340147Y-157800354D01*
X230241544Y-157652784D01*
X230173624Y-157488812D01*
X230139000Y-157314741D01*
X230139000Y-157137259D01*
X230173624Y-156963188D01*
X230241544Y-156799216D01*
X230340147Y-156651646D01*
X230465646Y-156526147D01*
X230613216Y-156427544D01*
X230777188Y-156359624D01*
X230926488Y-156329927D01*
X230951258Y-156325000D01*
X231128742Y-156325000D01*
X231153512Y-156329927D01*
G37*
G36*
X233693512Y-156329927D02*
G01*
X233842812Y-156359624D01*
X234006784Y-156427544D01*
X234154354Y-156526147D01*
X234279853Y-156651646D01*
X234378456Y-156799216D01*
X234446376Y-156963188D01*
X234481000Y-157137259D01*
X234481000Y-157314741D01*
X234446376Y-157488812D01*
X234378456Y-157652784D01*
X234279853Y-157800354D01*
X234154354Y-157925853D01*
X234006784Y-158024456D01*
X233842812Y-158092376D01*
X233693512Y-158122073D01*
X233668742Y-158127000D01*
X233491258Y-158127000D01*
X233466488Y-158122073D01*
X233317188Y-158092376D01*
X233153216Y-158024456D01*
X233005646Y-157925853D01*
X232880147Y-157800354D01*
X232781544Y-157652784D01*
X232713624Y-157488812D01*
X232679000Y-157314741D01*
X232679000Y-157137259D01*
X232713624Y-156963188D01*
X232781544Y-156799216D01*
X232880147Y-156651646D01*
X233005646Y-156526147D01*
X233153216Y-156427544D01*
X233317188Y-156359624D01*
X233466488Y-156329927D01*
X233491258Y-156325000D01*
X233668742Y-156325000D01*
X233693512Y-156329927D01*
G37*
G36*
X226073512Y-156329927D02*
G01*
X226222812Y-156359624D01*
X226386784Y-156427544D01*
X226534354Y-156526147D01*
X226659853Y-156651646D01*
X226758456Y-156799216D01*
X226826376Y-156963188D01*
X226861000Y-157137259D01*
X226861000Y-157314741D01*
X226826376Y-157488812D01*
X226758456Y-157652784D01*
X226659853Y-157800354D01*
X226534354Y-157925853D01*
X226386784Y-158024456D01*
X226222812Y-158092376D01*
X226073512Y-158122073D01*
X226048742Y-158127000D01*
X225871258Y-158127000D01*
X225846488Y-158122073D01*
X225697188Y-158092376D01*
X225533216Y-158024456D01*
X225385646Y-157925853D01*
X225260147Y-157800354D01*
X225161544Y-157652784D01*
X225093624Y-157488812D01*
X225059000Y-157314741D01*
X225059000Y-157137259D01*
X225093624Y-156963188D01*
X225161544Y-156799216D01*
X225260147Y-156651646D01*
X225385646Y-156526147D01*
X225533216Y-156427544D01*
X225697188Y-156359624D01*
X225846488Y-156329927D01*
X225871258Y-156325000D01*
X226048742Y-156325000D01*
X226073512Y-156329927D01*
G37*
G36*
X236233512Y-156329927D02*
G01*
X236382812Y-156359624D01*
X236546784Y-156427544D01*
X236694354Y-156526147D01*
X236819853Y-156651646D01*
X236918456Y-156799216D01*
X236986376Y-156963188D01*
X237021000Y-157137259D01*
X237021000Y-157314741D01*
X236986376Y-157488812D01*
X236918456Y-157652784D01*
X236819853Y-157800354D01*
X236694354Y-157925853D01*
X236546784Y-158024456D01*
X236382812Y-158092376D01*
X236233512Y-158122073D01*
X236208742Y-158127000D01*
X236031258Y-158127000D01*
X236006488Y-158122073D01*
X235857188Y-158092376D01*
X235693216Y-158024456D01*
X235545646Y-157925853D01*
X235420147Y-157800354D01*
X235321544Y-157652784D01*
X235253624Y-157488812D01*
X235219000Y-157314741D01*
X235219000Y-157137259D01*
X235253624Y-156963188D01*
X235321544Y-156799216D01*
X235420147Y-156651646D01*
X235545646Y-156526147D01*
X235693216Y-156427544D01*
X235857188Y-156359624D01*
X236006488Y-156329927D01*
X236031258Y-156325000D01*
X236208742Y-156325000D01*
X236233512Y-156329927D01*
G37*
G36*
X238773512Y-156329927D02*
G01*
X238922812Y-156359624D01*
X239086784Y-156427544D01*
X239234354Y-156526147D01*
X239359853Y-156651646D01*
X239458456Y-156799216D01*
X239526376Y-156963188D01*
X239561000Y-157137259D01*
X239561000Y-157314741D01*
X239526376Y-157488812D01*
X239458456Y-157652784D01*
X239359853Y-157800354D01*
X239234354Y-157925853D01*
X239086784Y-158024456D01*
X238922812Y-158092376D01*
X238773512Y-158122073D01*
X238748742Y-158127000D01*
X238571258Y-158127000D01*
X238546488Y-158122073D01*
X238397188Y-158092376D01*
X238233216Y-158024456D01*
X238085646Y-157925853D01*
X237960147Y-157800354D01*
X237861544Y-157652784D01*
X237793624Y-157488812D01*
X237759000Y-157314741D01*
X237759000Y-157137259D01*
X237793624Y-156963188D01*
X237861544Y-156799216D01*
X237960147Y-156651646D01*
X238085646Y-156526147D01*
X238233216Y-156427544D01*
X238397188Y-156359624D01*
X238546488Y-156329927D01*
X238571258Y-156325000D01*
X238748742Y-156325000D01*
X238773512Y-156329927D01*
G37*
G36*
X241313512Y-156329927D02*
G01*
X241462812Y-156359624D01*
X241626784Y-156427544D01*
X241774354Y-156526147D01*
X241899853Y-156651646D01*
X241998456Y-156799216D01*
X242066376Y-156963188D01*
X242101000Y-157137259D01*
X242101000Y-157314741D01*
X242066376Y-157488812D01*
X241998456Y-157652784D01*
X241899853Y-157800354D01*
X241774354Y-157925853D01*
X241626784Y-158024456D01*
X241462812Y-158092376D01*
X241313512Y-158122073D01*
X241288742Y-158127000D01*
X241111258Y-158127000D01*
X241086488Y-158122073D01*
X240937188Y-158092376D01*
X240773216Y-158024456D01*
X240625646Y-157925853D01*
X240500147Y-157800354D01*
X240401544Y-157652784D01*
X240333624Y-157488812D01*
X240299000Y-157314741D01*
X240299000Y-157137259D01*
X240333624Y-156963188D01*
X240401544Y-156799216D01*
X240500147Y-156651646D01*
X240625646Y-156526147D01*
X240773216Y-156427544D01*
X240937188Y-156359624D01*
X241086488Y-156329927D01*
X241111258Y-156325000D01*
X241288742Y-156325000D01*
X241313512Y-156329927D01*
G37*
G36*
X243853512Y-156329927D02*
G01*
X244002812Y-156359624D01*
X244166784Y-156427544D01*
X244314354Y-156526147D01*
X244439853Y-156651646D01*
X244538456Y-156799216D01*
X244606376Y-156963188D01*
X244641000Y-157137259D01*
X244641000Y-157314741D01*
X244606376Y-157488812D01*
X244538456Y-157652784D01*
X244439853Y-157800354D01*
X244314354Y-157925853D01*
X244166784Y-158024456D01*
X244002812Y-158092376D01*
X243853512Y-158122073D01*
X243828742Y-158127000D01*
X243651258Y-158127000D01*
X243626488Y-158122073D01*
X243477188Y-158092376D01*
X243313216Y-158024456D01*
X243165646Y-157925853D01*
X243040147Y-157800354D01*
X242941544Y-157652784D01*
X242873624Y-157488812D01*
X242839000Y-157314741D01*
X242839000Y-157137259D01*
X242873624Y-156963188D01*
X242941544Y-156799216D01*
X243040147Y-156651646D01*
X243165646Y-156526147D01*
X243313216Y-156427544D01*
X243477188Y-156359624D01*
X243626488Y-156329927D01*
X243651258Y-156325000D01*
X243828742Y-156325000D01*
X243853512Y-156329927D01*
G37*
G36*
X254801000Y-158127000D02*
G01*
X252999000Y-158127000D01*
X252999000Y-156325000D01*
X254801000Y-156325000D01*
X254801000Y-158127000D01*
G37*
G36*
X251473512Y-156329927D02*
G01*
X251622812Y-156359624D01*
X251786784Y-156427544D01*
X251934354Y-156526147D01*
X252059853Y-156651646D01*
X252158456Y-156799216D01*
X252226376Y-156963188D01*
X252261000Y-157137259D01*
X252261000Y-157314741D01*
X252226376Y-157488812D01*
X252158456Y-157652784D01*
X252059853Y-157800354D01*
X251934354Y-157925853D01*
X251786784Y-158024456D01*
X251622812Y-158092376D01*
X251473512Y-158122073D01*
X251448742Y-158127000D01*
X251271258Y-158127000D01*
X251246488Y-158122073D01*
X251097188Y-158092376D01*
X250933216Y-158024456D01*
X250785646Y-157925853D01*
X250660147Y-157800354D01*
X250561544Y-157652784D01*
X250493624Y-157488812D01*
X250459000Y-157314741D01*
X250459000Y-157137259D01*
X250493624Y-156963188D01*
X250561544Y-156799216D01*
X250660147Y-156651646D01*
X250785646Y-156526147D01*
X250933216Y-156427544D01*
X251097188Y-156359624D01*
X251246488Y-156329927D01*
X251271258Y-156325000D01*
X251448742Y-156325000D01*
X251473512Y-156329927D01*
G37*
G36*
X248933512Y-156329927D02*
G01*
X249082812Y-156359624D01*
X249246784Y-156427544D01*
X249394354Y-156526147D01*
X249519853Y-156651646D01*
X249618456Y-156799216D01*
X249686376Y-156963188D01*
X249721000Y-157137259D01*
X249721000Y-157314741D01*
X249686376Y-157488812D01*
X249618456Y-157652784D01*
X249519853Y-157800354D01*
X249394354Y-157925853D01*
X249246784Y-158024456D01*
X249082812Y-158092376D01*
X248933512Y-158122073D01*
X248908742Y-158127000D01*
X248731258Y-158127000D01*
X248706488Y-158122073D01*
X248557188Y-158092376D01*
X248393216Y-158024456D01*
X248245646Y-157925853D01*
X248120147Y-157800354D01*
X248021544Y-157652784D01*
X247953624Y-157488812D01*
X247919000Y-157314741D01*
X247919000Y-157137259D01*
X247953624Y-156963188D01*
X248021544Y-156799216D01*
X248120147Y-156651646D01*
X248245646Y-156526147D01*
X248393216Y-156427544D01*
X248557188Y-156359624D01*
X248706488Y-156329927D01*
X248731258Y-156325000D01*
X248908742Y-156325000D01*
X248933512Y-156329927D01*
G37*
G36*
X246393512Y-156329927D02*
G01*
X246542812Y-156359624D01*
X246706784Y-156427544D01*
X246854354Y-156526147D01*
X246979853Y-156651646D01*
X247078456Y-156799216D01*
X247146376Y-156963188D01*
X247181000Y-157137259D01*
X247181000Y-157314741D01*
X247146376Y-157488812D01*
X247078456Y-157652784D01*
X246979853Y-157800354D01*
X246854354Y-157925853D01*
X246706784Y-158024456D01*
X246542812Y-158092376D01*
X246393512Y-158122073D01*
X246368742Y-158127000D01*
X246191258Y-158127000D01*
X246166488Y-158122073D01*
X246017188Y-158092376D01*
X245853216Y-158024456D01*
X245705646Y-157925853D01*
X245580147Y-157800354D01*
X245481544Y-157652784D01*
X245413624Y-157488812D01*
X245379000Y-157314741D01*
X245379000Y-157137259D01*
X245413624Y-156963188D01*
X245481544Y-156799216D01*
X245580147Y-156651646D01*
X245705646Y-156526147D01*
X245853216Y-156427544D01*
X246017188Y-156359624D01*
X246166488Y-156329927D01*
X246191258Y-156325000D01*
X246368742Y-156325000D01*
X246393512Y-156329927D01*
G37*
G36*
X220993512Y-156329927D02*
G01*
X221142812Y-156359624D01*
X221306784Y-156427544D01*
X221454354Y-156526147D01*
X221579853Y-156651646D01*
X221678456Y-156799216D01*
X221746376Y-156963188D01*
X221781000Y-157137259D01*
X221781000Y-157314741D01*
X221746376Y-157488812D01*
X221678456Y-157652784D01*
X221579853Y-157800354D01*
X221454354Y-157925853D01*
X221306784Y-158024456D01*
X221142812Y-158092376D01*
X220993512Y-158122073D01*
X220968742Y-158127000D01*
X220791258Y-158127000D01*
X220766488Y-158122073D01*
X220617188Y-158092376D01*
X220453216Y-158024456D01*
X220305646Y-157925853D01*
X220180147Y-157800354D01*
X220081544Y-157652784D01*
X220013624Y-157488812D01*
X219979000Y-157314741D01*
X219979000Y-157137259D01*
X220013624Y-156963188D01*
X220081544Y-156799216D01*
X220180147Y-156651646D01*
X220305646Y-156526147D01*
X220453216Y-156427544D01*
X220617188Y-156359624D01*
X220766488Y-156329927D01*
X220791258Y-156325000D01*
X220968742Y-156325000D01*
X220993512Y-156329927D01*
G37*
G36*
X180353512Y-156329927D02*
G01*
X180502812Y-156359624D01*
X180666784Y-156427544D01*
X180814354Y-156526147D01*
X180939853Y-156651646D01*
X181038456Y-156799216D01*
X181106376Y-156963188D01*
X181141000Y-157137259D01*
X181141000Y-157314741D01*
X181106376Y-157488812D01*
X181038456Y-157652784D01*
X180939853Y-157800354D01*
X180814354Y-157925853D01*
X180666784Y-158024456D01*
X180502812Y-158092376D01*
X180353512Y-158122073D01*
X180328742Y-158127000D01*
X180151258Y-158127000D01*
X180126488Y-158122073D01*
X179977188Y-158092376D01*
X179813216Y-158024456D01*
X179665646Y-157925853D01*
X179540147Y-157800354D01*
X179441544Y-157652784D01*
X179373624Y-157488812D01*
X179339000Y-157314741D01*
X179339000Y-157137259D01*
X179373624Y-156963188D01*
X179441544Y-156799216D01*
X179540147Y-156651646D01*
X179665646Y-156526147D01*
X179813216Y-156427544D01*
X179977188Y-156359624D01*
X180126488Y-156329927D01*
X180151258Y-156325000D01*
X180328742Y-156325000D01*
X180353512Y-156329927D01*
G37*
G36*
X141909395Y-145516546D02*
G01*
X142082466Y-145588234D01*
X142082467Y-145588235D01*
X142238227Y-145692310D01*
X142370690Y-145824773D01*
X142370691Y-145824775D01*
X142474766Y-145980534D01*
X142546454Y-146153605D01*
X142583000Y-146337333D01*
X142583000Y-146524667D01*
X142546454Y-146708395D01*
X142474766Y-146881466D01*
X142474765Y-146881467D01*
X142370690Y-147037227D01*
X142238227Y-147169690D01*
X142159818Y-147222081D01*
X142082466Y-147273766D01*
X141909395Y-147345454D01*
X141725667Y-147382000D01*
X141538333Y-147382000D01*
X141354605Y-147345454D01*
X141181534Y-147273766D01*
X141104182Y-147222081D01*
X141025773Y-147169690D01*
X140893310Y-147037227D01*
X140789235Y-146881467D01*
X140789234Y-146881466D01*
X140717546Y-146708395D01*
X140681000Y-146524667D01*
X140681000Y-146337333D01*
X140717546Y-146153605D01*
X140789234Y-145980534D01*
X140893309Y-145824775D01*
X140893310Y-145824773D01*
X141025773Y-145692310D01*
X141181533Y-145588235D01*
X141181534Y-145588234D01*
X141354605Y-145516546D01*
X141538333Y-145480000D01*
X141725667Y-145480000D01*
X141909395Y-145516546D01*
G37*
G36*
X138265000Y-147382000D02*
G01*
X136363000Y-147382000D01*
X136363000Y-145480000D01*
X138265000Y-145480000D01*
X138265000Y-147382000D01*
G37*
G36*
X139750395Y-145516546D02*
G01*
X139923466Y-145588234D01*
X139923467Y-145588235D01*
X140079227Y-145692310D01*
X140211690Y-145824773D01*
X140211691Y-145824775D01*
X140315766Y-145980534D01*
X140387454Y-146153605D01*
X140424000Y-146337333D01*
X140424000Y-146524667D01*
X140387454Y-146708395D01*
X140315766Y-146881466D01*
X140315765Y-146881467D01*
X140211690Y-147037227D01*
X140079227Y-147169690D01*
X140000818Y-147222081D01*
X139923466Y-147273766D01*
X139750395Y-147345454D01*
X139566667Y-147382000D01*
X139379333Y-147382000D01*
X139195605Y-147345454D01*
X139022534Y-147273766D01*
X138945182Y-147222081D01*
X138866773Y-147169690D01*
X138734310Y-147037227D01*
X138630235Y-146881467D01*
X138630234Y-146881466D01*
X138558546Y-146708395D01*
X138522000Y-146524667D01*
X138522000Y-146337333D01*
X138558546Y-146153605D01*
X138630234Y-145980534D01*
X138734309Y-145824775D01*
X138734310Y-145824773D01*
X138866773Y-145692310D01*
X139022533Y-145588235D01*
X139022534Y-145588234D01*
X139195605Y-145516546D01*
X139379333Y-145480000D01*
X139566667Y-145480000D01*
X139750395Y-145516546D01*
G37*
G36*
X144068395Y-145516546D02*
G01*
X144241466Y-145588234D01*
X144241467Y-145588235D01*
X144397227Y-145692310D01*
X144529690Y-145824773D01*
X144529691Y-145824775D01*
X144633766Y-145980534D01*
X144705454Y-146153605D01*
X144742000Y-146337333D01*
X144742000Y-146524667D01*
X144705454Y-146708395D01*
X144633766Y-146881466D01*
X144633765Y-146881467D01*
X144529690Y-147037227D01*
X144397227Y-147169690D01*
X144318818Y-147222081D01*
X144241466Y-147273766D01*
X144068395Y-147345454D01*
X143884667Y-147382000D01*
X143697333Y-147382000D01*
X143513605Y-147345454D01*
X143340534Y-147273766D01*
X143263182Y-147222081D01*
X143184773Y-147169690D01*
X143052310Y-147037227D01*
X142948235Y-146881467D01*
X142948234Y-146881466D01*
X142876546Y-146708395D01*
X142840000Y-146524667D01*
X142840000Y-146337333D01*
X142876546Y-146153605D01*
X142948234Y-145980534D01*
X143052309Y-145824775D01*
X143052310Y-145824773D01*
X143184773Y-145692310D01*
X143340533Y-145588235D01*
X143340534Y-145588234D01*
X143513605Y-145516546D01*
X143697333Y-145480000D01*
X143884667Y-145480000D01*
X144068395Y-145516546D01*
G37*
G36*
X249176153Y-121126922D02*
G01*
X249261079Y-121162100D01*
X249398359Y-121218963D01*
X249598342Y-121352587D01*
X249768413Y-121522658D01*
X249902037Y-121722641D01*
X249994078Y-121944848D01*
X250041000Y-122180741D01*
X250041000Y-122421259D01*
X249994078Y-122657152D01*
X249902037Y-122879359D01*
X249768413Y-123079342D01*
X249598342Y-123249413D01*
X249398359Y-123383037D01*
X249268194Y-123436953D01*
X249176153Y-123475078D01*
X249058205Y-123498539D01*
X248940259Y-123522000D01*
X248699741Y-123522000D01*
X248581795Y-123498539D01*
X248463847Y-123475078D01*
X248371806Y-123436953D01*
X248241641Y-123383037D01*
X248041658Y-123249413D01*
X247871587Y-123079342D01*
X247737963Y-122879359D01*
X247645922Y-122657152D01*
X247599000Y-122421259D01*
X247599000Y-122180741D01*
X247645922Y-121944848D01*
X247737963Y-121722641D01*
X247871587Y-121522658D01*
X248041658Y-121352587D01*
X248241641Y-121218963D01*
X248378921Y-121162100D01*
X248463847Y-121126922D01*
X248699741Y-121080000D01*
X248940259Y-121080000D01*
X249176153Y-121126922D01*
G37*
G36*
X169420153Y-121126922D02*
G01*
X169505079Y-121162100D01*
X169642359Y-121218963D01*
X169842342Y-121352587D01*
X170012413Y-121522658D01*
X170146037Y-121722641D01*
X170238078Y-121944848D01*
X170285000Y-122180741D01*
X170285000Y-122421259D01*
X170238078Y-122657152D01*
X170146037Y-122879359D01*
X170012413Y-123079342D01*
X169842342Y-123249413D01*
X169642359Y-123383037D01*
X169512194Y-123436953D01*
X169420153Y-123475078D01*
X169302205Y-123498539D01*
X169184259Y-123522000D01*
X168943741Y-123522000D01*
X168825795Y-123498539D01*
X168707847Y-123475078D01*
X168615806Y-123436953D01*
X168485641Y-123383037D01*
X168285658Y-123249413D01*
X168115587Y-123079342D01*
X167981963Y-122879359D01*
X167889922Y-122657152D01*
X167843000Y-122421259D01*
X167843000Y-122180741D01*
X167889922Y-121944848D01*
X167981963Y-121722641D01*
X168115587Y-121522658D01*
X168285658Y-121352587D01*
X168485641Y-121218963D01*
X168622921Y-121162100D01*
X168707847Y-121126922D01*
X168943741Y-121080000D01*
X169184259Y-121080000D01*
X169420153Y-121126922D01*
G37*
G36*
X159420153Y-121126922D02*
G01*
X159505079Y-121162100D01*
X159642359Y-121218963D01*
X159842342Y-121352587D01*
X160012413Y-121522658D01*
X160146037Y-121722641D01*
X160238078Y-121944848D01*
X160285000Y-122180741D01*
X160285000Y-122421259D01*
X160238078Y-122657152D01*
X160146037Y-122879359D01*
X160012413Y-123079342D01*
X159842342Y-123249413D01*
X159642359Y-123383037D01*
X159512194Y-123436953D01*
X159420153Y-123475078D01*
X159302205Y-123498539D01*
X159184259Y-123522000D01*
X158943741Y-123522000D01*
X158825795Y-123498539D01*
X158707847Y-123475078D01*
X158615806Y-123436953D01*
X158485641Y-123383037D01*
X158285658Y-123249413D01*
X158115587Y-123079342D01*
X157981963Y-122879359D01*
X157889922Y-122657152D01*
X157843000Y-122421259D01*
X157843000Y-122180741D01*
X157889922Y-121944848D01*
X157981963Y-121722641D01*
X158115587Y-121522658D01*
X158285658Y-121352587D01*
X158485641Y-121218963D01*
X158622921Y-121162100D01*
X158707847Y-121126922D01*
X158943741Y-121080000D01*
X159184259Y-121080000D01*
X159420153Y-121126922D01*
G37*
G36*
X209298153Y-121126922D02*
G01*
X209383079Y-121162100D01*
X209520359Y-121218963D01*
X209720342Y-121352587D01*
X209890413Y-121522658D01*
X210024037Y-121722641D01*
X210116078Y-121944848D01*
X210163000Y-122180741D01*
X210163000Y-122421259D01*
X210116078Y-122657152D01*
X210024037Y-122879359D01*
X209890413Y-123079342D01*
X209720342Y-123249413D01*
X209520359Y-123383037D01*
X209390194Y-123436953D01*
X209298153Y-123475078D01*
X209180205Y-123498539D01*
X209062259Y-123522000D01*
X208821741Y-123522000D01*
X208703795Y-123498539D01*
X208585847Y-123475078D01*
X208493806Y-123436953D01*
X208363641Y-123383037D01*
X208163658Y-123249413D01*
X207993587Y-123079342D01*
X207859963Y-122879359D01*
X207767922Y-122657152D01*
X207721000Y-122421259D01*
X207721000Y-122180741D01*
X207767922Y-121944848D01*
X207859963Y-121722641D01*
X207993587Y-121522658D01*
X208163658Y-121352587D01*
X208363641Y-121218963D01*
X208500921Y-121162100D01*
X208585847Y-121126922D01*
X208821741Y-121080000D01*
X209062259Y-121080000D01*
X209298153Y-121126922D01*
G37*
G36*
X204298153Y-121126922D02*
G01*
X204383079Y-121162100D01*
X204520359Y-121218963D01*
X204720342Y-121352587D01*
X204890413Y-121522658D01*
X205024037Y-121722641D01*
X205116078Y-121944848D01*
X205163000Y-122180741D01*
X205163000Y-122421259D01*
X205116078Y-122657152D01*
X205024037Y-122879359D01*
X204890413Y-123079342D01*
X204720342Y-123249413D01*
X204520359Y-123383037D01*
X204390194Y-123436953D01*
X204298153Y-123475078D01*
X204180205Y-123498539D01*
X204062259Y-123522000D01*
X203821741Y-123522000D01*
X203703795Y-123498539D01*
X203585847Y-123475078D01*
X203493806Y-123436953D01*
X203363641Y-123383037D01*
X203163658Y-123249413D01*
X202993587Y-123079342D01*
X202859963Y-122879359D01*
X202767922Y-122657152D01*
X202721000Y-122421259D01*
X202721000Y-122180741D01*
X202767922Y-121944848D01*
X202859963Y-121722641D01*
X202993587Y-121522658D01*
X203163658Y-121352587D01*
X203363641Y-121218963D01*
X203500921Y-121162100D01*
X203585847Y-121126922D01*
X203821741Y-121080000D01*
X204062259Y-121080000D01*
X204298153Y-121126922D01*
G37*
G36*
X244176153Y-121126922D02*
G01*
X244261079Y-121162100D01*
X244398359Y-121218963D01*
X244598342Y-121352587D01*
X244768413Y-121522658D01*
X244902037Y-121722641D01*
X244994078Y-121944848D01*
X245041000Y-122180741D01*
X245041000Y-122421259D01*
X244994078Y-122657152D01*
X244902037Y-122879359D01*
X244768413Y-123079342D01*
X244598342Y-123249413D01*
X244398359Y-123383037D01*
X244268194Y-123436953D01*
X244176153Y-123475078D01*
X244058205Y-123498539D01*
X243940259Y-123522000D01*
X243699741Y-123522000D01*
X243581795Y-123498539D01*
X243463847Y-123475078D01*
X243371806Y-123436953D01*
X243241641Y-123383037D01*
X243041658Y-123249413D01*
X242871587Y-123079342D01*
X242737963Y-122879359D01*
X242645922Y-122657152D01*
X242599000Y-122421259D01*
X242599000Y-122180741D01*
X242645922Y-121944848D01*
X242737963Y-121722641D01*
X242871587Y-121522658D01*
X243041658Y-121352587D01*
X243241641Y-121218963D01*
X243378921Y-121162100D01*
X243463847Y-121126922D01*
X243699741Y-121080000D01*
X243940259Y-121080000D01*
X244176153Y-121126922D01*
G37*
G36*
X239176153Y-121126922D02*
G01*
X239261079Y-121162100D01*
X239398359Y-121218963D01*
X239598342Y-121352587D01*
X239768413Y-121522658D01*
X239902037Y-121722641D01*
X239994078Y-121944848D01*
X240041000Y-122180741D01*
X240041000Y-122421259D01*
X239994078Y-122657152D01*
X239902037Y-122879359D01*
X239768413Y-123079342D01*
X239598342Y-123249413D01*
X239398359Y-123383037D01*
X239268194Y-123436953D01*
X239176153Y-123475078D01*
X239058205Y-123498539D01*
X238940259Y-123522000D01*
X238699741Y-123522000D01*
X238581795Y-123498539D01*
X238463847Y-123475078D01*
X238371806Y-123436953D01*
X238241641Y-123383037D01*
X238041658Y-123249413D01*
X237871587Y-123079342D01*
X237737963Y-122879359D01*
X237645922Y-122657152D01*
X237599000Y-122421259D01*
X237599000Y-122180741D01*
X237645922Y-121944848D01*
X237737963Y-121722641D01*
X237871587Y-121522658D01*
X238041658Y-121352587D01*
X238241641Y-121218963D01*
X238378921Y-121162100D01*
X238463847Y-121126922D01*
X238699741Y-121080000D01*
X238940259Y-121080000D01*
X239176153Y-121126922D01*
G37*
G36*
X164420153Y-121126922D02*
G01*
X164505079Y-121162100D01*
X164642359Y-121218963D01*
X164842342Y-121352587D01*
X165012413Y-121522658D01*
X165146037Y-121722641D01*
X165238078Y-121944848D01*
X165285000Y-122180741D01*
X165285000Y-122421259D01*
X165238078Y-122657152D01*
X165146037Y-122879359D01*
X165012413Y-123079342D01*
X164842342Y-123249413D01*
X164642359Y-123383037D01*
X164512194Y-123436953D01*
X164420153Y-123475078D01*
X164302205Y-123498539D01*
X164184259Y-123522000D01*
X163943741Y-123522000D01*
X163825795Y-123498539D01*
X163707847Y-123475078D01*
X163615806Y-123436953D01*
X163485641Y-123383037D01*
X163285658Y-123249413D01*
X163115587Y-123079342D01*
X162981963Y-122879359D01*
X162889922Y-122657152D01*
X162843000Y-122421259D01*
X162843000Y-122180741D01*
X162889922Y-121944848D01*
X162981963Y-121722641D01*
X163115587Y-121522658D01*
X163285658Y-121352587D01*
X163485641Y-121218963D01*
X163622921Y-121162100D01*
X163707847Y-121126922D01*
X163943741Y-121080000D01*
X164184259Y-121080000D01*
X164420153Y-121126922D01*
G37*
G36*
X199298153Y-121126922D02*
G01*
X199383079Y-121162100D01*
X199520359Y-121218963D01*
X199720342Y-121352587D01*
X199890413Y-121522658D01*
X200024037Y-121722641D01*
X200116078Y-121944848D01*
X200163000Y-122180741D01*
X200163000Y-122421259D01*
X200116078Y-122657152D01*
X200024037Y-122879359D01*
X199890413Y-123079342D01*
X199720342Y-123249413D01*
X199520359Y-123383037D01*
X199390194Y-123436953D01*
X199298153Y-123475078D01*
X199180205Y-123498539D01*
X199062259Y-123522000D01*
X198821741Y-123522000D01*
X198703795Y-123498539D01*
X198585847Y-123475078D01*
X198493806Y-123436953D01*
X198363641Y-123383037D01*
X198163658Y-123249413D01*
X197993587Y-123079342D01*
X197859963Y-122879359D01*
X197767922Y-122657152D01*
X197721000Y-122421259D01*
X197721000Y-122180741D01*
X197767922Y-121944848D01*
X197859963Y-121722641D01*
X197993587Y-121522658D01*
X198163658Y-121352587D01*
X198363641Y-121218963D01*
X198500921Y-121162100D01*
X198585847Y-121126922D01*
X198821741Y-121080000D01*
X199062259Y-121080000D01*
X199298153Y-121126922D01*
G37*
G36*
X140853142Y-119995242D02*
G01*
X141001101Y-120056529D01*
X141134255Y-120145499D01*
X141247501Y-120258745D01*
X141336471Y-120391899D01*
X141397758Y-120539858D01*
X141429000Y-120696925D01*
X141429000Y-120857075D01*
X141397758Y-121014142D01*
X141336471Y-121162101D01*
X141247501Y-121295255D01*
X141134255Y-121408501D01*
X141001101Y-121497471D01*
X140853142Y-121558758D01*
X140696075Y-121590000D01*
X140535925Y-121590000D01*
X140378858Y-121558758D01*
X140230899Y-121497471D01*
X140097745Y-121408501D01*
X139984499Y-121295255D01*
X139895529Y-121162101D01*
X139834242Y-121014142D01*
X139803000Y-120857075D01*
X139803000Y-120696925D01*
X139834242Y-120539858D01*
X139895529Y-120391899D01*
X139984499Y-120258745D01*
X140097745Y-120145499D01*
X140230899Y-120056529D01*
X140378858Y-119995242D01*
X140535925Y-119964000D01*
X140696075Y-119964000D01*
X140853142Y-119995242D01*
G37*
G36*
X138889000Y-121590000D02*
G01*
X137263000Y-121590000D01*
X137263000Y-119964000D01*
X138889000Y-119964000D01*
X138889000Y-121590000D01*
G37*
G36*
X143393142Y-119995242D02*
G01*
X143541101Y-120056529D01*
X143674255Y-120145499D01*
X143787501Y-120258745D01*
X143876471Y-120391899D01*
X143937758Y-120539858D01*
X143969000Y-120696925D01*
X143969000Y-120857075D01*
X143937758Y-121014142D01*
X143876471Y-121162101D01*
X143787501Y-121295255D01*
X143674255Y-121408501D01*
X143541101Y-121497471D01*
X143393142Y-121558758D01*
X143236075Y-121590000D01*
X143075925Y-121590000D01*
X142918858Y-121558758D01*
X142770899Y-121497471D01*
X142637745Y-121408501D01*
X142524499Y-121295255D01*
X142435529Y-121162101D01*
X142374242Y-121014142D01*
X142343000Y-120857075D01*
X142343000Y-120696925D01*
X142374242Y-120539858D01*
X142435529Y-120391899D01*
X142524499Y-120258745D01*
X142637745Y-120145499D01*
X142770899Y-120056529D01*
X142918858Y-119995242D01*
X143075925Y-119964000D01*
X143236075Y-119964000D01*
X143393142Y-119995242D01*
G37*
G36*
X241914585Y-105793802D02*
G01*
X242064410Y-105823604D01*
X242346674Y-105940521D01*
X242600705Y-106110259D01*
X242816741Y-106326295D01*
X242986479Y-106580326D01*
X243103396Y-106862590D01*
X243163000Y-107162240D01*
X243163000Y-107467760D01*
X243103396Y-107767410D01*
X242986479Y-108049674D01*
X242816741Y-108303705D01*
X242600705Y-108519741D01*
X242346674Y-108689479D01*
X242064410Y-108806396D01*
X241914585Y-108836198D01*
X241764761Y-108866000D01*
X241459239Y-108866000D01*
X241309415Y-108836198D01*
X241159590Y-108806396D01*
X240877326Y-108689479D01*
X240623295Y-108519741D01*
X240407259Y-108303705D01*
X240237521Y-108049674D01*
X240120604Y-107767410D01*
X240061000Y-107467760D01*
X240061000Y-107162240D01*
X240120604Y-106862590D01*
X240237521Y-106580326D01*
X240407259Y-106326295D01*
X240623295Y-106110259D01*
X240877326Y-105940521D01*
X241159590Y-105823604D01*
X241309415Y-105793802D01*
X241459239Y-105764000D01*
X241764761Y-105764000D01*
X241914585Y-105793802D01*
G37*
G36*
X166915485Y-105793802D02*
G01*
X167065310Y-105823604D01*
X167347574Y-105940521D01*
X167601605Y-106110259D01*
X167817641Y-106326295D01*
X167987379Y-106580326D01*
X168104296Y-106862590D01*
X168163900Y-107162240D01*
X168163900Y-107467760D01*
X168104296Y-107767410D01*
X167987379Y-108049674D01*
X167817641Y-108303705D01*
X167601605Y-108519741D01*
X167347574Y-108689479D01*
X167065310Y-108806396D01*
X166915485Y-108836198D01*
X166765661Y-108866000D01*
X166460139Y-108866000D01*
X166310315Y-108836198D01*
X166160490Y-108806396D01*
X165878226Y-108689479D01*
X165624195Y-108519741D01*
X165408159Y-108303705D01*
X165238421Y-108049674D01*
X165121504Y-107767410D01*
X165061900Y-107467760D01*
X165061900Y-107162240D01*
X165121504Y-106862590D01*
X165238421Y-106580326D01*
X165408159Y-106326295D01*
X165624195Y-106110259D01*
X165878226Y-105940521D01*
X166160490Y-105823604D01*
X166310315Y-105793802D01*
X166460139Y-105764000D01*
X166765661Y-105764000D01*
X166915485Y-105793802D01*
G37*
G36*
X184998424Y-105977760D02*
G01*
X184998427Y-105977761D01*
X184998428Y-105977761D01*
X185177692Y-106032140D01*
X185177695Y-106032142D01*
X185177696Y-106032142D01*
X185342903Y-106120446D01*
X185487712Y-106239288D01*
X185606554Y-106384097D01*
X185694858Y-106549303D01*
X185694860Y-106549307D01*
X185749239Y-106728571D01*
X185749240Y-106728575D01*
X185763000Y-106868282D01*
X185763000Y-107761717D01*
X185749240Y-107901426D01*
X185694859Y-108080695D01*
X185606554Y-108245903D01*
X185487712Y-108390712D01*
X185342903Y-108509554D01*
X185177697Y-108597858D01*
X185177693Y-108597860D01*
X184998429Y-108652239D01*
X184998428Y-108652239D01*
X184998425Y-108652240D01*
X184812000Y-108670601D01*
X184625576Y-108652240D01*
X184625573Y-108652239D01*
X184625572Y-108652239D01*
X184446308Y-108597860D01*
X184446304Y-108597858D01*
X184281098Y-108509554D01*
X184136289Y-108390712D01*
X184017447Y-108245903D01*
X183929140Y-108080692D01*
X183874760Y-107901430D01*
X183861000Y-107761718D01*
X183861000Y-106868283D01*
X183874760Y-106728576D01*
X183874761Y-106728572D01*
X183929140Y-106549308D01*
X183929143Y-106549303D01*
X184017446Y-106384097D01*
X184136288Y-106239288D01*
X184281097Y-106120446D01*
X184446303Y-106032142D01*
X184446304Y-106032142D01*
X184446307Y-106032140D01*
X184625571Y-105977761D01*
X184625572Y-105977761D01*
X184625575Y-105977760D01*
X184812000Y-105959399D01*
X184998424Y-105977760D01*
G37*
G36*
X207858424Y-105977760D02*
G01*
X207858427Y-105977761D01*
X207858428Y-105977761D01*
X208037692Y-106032140D01*
X208037695Y-106032142D01*
X208037696Y-106032142D01*
X208202903Y-106120446D01*
X208347712Y-106239288D01*
X208466554Y-106384097D01*
X208554858Y-106549303D01*
X208554860Y-106549307D01*
X208609239Y-106728571D01*
X208609240Y-106728575D01*
X208623000Y-106868282D01*
X208623000Y-107761717D01*
X208609240Y-107901426D01*
X208554859Y-108080695D01*
X208466554Y-108245903D01*
X208347712Y-108390712D01*
X208202903Y-108509554D01*
X208037697Y-108597858D01*
X208037693Y-108597860D01*
X207858429Y-108652239D01*
X207858428Y-108652239D01*
X207858425Y-108652240D01*
X207672000Y-108670601D01*
X207485576Y-108652240D01*
X207485573Y-108652239D01*
X207485572Y-108652239D01*
X207306308Y-108597860D01*
X207306304Y-108597858D01*
X207141098Y-108509554D01*
X206996289Y-108390712D01*
X206877447Y-108245903D01*
X206789140Y-108080692D01*
X206734760Y-107901430D01*
X206721000Y-107761718D01*
X206721000Y-106868283D01*
X206734760Y-106728576D01*
X206734761Y-106728572D01*
X206789140Y-106549308D01*
X206789143Y-106549303D01*
X206877446Y-106384097D01*
X206996288Y-106239288D01*
X207141097Y-106120446D01*
X207306303Y-106032142D01*
X207306304Y-106032142D01*
X207306307Y-106032140D01*
X207485571Y-105977761D01*
X207485572Y-105977761D01*
X207485575Y-105977760D01*
X207672000Y-105959399D01*
X207858424Y-105977760D01*
G37*
G36*
X205318424Y-105977760D02*
G01*
X205318427Y-105977761D01*
X205318428Y-105977761D01*
X205497692Y-106032140D01*
X205497695Y-106032142D01*
X205497696Y-106032142D01*
X205662903Y-106120446D01*
X205807712Y-106239288D01*
X205926554Y-106384097D01*
X206014858Y-106549303D01*
X206014860Y-106549307D01*
X206069239Y-106728571D01*
X206069240Y-106728575D01*
X206083000Y-106868282D01*
X206083000Y-107761717D01*
X206069240Y-107901426D01*
X206014859Y-108080695D01*
X205926554Y-108245903D01*
X205807712Y-108390712D01*
X205662903Y-108509554D01*
X205497697Y-108597858D01*
X205497693Y-108597860D01*
X205318429Y-108652239D01*
X205318428Y-108652239D01*
X205318425Y-108652240D01*
X205132000Y-108670601D01*
X204945576Y-108652240D01*
X204945573Y-108652239D01*
X204945572Y-108652239D01*
X204766308Y-108597860D01*
X204766304Y-108597858D01*
X204601098Y-108509554D01*
X204456289Y-108390712D01*
X204337447Y-108245903D01*
X204249140Y-108080692D01*
X204194760Y-107901430D01*
X204181000Y-107761718D01*
X204181000Y-106868283D01*
X204194760Y-106728576D01*
X204194761Y-106728572D01*
X204249140Y-106549308D01*
X204249143Y-106549303D01*
X204337446Y-106384097D01*
X204456288Y-106239288D01*
X204601097Y-106120446D01*
X204766303Y-106032142D01*
X204766304Y-106032142D01*
X204766307Y-106032140D01*
X204945571Y-105977761D01*
X204945572Y-105977761D01*
X204945575Y-105977760D01*
X205132000Y-105959399D01*
X205318424Y-105977760D01*
G37*
G36*
X202778424Y-105977760D02*
G01*
X202778427Y-105977761D01*
X202778428Y-105977761D01*
X202957692Y-106032140D01*
X202957695Y-106032142D01*
X202957696Y-106032142D01*
X203122903Y-106120446D01*
X203267712Y-106239288D01*
X203386554Y-106384097D01*
X203474858Y-106549303D01*
X203474860Y-106549307D01*
X203529239Y-106728571D01*
X203529240Y-106728575D01*
X203543000Y-106868282D01*
X203543000Y-107761717D01*
X203529240Y-107901426D01*
X203474859Y-108080695D01*
X203386554Y-108245903D01*
X203267712Y-108390712D01*
X203122903Y-108509554D01*
X202957697Y-108597858D01*
X202957693Y-108597860D01*
X202778429Y-108652239D01*
X202778428Y-108652239D01*
X202778425Y-108652240D01*
X202592000Y-108670601D01*
X202405576Y-108652240D01*
X202405573Y-108652239D01*
X202405572Y-108652239D01*
X202226308Y-108597860D01*
X202226304Y-108597858D01*
X202061098Y-108509554D01*
X201916289Y-108390712D01*
X201797447Y-108245903D01*
X201709140Y-108080692D01*
X201654760Y-107901430D01*
X201641000Y-107761718D01*
X201641000Y-106868283D01*
X201654760Y-106728576D01*
X201654761Y-106728572D01*
X201709140Y-106549308D01*
X201709143Y-106549303D01*
X201797446Y-106384097D01*
X201916288Y-106239288D01*
X202061097Y-106120446D01*
X202226303Y-106032142D01*
X202226304Y-106032142D01*
X202226307Y-106032140D01*
X202405571Y-105977761D01*
X202405572Y-105977761D01*
X202405575Y-105977760D01*
X202592000Y-105959399D01*
X202778424Y-105977760D01*
G37*
G36*
X200238424Y-105977760D02*
G01*
X200238427Y-105977761D01*
X200238428Y-105977761D01*
X200417692Y-106032140D01*
X200417695Y-106032142D01*
X200417696Y-106032142D01*
X200582903Y-106120446D01*
X200727712Y-106239288D01*
X200846554Y-106384097D01*
X200934858Y-106549303D01*
X200934860Y-106549307D01*
X200989239Y-106728571D01*
X200989240Y-106728575D01*
X201003000Y-106868282D01*
X201003000Y-107761717D01*
X200989240Y-107901426D01*
X200934859Y-108080695D01*
X200846554Y-108245903D01*
X200727712Y-108390712D01*
X200582903Y-108509554D01*
X200417697Y-108597858D01*
X200417693Y-108597860D01*
X200238429Y-108652239D01*
X200238428Y-108652239D01*
X200238425Y-108652240D01*
X200052000Y-108670601D01*
X199865576Y-108652240D01*
X199865573Y-108652239D01*
X199865572Y-108652239D01*
X199686308Y-108597860D01*
X199686304Y-108597858D01*
X199521098Y-108509554D01*
X199376289Y-108390712D01*
X199257447Y-108245903D01*
X199169140Y-108080692D01*
X199114760Y-107901430D01*
X199101000Y-107761718D01*
X199101000Y-106868283D01*
X199114760Y-106728576D01*
X199114761Y-106728572D01*
X199169140Y-106549308D01*
X199169143Y-106549303D01*
X199257446Y-106384097D01*
X199376288Y-106239288D01*
X199521097Y-106120446D01*
X199686303Y-106032142D01*
X199686304Y-106032142D01*
X199686307Y-106032140D01*
X199865571Y-105977761D01*
X199865572Y-105977761D01*
X199865575Y-105977760D01*
X200052000Y-105959399D01*
X200238424Y-105977760D01*
G37*
G36*
X210398424Y-105977760D02*
G01*
X210398427Y-105977761D01*
X210398428Y-105977761D01*
X210577692Y-106032140D01*
X210577695Y-106032142D01*
X210577696Y-106032142D01*
X210742903Y-106120446D01*
X210887712Y-106239288D01*
X211006554Y-106384097D01*
X211094858Y-106549303D01*
X211094860Y-106549307D01*
X211149239Y-106728571D01*
X211149240Y-106728575D01*
X211163000Y-106868282D01*
X211163000Y-107761717D01*
X211149240Y-107901426D01*
X211094859Y-108080695D01*
X211006554Y-108245903D01*
X210887712Y-108390712D01*
X210742903Y-108509554D01*
X210577697Y-108597858D01*
X210577693Y-108597860D01*
X210398429Y-108652239D01*
X210398428Y-108652239D01*
X210398425Y-108652240D01*
X210212000Y-108670601D01*
X210025576Y-108652240D01*
X210025573Y-108652239D01*
X210025572Y-108652239D01*
X209846308Y-108597860D01*
X209846304Y-108597858D01*
X209681098Y-108509554D01*
X209536289Y-108390712D01*
X209417447Y-108245903D01*
X209329140Y-108080692D01*
X209274760Y-107901430D01*
X209261000Y-107761718D01*
X209261000Y-106868283D01*
X209274760Y-106728576D01*
X209274761Y-106728572D01*
X209329140Y-106549308D01*
X209329143Y-106549303D01*
X209417446Y-106384097D01*
X209536288Y-106239288D01*
X209681097Y-106120446D01*
X209846303Y-106032142D01*
X209846304Y-106032142D01*
X209846307Y-106032140D01*
X210025571Y-105977761D01*
X210025572Y-105977761D01*
X210025575Y-105977760D01*
X210212000Y-105959399D01*
X210398424Y-105977760D01*
G37*
G36*
X187538424Y-105977760D02*
G01*
X187538427Y-105977761D01*
X187538428Y-105977761D01*
X187717692Y-106032140D01*
X187717695Y-106032142D01*
X187717696Y-106032142D01*
X187882903Y-106120446D01*
X188027712Y-106239288D01*
X188146554Y-106384097D01*
X188234858Y-106549303D01*
X188234860Y-106549307D01*
X188289239Y-106728571D01*
X188289240Y-106728575D01*
X188303000Y-106868282D01*
X188303000Y-107761717D01*
X188289240Y-107901426D01*
X188234859Y-108080695D01*
X188146554Y-108245903D01*
X188027712Y-108390712D01*
X187882903Y-108509554D01*
X187717697Y-108597858D01*
X187717693Y-108597860D01*
X187538429Y-108652239D01*
X187538428Y-108652239D01*
X187538425Y-108652240D01*
X187352000Y-108670601D01*
X187165576Y-108652240D01*
X187165573Y-108652239D01*
X187165572Y-108652239D01*
X186986308Y-108597860D01*
X186986304Y-108597858D01*
X186821098Y-108509554D01*
X186676289Y-108390712D01*
X186557447Y-108245903D01*
X186469140Y-108080692D01*
X186414760Y-107901430D01*
X186401000Y-107761718D01*
X186401000Y-106868283D01*
X186414760Y-106728576D01*
X186414761Y-106728572D01*
X186469140Y-106549308D01*
X186469143Y-106549303D01*
X186557446Y-106384097D01*
X186676288Y-106239288D01*
X186821097Y-106120446D01*
X186986303Y-106032142D01*
X186986304Y-106032142D01*
X186986307Y-106032140D01*
X187165571Y-105977761D01*
X187165572Y-105977761D01*
X187165575Y-105977760D01*
X187352000Y-105959399D01*
X187538424Y-105977760D01*
G37*
G36*
X182458424Y-105977760D02*
G01*
X182458427Y-105977761D01*
X182458428Y-105977761D01*
X182637692Y-106032140D01*
X182637695Y-106032142D01*
X182637696Y-106032142D01*
X182802903Y-106120446D01*
X182947712Y-106239288D01*
X183066554Y-106384097D01*
X183154858Y-106549303D01*
X183154860Y-106549307D01*
X183209239Y-106728571D01*
X183209240Y-106728575D01*
X183223000Y-106868282D01*
X183223000Y-107761717D01*
X183209240Y-107901426D01*
X183154859Y-108080695D01*
X183066554Y-108245903D01*
X182947712Y-108390712D01*
X182802903Y-108509554D01*
X182637697Y-108597858D01*
X182637693Y-108597860D01*
X182458429Y-108652239D01*
X182458428Y-108652239D01*
X182458425Y-108652240D01*
X182272000Y-108670601D01*
X182085576Y-108652240D01*
X182085573Y-108652239D01*
X182085572Y-108652239D01*
X181906308Y-108597860D01*
X181906304Y-108597858D01*
X181741098Y-108509554D01*
X181596289Y-108390712D01*
X181477447Y-108245903D01*
X181389140Y-108080692D01*
X181334760Y-107901430D01*
X181321000Y-107761718D01*
X181321000Y-106868283D01*
X181334760Y-106728576D01*
X181334761Y-106728572D01*
X181389140Y-106549308D01*
X181389143Y-106549303D01*
X181477446Y-106384097D01*
X181596288Y-106239288D01*
X181741097Y-106120446D01*
X181906303Y-106032142D01*
X181906304Y-106032142D01*
X181906307Y-106032140D01*
X182085571Y-105977761D01*
X182085572Y-105977761D01*
X182085575Y-105977760D01*
X182272000Y-105959399D01*
X182458424Y-105977760D01*
G37*
G36*
X195158424Y-105977760D02*
G01*
X195158427Y-105977761D01*
X195158428Y-105977761D01*
X195337692Y-106032140D01*
X195337695Y-106032142D01*
X195337696Y-106032142D01*
X195502903Y-106120446D01*
X195647712Y-106239288D01*
X195766554Y-106384097D01*
X195854858Y-106549303D01*
X195854860Y-106549307D01*
X195909239Y-106728571D01*
X195909240Y-106728575D01*
X195923000Y-106868282D01*
X195923000Y-107761717D01*
X195909240Y-107901426D01*
X195854859Y-108080695D01*
X195766554Y-108245903D01*
X195647712Y-108390712D01*
X195502903Y-108509554D01*
X195337697Y-108597858D01*
X195337693Y-108597860D01*
X195158429Y-108652239D01*
X195158428Y-108652239D01*
X195158425Y-108652240D01*
X194972000Y-108670601D01*
X194785576Y-108652240D01*
X194785573Y-108652239D01*
X194785572Y-108652239D01*
X194606308Y-108597860D01*
X194606304Y-108597858D01*
X194441098Y-108509554D01*
X194296289Y-108390712D01*
X194177447Y-108245903D01*
X194089140Y-108080692D01*
X194034760Y-107901430D01*
X194021000Y-107761718D01*
X194021000Y-106868283D01*
X194034760Y-106728576D01*
X194034761Y-106728572D01*
X194089140Y-106549308D01*
X194089143Y-106549303D01*
X194177446Y-106384097D01*
X194296288Y-106239288D01*
X194441097Y-106120446D01*
X194606303Y-106032142D01*
X194606304Y-106032142D01*
X194606307Y-106032140D01*
X194785571Y-105977761D01*
X194785572Y-105977761D01*
X194785575Y-105977760D01*
X194972000Y-105959399D01*
X195158424Y-105977760D01*
G37*
G36*
X197698424Y-105977760D02*
G01*
X197698427Y-105977761D01*
X197698428Y-105977761D01*
X197877692Y-106032140D01*
X197877695Y-106032142D01*
X197877696Y-106032142D01*
X198042903Y-106120446D01*
X198187712Y-106239288D01*
X198306554Y-106384097D01*
X198394858Y-106549303D01*
X198394860Y-106549307D01*
X198449239Y-106728571D01*
X198449240Y-106728575D01*
X198463000Y-106868282D01*
X198463000Y-107761717D01*
X198449240Y-107901426D01*
X198394859Y-108080695D01*
X198306554Y-108245903D01*
X198187712Y-108390712D01*
X198042903Y-108509554D01*
X197877697Y-108597858D01*
X197877693Y-108597860D01*
X197698429Y-108652239D01*
X197698428Y-108652239D01*
X197698425Y-108652240D01*
X197512000Y-108670601D01*
X197325576Y-108652240D01*
X197325573Y-108652239D01*
X197325572Y-108652239D01*
X197146308Y-108597860D01*
X197146304Y-108597858D01*
X196981098Y-108509554D01*
X196836289Y-108390712D01*
X196717447Y-108245903D01*
X196629140Y-108080692D01*
X196574760Y-107901430D01*
X196561000Y-107761718D01*
X196561000Y-106868283D01*
X196574760Y-106728576D01*
X196574761Y-106728572D01*
X196629140Y-106549308D01*
X196629143Y-106549303D01*
X196717446Y-106384097D01*
X196836288Y-106239288D01*
X196981097Y-106120446D01*
X197146303Y-106032142D01*
X197146304Y-106032142D01*
X197146307Y-106032140D01*
X197325571Y-105977761D01*
X197325572Y-105977761D01*
X197325575Y-105977760D01*
X197512000Y-105959399D01*
X197698424Y-105977760D01*
G37*
G36*
X174838424Y-105977760D02*
G01*
X174838427Y-105977761D01*
X174838428Y-105977761D01*
X175017692Y-106032140D01*
X175017695Y-106032142D01*
X175017696Y-106032142D01*
X175182903Y-106120446D01*
X175327712Y-106239288D01*
X175446554Y-106384097D01*
X175534858Y-106549303D01*
X175534860Y-106549307D01*
X175589239Y-106728571D01*
X175589240Y-106728575D01*
X175603000Y-106868282D01*
X175603000Y-107761717D01*
X175589240Y-107901426D01*
X175534859Y-108080695D01*
X175446554Y-108245903D01*
X175327712Y-108390712D01*
X175182903Y-108509554D01*
X175017697Y-108597858D01*
X175017693Y-108597860D01*
X174838429Y-108652239D01*
X174838428Y-108652239D01*
X174838425Y-108652240D01*
X174652000Y-108670601D01*
X174465576Y-108652240D01*
X174465573Y-108652239D01*
X174465572Y-108652239D01*
X174286308Y-108597860D01*
X174286304Y-108597858D01*
X174121098Y-108509554D01*
X173976289Y-108390712D01*
X173857447Y-108245903D01*
X173769140Y-108080692D01*
X173714760Y-107901430D01*
X173701000Y-107761718D01*
X173701000Y-106868283D01*
X173714760Y-106728576D01*
X173714761Y-106728572D01*
X173769140Y-106549308D01*
X173769143Y-106549303D01*
X173857446Y-106384097D01*
X173976288Y-106239288D01*
X174121097Y-106120446D01*
X174286303Y-106032142D01*
X174286304Y-106032142D01*
X174286307Y-106032140D01*
X174465571Y-105977761D01*
X174465572Y-105977761D01*
X174465575Y-105977760D01*
X174652000Y-105959399D01*
X174838424Y-105977760D01*
G37*
G36*
X177378424Y-105977760D02*
G01*
X177378427Y-105977761D01*
X177378428Y-105977761D01*
X177557692Y-106032140D01*
X177557695Y-106032142D01*
X177557696Y-106032142D01*
X177722903Y-106120446D01*
X177867712Y-106239288D01*
X177986554Y-106384097D01*
X178074858Y-106549303D01*
X178074860Y-106549307D01*
X178129239Y-106728571D01*
X178129240Y-106728575D01*
X178143000Y-106868282D01*
X178143000Y-107761717D01*
X178129240Y-107901426D01*
X178074859Y-108080695D01*
X177986554Y-108245903D01*
X177867712Y-108390712D01*
X177722903Y-108509554D01*
X177557697Y-108597858D01*
X177557693Y-108597860D01*
X177378429Y-108652239D01*
X177378428Y-108652239D01*
X177378425Y-108652240D01*
X177192000Y-108670601D01*
X177005576Y-108652240D01*
X177005573Y-108652239D01*
X177005572Y-108652239D01*
X176826308Y-108597860D01*
X176826304Y-108597858D01*
X176661098Y-108509554D01*
X176516289Y-108390712D01*
X176397447Y-108245903D01*
X176309140Y-108080692D01*
X176254760Y-107901430D01*
X176241000Y-107761718D01*
X176241000Y-106868283D01*
X176254760Y-106728576D01*
X176254761Y-106728572D01*
X176309140Y-106549308D01*
X176309143Y-106549303D01*
X176397446Y-106384097D01*
X176516288Y-106239288D01*
X176661097Y-106120446D01*
X176826303Y-106032142D01*
X176826304Y-106032142D01*
X176826307Y-106032140D01*
X177005571Y-105977761D01*
X177005572Y-105977761D01*
X177005575Y-105977760D01*
X177192000Y-105959399D01*
X177378424Y-105977760D01*
G37*
G36*
X179918424Y-105977760D02*
G01*
X179918427Y-105977761D01*
X179918428Y-105977761D01*
X180097692Y-106032140D01*
X180097695Y-106032142D01*
X180097696Y-106032142D01*
X180262903Y-106120446D01*
X180407712Y-106239288D01*
X180526554Y-106384097D01*
X180614858Y-106549303D01*
X180614860Y-106549307D01*
X180669239Y-106728571D01*
X180669240Y-106728575D01*
X180683000Y-106868282D01*
X180683000Y-107761717D01*
X180669240Y-107901426D01*
X180614859Y-108080695D01*
X180526554Y-108245903D01*
X180407712Y-108390712D01*
X180262903Y-108509554D01*
X180097697Y-108597858D01*
X180097693Y-108597860D01*
X179918429Y-108652239D01*
X179918428Y-108652239D01*
X179918425Y-108652240D01*
X179732000Y-108670601D01*
X179545576Y-108652240D01*
X179545573Y-108652239D01*
X179545572Y-108652239D01*
X179366308Y-108597860D01*
X179366304Y-108597858D01*
X179201098Y-108509554D01*
X179056289Y-108390712D01*
X178937447Y-108245903D01*
X178849140Y-108080692D01*
X178794760Y-107901430D01*
X178781000Y-107761718D01*
X178781000Y-106868283D01*
X178794760Y-106728576D01*
X178794761Y-106728572D01*
X178849140Y-106549308D01*
X178849143Y-106549303D01*
X178937446Y-106384097D01*
X179056288Y-106239288D01*
X179201097Y-106120446D01*
X179366303Y-106032142D01*
X179366304Y-106032142D01*
X179366307Y-106032140D01*
X179545571Y-105977761D01*
X179545572Y-105977761D01*
X179545575Y-105977760D01*
X179732000Y-105959399D01*
X179918424Y-105977760D01*
G37*
G36*
X192618424Y-105977760D02*
G01*
X192618427Y-105977761D01*
X192618428Y-105977761D01*
X192797692Y-106032140D01*
X192797695Y-106032142D01*
X192797696Y-106032142D01*
X192962903Y-106120446D01*
X193107712Y-106239288D01*
X193226554Y-106384097D01*
X193314858Y-106549303D01*
X193314860Y-106549307D01*
X193369239Y-106728571D01*
X193369240Y-106728575D01*
X193383000Y-106868282D01*
X193383000Y-107761717D01*
X193369240Y-107901426D01*
X193314859Y-108080695D01*
X193226554Y-108245903D01*
X193107712Y-108390712D01*
X192962903Y-108509554D01*
X192797697Y-108597858D01*
X192797693Y-108597860D01*
X192618429Y-108652239D01*
X192618428Y-108652239D01*
X192618425Y-108652240D01*
X192432000Y-108670601D01*
X192245576Y-108652240D01*
X192245573Y-108652239D01*
X192245572Y-108652239D01*
X192066308Y-108597860D01*
X192066304Y-108597858D01*
X191901098Y-108509554D01*
X191756289Y-108390712D01*
X191637447Y-108245903D01*
X191549140Y-108080692D01*
X191494760Y-107901430D01*
X191481000Y-107761718D01*
X191481000Y-106868283D01*
X191494760Y-106728576D01*
X191494761Y-106728572D01*
X191549140Y-106549308D01*
X191549143Y-106549303D01*
X191637446Y-106384097D01*
X191756288Y-106239288D01*
X191901097Y-106120446D01*
X192066303Y-106032142D01*
X192066304Y-106032142D01*
X192066307Y-106032140D01*
X192245571Y-105977761D01*
X192245572Y-105977761D01*
X192245575Y-105977760D01*
X192432000Y-105959399D01*
X192618424Y-105977760D01*
G37*
G36*
X190078424Y-105977760D02*
G01*
X190078427Y-105977761D01*
X190078428Y-105977761D01*
X190257692Y-106032140D01*
X190257695Y-106032142D01*
X190257696Y-106032142D01*
X190422903Y-106120446D01*
X190567712Y-106239288D01*
X190686554Y-106384097D01*
X190774858Y-106549303D01*
X190774860Y-106549307D01*
X190829239Y-106728571D01*
X190829240Y-106728575D01*
X190843000Y-106868282D01*
X190843000Y-107761717D01*
X190829240Y-107901426D01*
X190774859Y-108080695D01*
X190686554Y-108245903D01*
X190567712Y-108390712D01*
X190422903Y-108509554D01*
X190257697Y-108597858D01*
X190257693Y-108597860D01*
X190078429Y-108652239D01*
X190078428Y-108652239D01*
X190078425Y-108652240D01*
X189892000Y-108670601D01*
X189705576Y-108652240D01*
X189705573Y-108652239D01*
X189705572Y-108652239D01*
X189526308Y-108597860D01*
X189526304Y-108597858D01*
X189361098Y-108509554D01*
X189216289Y-108390712D01*
X189097447Y-108245903D01*
X189009140Y-108080692D01*
X188954760Y-107901430D01*
X188941000Y-107761718D01*
X188941000Y-106868283D01*
X188954760Y-106728576D01*
X188954761Y-106728572D01*
X189009140Y-106549308D01*
X189009143Y-106549303D01*
X189097446Y-106384097D01*
X189216288Y-106239288D01*
X189361097Y-106120446D01*
X189526303Y-106032142D01*
X189526304Y-106032142D01*
X189526307Y-106032140D01*
X189705571Y-105977761D01*
X189705572Y-105977761D01*
X189705575Y-105977760D01*
X189892000Y-105959399D01*
X190078424Y-105977760D01*
G37*
G36*
X173063000Y-108666000D02*
G01*
X171161000Y-108666000D01*
X171161000Y-105964000D01*
X173063000Y-105964000D01*
X173063000Y-108666000D01*
G37*
G36*
X159755000Y-102631000D02*
G01*
X157953000Y-102631000D01*
X157953000Y-100829000D01*
X159755000Y-100829000D01*
X159755000Y-102631000D01*
G37*
G36*
X158967512Y-98293927D02*
G01*
X159116812Y-98323624D01*
X159280784Y-98391544D01*
X159428354Y-98490147D01*
X159553853Y-98615646D01*
X159652456Y-98763216D01*
X159720376Y-98927188D01*
X159755000Y-99101259D01*
X159755000Y-99278741D01*
X159720376Y-99452812D01*
X159652456Y-99616784D01*
X159553853Y-99764354D01*
X159428354Y-99889853D01*
X159280784Y-99988456D01*
X159116812Y-100056376D01*
X158967512Y-100086073D01*
X158942742Y-100091000D01*
X158765258Y-100091000D01*
X158740488Y-100086073D01*
X158591188Y-100056376D01*
X158427216Y-99988456D01*
X158279646Y-99889853D01*
X158154147Y-99764354D01*
X158055544Y-99616784D01*
X157987624Y-99452812D01*
X157953000Y-99278741D01*
X157953000Y-99101259D01*
X157987624Y-98927188D01*
X158055544Y-98763216D01*
X158154147Y-98615646D01*
X158279646Y-98490147D01*
X158427216Y-98391544D01*
X158591188Y-98323624D01*
X158740488Y-98293927D01*
X158765258Y-98289000D01*
X158942742Y-98289000D01*
X158967512Y-98293927D01*
G37*
G36*
X158967512Y-95753927D02*
G01*
X159116812Y-95783624D01*
X159280784Y-95851544D01*
X159428354Y-95950147D01*
X159553853Y-96075646D01*
X159652456Y-96223216D01*
X159720376Y-96387188D01*
X159755000Y-96561259D01*
X159755000Y-96738741D01*
X159720376Y-96912812D01*
X159652456Y-97076784D01*
X159553853Y-97224354D01*
X159428354Y-97349853D01*
X159280784Y-97448456D01*
X159116812Y-97516376D01*
X158967512Y-97546073D01*
X158942742Y-97551000D01*
X158765258Y-97551000D01*
X158740488Y-97546073D01*
X158591188Y-97516376D01*
X158427216Y-97448456D01*
X158279646Y-97349853D01*
X158154147Y-97224354D01*
X158055544Y-97076784D01*
X157987624Y-96912812D01*
X157953000Y-96738741D01*
X157953000Y-96561259D01*
X157987624Y-96387188D01*
X158055544Y-96223216D01*
X158154147Y-96075646D01*
X158279646Y-95950147D01*
X158427216Y-95851544D01*
X158591188Y-95783624D01*
X158740488Y-95753927D01*
X158765258Y-95749000D01*
X158942742Y-95749000D01*
X158967512Y-95753927D01*
G37*
G36*
X158967512Y-93213927D02*
G01*
X159116812Y-93243624D01*
X159280784Y-93311544D01*
X159428354Y-93410147D01*
X159553853Y-93535646D01*
X159652456Y-93683216D01*
X159720376Y-93847188D01*
X159755000Y-94021259D01*
X159755000Y-94198741D01*
X159720376Y-94372812D01*
X159652456Y-94536784D01*
X159553853Y-94684354D01*
X159428354Y-94809853D01*
X159280784Y-94908456D01*
X159116812Y-94976376D01*
X158967512Y-95006073D01*
X158942742Y-95011000D01*
X158765258Y-95011000D01*
X158740488Y-95006073D01*
X158591188Y-94976376D01*
X158427216Y-94908456D01*
X158279646Y-94809853D01*
X158154147Y-94684354D01*
X158055544Y-94536784D01*
X157987624Y-94372812D01*
X157953000Y-94198741D01*
X157953000Y-94021259D01*
X157987624Y-93847188D01*
X158055544Y-93683216D01*
X158154147Y-93535646D01*
X158279646Y-93410147D01*
X158427216Y-93311544D01*
X158591188Y-93243624D01*
X158740488Y-93213927D01*
X158765258Y-93209000D01*
X158942742Y-93209000D01*
X158967512Y-93213927D01*
G37*
G36*
X138808549Y-83834116D02*
G01*
X138919734Y-83856232D01*
X139129203Y-83942997D01*
X139317720Y-84068960D01*
X139478040Y-84229280D01*
X139604003Y-84417797D01*
X139690768Y-84627266D01*
X139735000Y-84849636D01*
X139735000Y-85076364D01*
X139690768Y-85298734D01*
X139604003Y-85508203D01*
X139478040Y-85696720D01*
X139317720Y-85857040D01*
X139129203Y-85983003D01*
X138919734Y-86069768D01*
X138808549Y-86091884D01*
X138697365Y-86114000D01*
X138470635Y-86114000D01*
X138359451Y-86091884D01*
X138248266Y-86069768D01*
X138038797Y-85983003D01*
X137850280Y-85857040D01*
X137689960Y-85696720D01*
X137563997Y-85508203D01*
X137477232Y-85298734D01*
X137433000Y-85076364D01*
X137433000Y-84849636D01*
X137477232Y-84627266D01*
X137563997Y-84417797D01*
X137689960Y-84229280D01*
X137850280Y-84068960D01*
X138038797Y-83942997D01*
X138248266Y-83856232D01*
X138359451Y-83834116D01*
X138470635Y-83812000D01*
X138697365Y-83812000D01*
X138808549Y-83834116D01*
G37*
G36*
X143808549Y-83834116D02*
G01*
X143919734Y-83856232D01*
X144129203Y-83942997D01*
X144317720Y-84068960D01*
X144478040Y-84229280D01*
X144604003Y-84417797D01*
X144690768Y-84627266D01*
X144735000Y-84849636D01*
X144735000Y-85076364D01*
X144690768Y-85298734D01*
X144604003Y-85508203D01*
X144478040Y-85696720D01*
X144317720Y-85857040D01*
X144129203Y-85983003D01*
X143919734Y-86069768D01*
X143808549Y-86091884D01*
X143697365Y-86114000D01*
X143470635Y-86114000D01*
X143359451Y-86091884D01*
X143248266Y-86069768D01*
X143038797Y-85983003D01*
X142850280Y-85857040D01*
X142689960Y-85696720D01*
X142563997Y-85508203D01*
X142477232Y-85298734D01*
X142433000Y-85076364D01*
X142433000Y-84849636D01*
X142477232Y-84627266D01*
X142563997Y-84417797D01*
X142689960Y-84229280D01*
X142850280Y-84068960D01*
X143038797Y-83942997D01*
X143248266Y-83856232D01*
X143359451Y-83834116D01*
X143470635Y-83812000D01*
X143697365Y-83812000D01*
X143808549Y-83834116D01*
G37*
G36*
X138808549Y-78834116D02*
G01*
X138919734Y-78856232D01*
X139129203Y-78942997D01*
X139317720Y-79068960D01*
X139478040Y-79229280D01*
X139604003Y-79417797D01*
X139690768Y-79627266D01*
X139735000Y-79849636D01*
X139735000Y-80076364D01*
X139690768Y-80298734D01*
X139604003Y-80508203D01*
X139478040Y-80696720D01*
X139317720Y-80857040D01*
X139129203Y-80983003D01*
X138919734Y-81069768D01*
X138808549Y-81091884D01*
X138697365Y-81114000D01*
X138470635Y-81114000D01*
X138359451Y-81091884D01*
X138248266Y-81069768D01*
X138038797Y-80983003D01*
X137850280Y-80857040D01*
X137689960Y-80696720D01*
X137563997Y-80508203D01*
X137477232Y-80298734D01*
X137433000Y-80076364D01*
X137433000Y-79849636D01*
X137477232Y-79627266D01*
X137563997Y-79417797D01*
X137689960Y-79229280D01*
X137850280Y-79068960D01*
X138038797Y-78942997D01*
X138248266Y-78856232D01*
X138359451Y-78834116D01*
X138470635Y-78812000D01*
X138697365Y-78812000D01*
X138808549Y-78834116D01*
G37*
G36*
X143808549Y-78834116D02*
G01*
X143919734Y-78856232D01*
X144129203Y-78942997D01*
X144317720Y-79068960D01*
X144478040Y-79229280D01*
X144604003Y-79417797D01*
X144690768Y-79627266D01*
X144735000Y-79849636D01*
X144735000Y-80076364D01*
X144690768Y-80298734D01*
X144604003Y-80508203D01*
X144478040Y-80696720D01*
X144317720Y-80857040D01*
X144129203Y-80983003D01*
X143919734Y-81069768D01*
X143808549Y-81091884D01*
X143697365Y-81114000D01*
X143470635Y-81114000D01*
X143359451Y-81091884D01*
X143248266Y-81069768D01*
X143038797Y-80983003D01*
X142850280Y-80857040D01*
X142689960Y-80696720D01*
X142563997Y-80508203D01*
X142477232Y-80298734D01*
X142433000Y-80076364D01*
X142433000Y-79849636D01*
X142477232Y-79627266D01*
X142563997Y-79417797D01*
X142689960Y-79229280D01*
X142850280Y-79068960D01*
X143038797Y-78942997D01*
X143248266Y-78856232D01*
X143359451Y-78834116D01*
X143470635Y-78812000D01*
X143697365Y-78812000D01*
X143808549Y-78834116D01*
G37*
G36*
X166915485Y-74793102D02*
G01*
X167065310Y-74822904D01*
X167347574Y-74939821D01*
X167601605Y-75109559D01*
X167817641Y-75325595D01*
X167987379Y-75579626D01*
X168104296Y-75861890D01*
X168163900Y-76161540D01*
X168163900Y-76467060D01*
X168104296Y-76766710D01*
X167987379Y-77048974D01*
X167817641Y-77303005D01*
X167601605Y-77519041D01*
X167347574Y-77688779D01*
X167065310Y-77805696D01*
X166915485Y-77835498D01*
X166765661Y-77865300D01*
X166460139Y-77865300D01*
X166310315Y-77835498D01*
X166160490Y-77805696D01*
X165878226Y-77688779D01*
X165624195Y-77519041D01*
X165408159Y-77303005D01*
X165238421Y-77048974D01*
X165121504Y-76766710D01*
X165061900Y-76467060D01*
X165061900Y-76161540D01*
X165121504Y-75861890D01*
X165238421Y-75579626D01*
X165408159Y-75325595D01*
X165624195Y-75109559D01*
X165878226Y-74939821D01*
X166160490Y-74822904D01*
X166310315Y-74793102D01*
X166460139Y-74763300D01*
X166765661Y-74763300D01*
X166915485Y-74793102D01*
G37*
G36*
X241914065Y-74793102D02*
G01*
X242063890Y-74822904D01*
X242346154Y-74939821D01*
X242600185Y-75109559D01*
X242816221Y-75325595D01*
X242985959Y-75579626D01*
X243102876Y-75861890D01*
X243162480Y-76161540D01*
X243162480Y-76467060D01*
X243102876Y-76766710D01*
X242985959Y-77048974D01*
X242816221Y-77303005D01*
X242600185Y-77519041D01*
X242346154Y-77688779D01*
X242063890Y-77805696D01*
X241914065Y-77835498D01*
X241764241Y-77865300D01*
X241458719Y-77865300D01*
X241308895Y-77835498D01*
X241159070Y-77805696D01*
X240876806Y-77688779D01*
X240622775Y-77519041D01*
X240406739Y-77303005D01*
X240237001Y-77048974D01*
X240120084Y-76766710D01*
X240060480Y-76467060D01*
X240060480Y-76161540D01*
X240120084Y-75861890D01*
X240237001Y-75579626D01*
X240406739Y-75325595D01*
X240622775Y-75109559D01*
X240876806Y-74939821D01*
X241159070Y-74822904D01*
X241308895Y-74793102D01*
X241458719Y-74763300D01*
X241764241Y-74763300D01*
X241914065Y-74793102D01*
G37*
G36*
X278659256Y-73194298D02*
G01*
X278765579Y-73215447D01*
X279066042Y-73339903D01*
X279336451Y-73520585D01*
X279566415Y-73750549D01*
X279566416Y-73750551D01*
X279747098Y-74020960D01*
X279871553Y-74321422D01*
X279935000Y-74640389D01*
X279935000Y-74965611D01*
X279892702Y-75178256D01*
X279871553Y-75284579D01*
X279854563Y-75325596D01*
X279749341Y-75579626D01*
X279747097Y-75585042D01*
X279566415Y-75855451D01*
X279336451Y-76085415D01*
X279066042Y-76266097D01*
X278765579Y-76390553D01*
X278659256Y-76411702D01*
X278446611Y-76454000D01*
X278121389Y-76454000D01*
X277908744Y-76411702D01*
X277802421Y-76390553D01*
X277501958Y-76266097D01*
X277231549Y-76085415D01*
X277001585Y-75855451D01*
X276820903Y-75585042D01*
X276818660Y-75579626D01*
X276713437Y-75325596D01*
X276696447Y-75284579D01*
X276675298Y-75178256D01*
X276633000Y-74965611D01*
X276633000Y-74640389D01*
X276696447Y-74321422D01*
X276820902Y-74020960D01*
X277001584Y-73750551D01*
X277001585Y-73750549D01*
X277231549Y-73520585D01*
X277501958Y-73339903D01*
X277802421Y-73215447D01*
X277908744Y-73194298D01*
X278121389Y-73152000D01*
X278446611Y-73152000D01*
X278659256Y-73194298D01*
G37*
G36*
X136927256Y-73194298D02*
G01*
X137033579Y-73215447D01*
X137334042Y-73339903D01*
X137604451Y-73520585D01*
X137834415Y-73750549D01*
X137834416Y-73750551D01*
X138015098Y-74020960D01*
X138139553Y-74321422D01*
X138203000Y-74640389D01*
X138203000Y-74965611D01*
X138160702Y-75178256D01*
X138139553Y-75284579D01*
X138122563Y-75325596D01*
X138017341Y-75579626D01*
X138015097Y-75585042D01*
X137834415Y-75855451D01*
X137604451Y-76085415D01*
X137334042Y-76266097D01*
X137033579Y-76390553D01*
X136927256Y-76411702D01*
X136714611Y-76454000D01*
X136389389Y-76454000D01*
X136176744Y-76411702D01*
X136070421Y-76390553D01*
X135769958Y-76266097D01*
X135499549Y-76085415D01*
X135269585Y-75855451D01*
X135088903Y-75585042D01*
X135086660Y-75579626D01*
X134981437Y-75325596D01*
X134964447Y-75284579D01*
X134943298Y-75178256D01*
X134901000Y-74965611D01*
X134901000Y-74640389D01*
X134964447Y-74321422D01*
X135088902Y-74020960D01*
X135269584Y-73750551D01*
X135269585Y-73750549D01*
X135499549Y-73520585D01*
X135769958Y-73339903D01*
X136070421Y-73215447D01*
X136176744Y-73194298D01*
X136389389Y-73152000D01*
X136714611Y-73152000D01*
X136927256Y-73194298D01*
G37*
M02*
